# Blender 4.3.2
# www.blender.org
mtllib 45deg_gravel.mtl
o 45deg_gravel
v 3.999996 0.077428 -0.000002
v 2.627403 0.100000 -0.000002
v 3.000000 0.041215 -0.000002
v 5.862751 0.041215 -6.865256
v -4.000008 -0.100000 0.000000
v -5.000004 -0.004114 0.000000
v -3.000011 0.041215 -0.000000
v 1.635991 0.041215 -11.123711
v 3.751111 0.100000 -8.996012
v 2.458294 0.100000 -7.473641
v 1.416687 0.100000 -5.770717
v 0.647496 0.100000 -3.929160
v 0.171112 0.100000 -1.990509
v 0.000000 0.100000 -0.000000
v 3.751099 -0.100000 -8.996009
v 2.458294 -0.100000 -7.473641
v 1.416687 -0.100000 -5.770717
v 0.647496 -0.100000 -3.929160
v 0.171112 -0.100000 -1.990509
v 0.000000 -0.100000 -0.000000
v 3.999996 -0.100000 -0.000002
v 4.122311 -0.100000 -1.367618
v 4.450447 -0.100000 -2.689155
v 4.975571 -0.100000 -3.944679
v 5.685493 -0.100000 -5.110347
v 6.568440 -0.100000 -6.156529
v 4.122311 0.077428 -1.367618
v 4.450447 0.077428 -2.689155
v 4.975571 0.077428 -3.944679
v 5.685493 0.077428 -5.110345
v 6.568440 0.077428 -6.156529
v 5.864102 -0.100000 -6.866397
v 4.878697 -0.100000 -5.701171
v 4.085850 -0.100000 -4.401190
v 3.499707 -0.100000 -2.999156
v 3.134514 -0.100000 -1.523341
v 3.000000 -0.100000 -0.000002
v 7.272766 -0.100000 -5.446659
v 6.492302 -0.100000 -4.519524
v 5.865280 -0.100000 -3.488170
v 5.401176 -0.100000 -2.379154
v 5.110107 -0.100000 -1.211896
v 4.999992 -0.100000 -0.000002
v 7.272766 -0.004114 -5.446660
v 6.492302 -0.004114 -4.519524
v 5.865280 -0.004113 -3.488170
v 5.401176 -0.004113 -2.379154
v 5.110107 -0.004114 -1.211896
v 4.999992 -0.004114 -0.000002
v 5.601677 0.100000 -7.130890
v 4.578095 0.100000 -5.921307
v 3.754349 0.100000 -4.571282
v 3.145466 0.100000 -3.114661
v 2.766460 0.100000 -1.581362
v 3.175941 0.096028 -0.000002
v 3.308315 0.096028 -1.495941
v 3.666996 0.096028 -2.944612
v 4.242393 0.096029 -4.320865
v 5.020661 0.096028 -5.597213
v 5.988030 0.096028 -6.741495
v -3.780098 -0.100000 -2.613400
v -3.155445 -0.100000 -5.169164
v -2.142185 -0.100000 -7.596754
v -0.768905 -0.100000 -9.836933
v 0.933770 -0.100000 -11.835491
v -4.000008 0.077428 0.000001
v -3.780098 0.077428 -2.613400
v -3.155445 0.077428 -5.169164
v -2.142185 0.077428 -7.596754
v -0.768905 0.077428 -9.836935
v 0.933770 0.077428 -11.835491
v 1.638108 -0.100000 -11.125622
v 0.037892 -0.100000 -9.246111
v -1.252464 -0.100000 -7.140246
v -2.204704 -0.100000 -4.859164
v -2.792290 -0.100000 -2.457677
v -3.000011 -0.100000 -0.000000
v 0.229443 -0.100000 -12.545362
v -1.575714 -0.100000 -10.427759
v -3.031906 -0.100000 -8.053265
v -4.106185 -0.100000 -5.479166
v -4.767895 -0.100000 -2.769123
v -5.000004 -0.100000 0.000001
v 0.229443 -0.004114 -12.545362
v -1.575714 -0.004114 -10.427759
v -3.031906 -0.004113 -8.053265
v -4.106185 -0.004114 -5.479166
v -4.767895 -0.004114 -2.769123
v 1.900532 0.100000 -10.861130
v 0.338494 0.100000 -9.025975
v -0.920963 0.100000 -6.970154
v -1.850475 0.100000 -4.743659
v -2.424248 0.100000 -2.399655
v -2.627415 0.100000 0.000000
v -3.175953 0.096029 0.000000
v -2.966103 0.096028 -2.485077
v -2.371994 0.096029 -4.913708
v -1.409008 0.096028 -7.220570
v -0.104072 0.096028 -9.350066
v 1.514180 0.096029 -11.250523
vn 0.7099 -0.0000 -0.7043
vn -0.0000 -0.0000 1.0000
vn 0.7103 -0.0001 -0.7039
vn 0.7094 -0.0314 -0.7041
vn 0.7122 0.0202 -0.7016
vn 0.7088 0.0202 -0.7051
vn 0.7092 -0.0507 -0.7032
vn -0.0000 -1.0000 -0.0000
vn 0.0226 0.9997 0.0020
vn 0.0220 0.9997 0.0054
vn 0.0209 0.9997 0.0087
vn 0.0193 0.9997 0.0118
vn 0.0173 0.9997 0.0146
vn 0.0813 0.9967 0.0073
vn 0.0792 0.9967 0.0197
vn 0.0752 0.9967 0.0315
vn 0.0696 0.9967 0.0423
vn 0.0623 0.9967 0.0525
vn 0.9959 -0.0000 0.0905
vn 0.9703 -0.0000 0.2420
vn 0.9225 -0.0000 0.3860
vn 0.8545 -0.0000 0.5195
vn 0.7650 -0.0000 0.6440
vn 0.0055 1.0000 0.0047
vn 0.0062 1.0000 0.0038
vn 0.0067 1.0000 0.0028
vn 0.0070 1.0000 0.0017
vn 0.0072 1.0000 0.0006
vn -0.0000 1.0000 -0.0000
vn -0.0226 0.9997 -0.0019
vn -0.0220 0.9997 -0.0054
vn -0.0209 0.9997 -0.0087
vn -0.0193 0.9997 -0.0118
vn -0.0172 0.9997 -0.0147
vn -0.0813 0.9967 -0.0068
vn -0.0792 0.9967 -0.0193
vn -0.0752 0.9967 -0.0314
vn -0.0695 0.9967 -0.0426
vn -0.0620 0.9967 -0.0528
vn -0.9965 -0.0000 -0.0835
vn -0.9715 -0.0000 -0.2372
vn -0.9229 -0.0000 -0.3851
vn -0.8525 -0.0000 -0.5228
vn -0.7610 -0.0000 -0.6487
vn -0.0055 1.0000 -0.0047
vn -0.0062 1.0000 -0.0038
vn -0.0067 1.0000 -0.0028
vn -0.0071 1.0000 -0.0017
vn -0.0072 1.0000 -0.0006
vn 0.7000 0.0125 -0.7141
vn 0.7096 -0.0300 -0.7040
vn 0.7098 0.0125 -0.7043
vn 0.7098 -0.0484 -0.7027
vn 0.7090 -0.0484 -0.7035
vn 0.0225 0.9997 0.0020
vn 0.0220 0.9997 0.0055
vn 0.0811 0.9967 0.0074
vn 0.0791 0.9967 0.0197
vn 0.0697 0.9967 0.0424
vn 0.0624 0.9967 0.0526
vn 0.0071 1.0000 0.0017
vn -0.0225 0.9997 -0.0019
vn -0.0812 0.9967 -0.0068
vn -0.0792 0.9967 -0.0194
vn -0.0621 0.9967 -0.0529
vt 0.995503 0.562755
vt 0.986310 0.554504
vt 0.987182 0.515859
vt 0.994445 0.046896
vt 0.992746 0.093792
vt 0.986124 0.093792
vt 0.986124 0.234481
vt 0.995503 0.111266
vt 0.995503 0.515859
vt 0.991006 0.468963
vt 0.995503 0.468963
vt 0.990621 -0.000000
vt 0.986124 0.046896
vt 0.986124 -0.000000
vt 0.988881 0.562762
vt 0.995503 0.703444
vt 0.986124 0.703444
vt 0.995317 0.085541
vt 0.986124 0.580228
vt 0.987182 0.891029
vt 0.988882 0.844139
vt 0.995503 0.844133
vt 0.986124 0.375170
vt 0.995317 0.383421
vt 0.994445 0.422066
vt 0.995503 0.357697
vt 0.991006 0.937925
vt 0.995503 0.891029
vt 0.995503 0.937925
vt 0.986124 0.422066
vt 0.990621 0.468963
vt 0.986124 0.468963
vt 0.992746 0.375170
vt 0.986124 0.826660
vt 0.986310 0.852384
vt 0.062684 0.223935
vt 0.000000 0.180596
vt 0.043279 0.162536
vt 0.072349 0.287057
vt 0.017121 0.235035
vt 0.072296 0.350878
vt 0.025604 0.290810
vt 0.017034 0.403149
vt 0.025546 0.347189
vt 0.062623 0.414149
vt 0.000000 0.457370
vt 0.108248 0.212836
vt 0.086559 0.144477
vt 0.119095 0.283303
vt 0.119047 0.354568
vt 0.108210 0.425149
vt 0.043303 0.475373
vt 0.244939 0.179536
vt 0.216397 0.090298
vt 0.259333 0.272043
vt 0.259300 0.365636
vt 0.244974 0.458149
vt 0.086606 0.493375
vt 1.710981 -1.099549
vt 1.440979 -0.474892
vt 1.440979 -1.099549
vt 1.710981 -0.474892
vt 1.440979 0.172646
vt 1.710981 0.172646
vt 1.440979 0.827784
vt 1.710981 1.475361
vt 1.710981 0.827784
vt 1.710981 2.099994
vt 1.440979 1.475361
vt 2.038631 -1.099549
vt 2.038631 -0.474892
vt 2.038631 0.172646
vt 2.038631 1.475361
vt 2.038631 0.827784
vt 2.038631 2.099994
vt 0.000000 0.914172
vt 0.004497 0.859736
vt 0.004497 0.914172
vt 0.000000 0.803962
vt 0.000000 0.859736
vt 0.000000 0.747583
vt 0.004497 0.803962
vt 0.004497 0.691622
vt 0.004497 0.747583
vt 0.000000 0.637398
vt 0.000000 0.691622
vt 0.115182 1.475361
vt 0.218345 2.099994
vt 0.115182 2.099994
vt 0.115182 0.827784
vt 0.218345 1.475361
vt 0.218345 0.172646
vt 0.218345 0.827784
vt 0.115182 0.172646
vt 0.218345 -0.474892
vt 0.115182 -0.474892
vt 0.218345 -1.099549
vt 1.261248 -1.099549
vt 0.400374 -0.474892
vt 0.400374 -1.099549
vt 1.261248 -0.474892
vt 0.400374 0.172646
vt 1.261248 0.172646
vt 0.400374 0.827784
vt 1.261248 1.475361
vt 1.261248 0.827784
vt 1.261248 2.099994
vt 0.400374 1.475361
vt 0.472758 0.124038
vt 0.389515 0.018060
vt 0.432794 0.000000
vt 0.493062 0.253277
vt 0.427194 0.135138
vt 0.493055 0.384084
vt 0.446316 0.257031
vt 0.427326 0.502149
vt 0.446304 0.380394
vt 0.472914 0.513149
vt 0.389728 0.619395
vt 0.346236 0.036119
vt 0.381630 0.146237
vt 0.399570 0.260784
vt 0.381738 0.491149
vt 0.399553 0.376705
vt 0.346425 0.601393
vt 0.216516 0.547384
vt -0.640232 -1.099549
vt -0.910233 -0.474892
vt -0.910233 -1.099549
vt -0.640232 -0.474892
vt -0.910233 0.172646
vt -0.640232 0.172646
vt -0.910233 0.827784
vt -0.640232 1.475361
vt -0.640232 0.827784
vt -0.640232 2.099994
vt -0.910233 1.475361
vt -1.237885 -0.474892
vt -1.237885 -1.099549
vt -1.237885 0.172646
vt -1.237885 0.827784
vt -0.910233 2.099994
vt -1.237885 1.475361
vt 1.000000 0.120576
vt 0.995503 0.000000
vt 1.000000 0.000000
vt 0.995503 0.247858
vt 0.995503 0.120576
vt 1.000000 0.378274
vt 1.000000 0.247858
vt 1.000000 0.508510
vt 0.995503 0.378274
vt 1.000000 0.635471
vt 0.995503 0.508510
vt 0.223659 1.475361
vt 0.109870 2.099994
vt 0.223659 2.099994
vt 0.223659 0.827784
vt 0.109870 1.475361
vt 0.109870 0.172646
vt 0.109870 0.827784
vt 0.223659 0.172646
vt 0.109870 -0.474892
vt 0.223659 -0.474892
vt 0.109870 -1.099549
vt -0.460502 -0.474892
vt -0.460502 -1.099549
vt -0.460502 0.172646
vt -0.460502 0.827784
vt 0.400374 2.099994
vt -0.460502 1.475361
vt 0.995503 0.234481
vt 1.440979 2.099994
vt 0.004497 0.637398
vt 0.115182 -1.099549
vt 0.433031 0.637398
vt -1.237885 2.099994
vt 0.995503 0.635471
vt 0.223659 -1.099549
vt -0.460502 2.099994
s 0
usemtl gravel
f 20/7/2 3/5/2 2/8/2
f 4/15/3 15/16/3 9/17/3
f 94/26/2 77/23/2 20/7/2
f 9/17/6 72/22/6 8/21/6
f 22/36/8 43/37/8 21/38/8
f 23/39/8 42/40/8 22/36/8
f 24/41/8 41/42/8 23/39/8
f 24/41/8 39/43/8 40/44/8
f 25/45/8 38/46/8 39/43/8
f 36/47/8 21/38/8 37/48/8
f 35/49/8 22/36/8 36/47/8
f 34/50/8 23/39/8 35/49/8
f 34/50/8 25/45/8 24/41/8
f 33/51/8 26/52/8 25/45/8
f 19/53/8 37/48/8 20/54/8
f 18/55/8 36/47/8 19/53/8
f 17/56/8 35/49/8 18/55/8
f 17/56/8 33/51/8 34/50/8
f 16/57/8 32/58/8 33/51/8
f 2/98/29 13/99/29 14/100/29
f 54/101/29 12/102/29 13/99/29
f 53/103/29 11/104/29 12/102/29
f 51/105/29 11/104/29 52/106/29
f 50/107/29 10/108/29 51/105/29
f 82/109/8 5/110/8 83/111/8
f 81/112/8 61/113/8 82/109/8
f 80/114/8 62/115/8 81/112/8
f 80/114/8 64/116/8 63/117/8
f 79/118/8 65/119/8 64/116/8
f 61/113/8 77/120/8 5/110/8
f 62/115/8 76/121/8 61/113/8
f 63/117/8 75/122/8 62/115/8
f 63/117/8 73/123/8 74/124/8
f 64/116/8 72/125/8 73/123/8
f 76/121/8 20/54/8 77/120/8
f 75/122/8 19/53/8 76/121/8
f 74/124/8 18/55/8 75/122/8
f 74/124/8 16/57/8 17/56/8
f 73/123/8 15/126/8 16/57/8
f 14/100/29 93/166/29 94/167/29
f 13/99/29 92/168/29 93/166/29
f 12/102/29 91/169/29 92/168/29
f 10/108/29 91/169/29 11/104/29
f 9/170/29 90/171/29 10/108/29
f 2/8/2 14/172/2 20/7/2
f 20/7/2 37/6/2 3/5/2
f 9/17/51 50/19/51 4/15/51
f 4/15/52 32/1/52 15/16/52
f 20/7/2 14/172/2 94/26/2
f 94/26/2 7/33/2 77/23/2
f 8/21/54 89/34/54 9/17/54
f 9/17/1 15/16/1 72/22/1
f 22/36/8 42/40/8 43/37/8
f 23/39/8 41/42/8 42/40/8
f 24/41/8 40/44/8 41/42/8
f 24/41/8 25/45/8 39/43/8
f 25/45/8 26/52/8 38/46/8
f 36/47/8 22/36/8 21/38/8
f 35/49/8 23/39/8 22/36/8
f 34/50/8 24/41/8 23/39/8
f 34/50/8 33/51/8 25/45/8
f 33/51/8 32/58/8 26/52/8
f 19/53/8 36/47/8 37/48/8
f 18/55/8 35/49/8 36/47/8
f 17/56/8 34/50/8 35/49/8
f 17/56/8 16/57/8 33/51/8
f 16/57/8 15/126/8 32/58/8
f 2/98/29 54/101/29 13/99/29
f 54/101/29 53/103/29 12/102/29
f 53/103/29 52/106/29 11/104/29
f 51/105/29 10/108/29 11/104/29
f 50/107/29 9/170/29 10/108/29
f 82/109/8 61/113/8 5/110/8
f 81/112/8 62/115/8 61/113/8
f 80/114/8 63/117/8 62/115/8
f 80/114/8 79/118/8 64/116/8
f 79/118/8 78/176/8 65/119/8
f 61/113/8 76/121/8 77/120/8
f 62/115/8 75/122/8 76/121/8
f 63/117/8 74/124/8 75/122/8
f 63/117/8 64/116/8 73/123/8
f 64/116/8 65/119/8 72/125/8
f 76/121/8 19/53/8 20/54/8
f 75/122/8 18/55/8 19/53/8
f 74/124/8 17/56/8 18/55/8
f 74/124/8 73/123/8 16/57/8
f 73/123/8 72/125/8 15/126/8
f 14/100/29 13/99/29 93/166/29
f 13/99/29 12/102/29 92/168/29
f 12/102/29 11/104/29 91/169/29
f 10/108/29 90/171/29 91/169/29
f 9/170/29 89/180/29 90/171/29
usemtl Soil
f 32/1/1 60/2/1 31/3/1
f 1/4/2 3/5/2 37/6/2
f 26/9/1 44/10/1 38/11/1
f 49/12/2 21/13/2 43/14/2
f 71/20/5 8/21/5 72/22/5
f 77/23/2 95/24/2 66/25/2
f 84/27/1 65/28/1 78/29/1
f 5/30/2 6/31/2 83/32/2
f 1/59/9 56/60/9 55/61/9
f 27/62/10 57/63/10 56/60/10
f 28/64/11 58/65/11 57/63/11
f 30/66/12 58/65/12 29/67/12
f 31/68/13 59/69/13 30/66/13
f 49/70/14 27/62/14 1/59/14
f 48/71/15 28/64/15 27/62/15
f 47/72/16 29/67/16 28/64/16
f 45/73/17 29/67/17 46/74/17
f 44/75/18 30/66/18 45/73/18
f 43/76/19 48/77/19 49/78/19
f 41/79/20 48/77/20 42/80/20
f 40/81/21 47/82/21 41/79/21
f 40/81/22 45/83/22 46/84/22
f 38/85/23 45/83/23 39/86/23
f 95/127/30 67/128/30 66/129/30
f 96/130/31 68/131/31 67/128/31
f 97/132/32 69/133/32 68/131/32
f 99/134/33 69/133/33 98/135/33
f 100/136/34 70/137/34 99/134/34
f 66/129/35 88/138/35 6/139/35
f 67/128/36 87/140/36 88/138/36
f 68/131/37 86/141/37 87/140/37
f 70/137/38 86/141/38 69/133/38
f 71/142/39 85/143/39 70/137/39
f 88/144/40 83/145/40 6/146/40
f 88/144/41 81/147/41 82/148/41
f 86/149/42 81/147/42 87/150/42
f 85/151/43 80/152/43 86/149/43
f 84/153/44 79/154/44 85/151/44
f 31/3/1 26/9/1 32/1/1
f 32/1/50 4/15/50 60/2/50
f 37/6/2 21/13/2 1/4/2
f 1/4/2 55/18/2 3/5/2
f 26/9/1 31/3/1 44/10/1
f 49/12/2 1/4/2 21/13/2
f 72/22/1 65/28/1 71/20/1
f 71/20/53 100/35/53 8/21/53
f 66/25/2 5/30/2 77/23/2
f 77/23/2 7/33/2 95/24/2
f 84/27/1 71/20/1 65/28/1
f 5/30/2 66/25/2 6/31/2
f 1/59/55 27/62/55 56/60/55
f 27/62/56 28/64/56 57/63/56
f 28/64/11 29/67/11 58/65/11
f 30/66/12 59/69/12 58/65/12
f 31/68/13 60/173/13 59/69/13
f 49/70/57 48/71/57 27/62/57
f 48/71/58 47/72/58 28/64/58
f 47/72/16 46/74/16 29/67/16
f 45/73/59 30/66/59 29/67/59
f 44/75/60 31/68/60 30/66/60
f 43/76/19 42/80/19 48/77/19
f 41/79/20 47/82/20 48/77/20
f 40/81/21 46/84/21 47/82/21
f 40/81/22 39/86/22 45/83/22
f 38/85/23 44/174/23 45/83/23
f 95/127/62 96/130/62 67/128/62
f 96/130/31 97/132/31 68/131/31
f 97/132/32 98/135/32 69/133/32
f 99/134/33 70/137/33 69/133/33
f 100/136/34 71/142/34 70/137/34
f 66/129/63 67/128/63 88/138/63
f 67/128/64 68/131/64 87/140/64
f 68/131/37 69/133/37 86/141/37
f 70/137/38 85/143/38 86/141/38
f 71/142/65 84/177/65 85/143/65
f 88/144/40 82/148/40 83/145/40
f 88/144/41 87/150/41 81/147/41
f 86/149/42 80/152/42 81/147/42
f 85/151/43 79/154/43 80/152/43
f 84/153/44 78/178/44 79/154/44
usemtl Soil/Gravel.001
f 55/18/2 2/8/2 3/5/2
f 50/19/4 60/2/4 4/15/4
f 95/24/2 7/33/2 94/26/2
f 89/34/7 8/21/7 100/35/7
f 51/87/24 60/88/24 50/89/24
f 52/90/25 59/91/25 51/87/25
f 52/90/26 57/92/26 58/93/26
f 53/94/27 56/95/27 57/92/27
f 54/96/28 55/97/28 56/95/28
f 99/155/45 89/156/45 100/157/45
f 98/158/46 90/159/46 99/155/46
f 98/158/47 92/160/47 91/161/47
f 97/162/48 93/163/48 92/160/48
f 96/164/49 94/165/49 93/163/49
f 51/87/24 59/91/24 60/88/24
f 52/90/25 58/93/25 59/91/25
f 52/90/26 53/94/26 57/92/26
f 53/94/61 54/96/61 56/95/61
f 54/96/28 2/175/28 55/97/28
f 99/155/45 90/159/45 89/156/45
f 98/158/46 91/161/46 90/159/46
f 98/158/47 97/162/47 92/160/47
f 97/162/48 96/164/48 93/163/48
f 96/164/49 95/179/49 94/165/49
