# Blender 4.3.2
# www.blender.org
o 90deg_gravel
v 12.676656 0.100000 -12.676777
v 12.676656 -0.100000 -12.676777
v 12.676689 -0.100000 -9.676777
v 12.676712 -0.100000 -7.676776
v 4.000008 0.077428 -0.000001
v 12.676701 0.077428 -8.676775
v 12.676701 -0.100000 -8.676775
v 12.676712 -0.004114 -7.676776
v 2.627415 0.100000 -0.000001
v 3.000000 0.041215 -0.000001
v 12.676689 0.100000 -10.049368
v 12.676689 0.096028 -9.500824
v 12.674927 0.041215 -9.676621
v 12.676621 -0.100000 -15.676774
v 12.676599 -0.100000 -17.676779
v 12.676610 0.077428 -16.676777
v 12.676610 -0.100000 -16.676777
v -3.999996 -0.100000 0.000001
v -4.999992 -0.004114 0.000001
v 12.676599 -0.004114 -17.676779
v -3.000000 0.041215 0.000001
v 12.676633 0.100000 -15.304183
v 12.676621 0.096028 -15.852727
v 12.673772 0.041215 -15.676620
v 10.783929 0.100000 -12.525633
v 8.841775 0.100000 -12.061993
v 6.995156 0.100000 -11.304798
v 5.285741 0.100000 -10.274279
v 3.751122 0.100000 -8.996009
v 2.458306 0.100000 -7.473640
v 1.416699 0.100000 -5.770716
v 0.647507 0.100000 -3.929159
v 0.171124 0.100000 -1.990508
v 0.000000 0.100000 0.000000
v 10.783929 -0.100000 -12.525633
v 8.841775 -0.100000 -12.061993
v 6.995156 -0.100000 -11.304798
v 5.285741 -0.100000 -10.274279
v 3.751122 -0.100000 -8.996009
v 2.458306 -0.100000 -7.473640
v 1.416699 -0.100000 -5.770716
v 0.647507 -0.100000 -3.929159
v 0.171124 -0.100000 -1.990508
v 0.000000 -0.100000 0.000000
v 4.000008 -0.100000 -0.000001
v 4.122323 -0.100000 -1.367617
v 4.450459 -0.100000 -2.689153
v 4.975583 -0.100000 -3.944679
v 5.685505 -0.100000 -5.110346
v 6.568451 -0.100000 -6.156528
v 7.623597 -0.100000 -7.028597
v 8.793011 -0.100000 -7.731605
v 10.051586 -0.100000 -8.249333
v 11.375553 -0.100000 -8.569624
v 4.122323 0.077428 -1.367617
v 4.450459 0.077428 -2.689153
v 4.975583 0.077428 -3.944679
v 5.685505 0.077428 -5.110346
v 6.568451 0.077428 -6.156528
v 7.623597 0.077428 -7.028597
v 8.793011 0.077428 -7.731605
v 10.051586 0.077428 -8.249333
v 11.375553 0.077428 -8.569624
v 11.227650 -0.100000 -9.558627
v 9.749130 -0.100000 -9.202497
v 8.343544 -0.100000 -8.624903
v 7.039135 -0.100000 -7.840018
v 5.864114 -0.100000 -6.866397
v 4.878709 -0.100000 -5.701169
v 4.085862 -0.100000 -4.401189
v 3.499719 -0.100000 -2.999156
v 3.134526 -0.100000 -1.523340
v 3.000000 -0.100000 -0.000001
v 11.523457 -0.100000 -7.580623
v 10.354031 -0.100000 -7.296169
v 9.242477 -0.100000 -6.838305
v 8.208057 -0.100000 -6.217178
v 7.272778 -0.100000 -5.446658
v 6.492313 -0.100000 -4.519522
v 5.865292 -0.100000 -3.488169
v 5.401188 -0.100000 -2.379153
v 5.110119 -0.100000 -1.211895
v 5.000004 -0.100000 -0.000001
v 11.523457 -0.004113 -7.580623
v 10.354031 -0.004114 -7.296169
v 9.242477 -0.004114 -6.838305
v 8.208057 -0.004114 -6.217178
v 7.272778 -0.004114 -5.446658
v 6.492313 -0.004114 -4.519522
v 5.865292 -0.004114 -3.488169
v 5.401188 -0.004113 -2.379153
v 5.110119 -0.004114 -1.211895
v 5.000004 -0.004114 -0.000001
v 11.172546 0.100000 -9.927122
v 9.636440 0.100000 -9.557640
v 8.176083 0.100000 -8.957740
v 6.821366 0.100000 -8.142348
v 5.601689 0.100000 -7.130890
v 4.578095 0.100000 -5.921306
v 3.754361 0.100000 -4.571281
v 3.145478 0.100000 -3.114660
v 2.766472 0.100000 -1.581361
v 3.175953 0.096028 -0.000001
v 3.308327 0.096029 -1.495940
v 3.666997 0.096028 -2.944610
v 4.242405 0.096029 -4.320866
v 5.020673 0.096028 -5.597214
v 5.988042 0.096028 -6.741494
v 7.141972 0.096028 -7.697247
v 8.422623 0.096028 -8.467727
v 9.802345 0.096028 -9.034787
v 11.253674 0.096029 -9.384610
v -3.780086 -0.100000 -2.613398
v -3.155433 -0.100000 -5.169163
v -2.142173 -0.100000 -7.596754
v -0.768905 -0.100000 -9.836932
v 0.933782 -0.100000 -11.835489
v 2.947885 -0.100000 -13.519958
v 5.197301 -0.100000 -14.877992
v 7.631974 -0.100000 -15.874652
v 10.192315 -0.100000 -16.481638
v -3.999996 0.077428 0.000001
v -3.780086 0.077428 -2.613398
v -3.155433 0.077428 -5.169163
v -2.142173 0.077428 -7.596754
v -0.768905 0.077428 -9.836933
v 0.933782 0.077428 -11.835489
v 2.947885 0.077428 -13.519958
v 5.197301 0.077428 -14.877992
v 7.631974 0.077428 -15.874652
v 10.192315 0.077428 -16.481638
v 10.340219 -0.100000 -15.492637
v 7.934430 -0.100000 -14.921488
v 5.646756 -0.100000 -13.984694
v 3.532357 -0.100000 -12.708538
v 1.638120 -0.100000 -11.125620
v 0.037904 -0.100000 -9.246109
v -1.252452 -0.100000 -7.140245
v -2.204703 -0.100000 -4.859163
v -2.792289 -0.100000 -2.457675
v -3.000000 -0.100000 0.000001
v 10.044412 -0.100000 -17.470642
v 7.329530 -0.100000 -16.827820
v 4.747834 -0.100000 -15.771292
v 2.363424 -0.100000 -14.331379
v 0.229455 -0.100000 -12.545360
v -1.575702 -0.100000 -10.427756
v -3.031894 -0.100000 -8.053265
v -4.106174 -0.100000 -5.479165
v -4.767883 -0.100000 -2.769121
v -4.999992 -0.100000 0.000001
v 10.044412 -0.004114 -17.470642
v 7.329530 -0.004114 -16.827820
v 4.747834 -0.004114 -15.771292
v 2.363424 -0.004114 -14.331379
v 0.229455 -0.004114 -12.545360
v -1.575702 -0.004114 -10.427756
v -3.031894 -0.004113 -8.053265
v -4.106174 -0.004114 -5.479165
v -4.767883 -0.004114 -2.769121
v 10.395322 0.100000 -15.124143
v 8.047120 0.100000 -14.566346
v 5.814229 0.100000 -13.651857
v 3.750115 0.100000 -12.406208
v 1.900544 0.100000 -10.861127
v 0.338506 0.100000 -9.025974
v -0.920951 0.100000 -6.970153
v -1.850463 0.100000 -4.743659
v -2.424236 0.100000 -2.399654
v -2.627403 0.100000 0.000001
v -3.175941 0.096029 0.000001
v -2.966091 0.096028 -2.485075
v -2.371982 0.096028 -4.913708
v -1.408996 0.096029 -7.220568
v -0.104060 0.096028 -9.350066
v 1.514192 0.096029 -11.250521
v 3.429509 0.096028 -12.851309
v 5.567677 0.096028 -14.141870
v 7.881215 0.096028 -15.089198
v 10.314195 0.096028 -15.666653
vn 1.0000 -0.0000 -0.0000
vn -0.0000 -0.0000 1.0000
vn 1.0000 -0.0000 0.0006
vn 0.9995 -0.0314 -0.0002
vn 0.9998 0.0202 0.0036
vn 0.9998 0.0202 -0.0014
vn 0.9987 -0.0508 0.0003
vn -0.0000 1.0000 -0.0000
vn -0.0781 -0.0000 -0.9969
vn -0.0064 0.9967 -0.0812
vn -0.0018 0.9997 -0.0226
vn -0.0000 -1.0000 -0.0000
vn 0.0831 -0.0000 0.9965
vn 0.0068 0.9967 0.0812
vn 0.0019 0.9997 0.0225
vn 0.0226 0.9997 0.0020
vn 0.0220 0.9997 0.0054
vn 0.0209 0.9997 0.0087
vn 0.0193 0.9997 0.0118
vn 0.0173 0.9997 0.0146
vn 0.0145 0.9997 0.0174
vn 0.0117 0.9997 0.0194
vn 0.0086 0.9997 0.0209
vn 0.0053 0.9997 0.0220
vn 0.0813 0.9967 0.0073
vn 0.0792 0.9967 0.0197
vn 0.0752 0.9967 0.0315
vn 0.0696 0.9967 0.0423
vn 0.0623 0.9967 0.0525
vn 0.0520 0.9967 0.0629
vn 0.0420 0.9967 0.0699
vn 0.0310 0.9967 0.0754
vn 0.0193 0.9967 0.0792
vn 0.9959 -0.0000 0.0905
vn 0.9703 -0.0000 0.2420
vn 0.9225 -0.0000 0.3860
vn 0.8545 -0.0000 0.5195
vn 0.7650 -0.0000 0.6440
vn 0.6358 -0.0000 0.7718
vn 0.5148 -0.0000 0.8573
vn 0.3809 -0.0000 0.9246
vn 0.2364 -0.0000 0.9717
vn 0.0006 1.0000 0.0072
vn 0.0017 1.0000 0.0071
vn 0.0028 1.0000 0.0067
vn 0.0037 1.0000 0.0062
vn 0.0046 1.0000 0.0056
vn 0.0055 1.0000 0.0047
vn 0.0062 1.0000 0.0038
vn 0.0067 1.0000 0.0028
vn 0.0070 1.0000 0.0017
vn 0.0072 1.0000 0.0006
vn -0.0226 0.9997 -0.0019
vn -0.0220 0.9997 -0.0054
vn -0.0209 0.9997 -0.0087
vn -0.0193 0.9997 -0.0118
vn -0.0172 0.9997 -0.0147
vn -0.0145 0.9997 -0.0174
vn -0.0117 0.9997 -0.0194
vn -0.0086 0.9997 -0.0209
vn -0.0052 0.9997 -0.0220
vn -0.0813 0.9967 -0.0068
vn -0.0792 0.9967 -0.0193
vn -0.0752 0.9967 -0.0314
vn -0.0695 0.9967 -0.0426
vn -0.0620 0.9967 -0.0528
vn -0.0523 0.9967 -0.0625
vn -0.0421 0.9967 -0.0698
vn -0.0309 0.9967 -0.0754
vn -0.0188 0.9967 -0.0793
vn -0.9965 -0.0000 -0.0835
vn -0.9715 -0.0000 -0.2372
vn -0.9229 -0.0000 -0.3851
vn -0.8525 -0.0000 -0.5228
vn -0.7610 -0.0000 -0.6487
vn -0.6418 -0.0000 -0.7669
vn -0.5169 -0.0000 -0.8560
vn -0.3787 -0.0000 -0.9255
vn -0.2304 -0.0000 -0.9731
vn -0.0006 1.0000 -0.0072
vn -0.0017 1.0000 -0.0071
vn -0.0028 1.0000 -0.0067
vn -0.0038 1.0000 -0.0062
vn -0.0047 1.0000 -0.0056
vn -0.0055 1.0000 -0.0047
vn -0.0062 1.0000 -0.0038
vn -0.0067 1.0000 -0.0028
vn -0.0071 1.0000 -0.0017
vn -0.0072 1.0000 -0.0006
vn 0.9998 0.0125 -0.0139
vn 0.9995 -0.0300 -0.0000
vn 0.9999 0.0125 -0.0000
vn 0.9988 -0.0485 0.0011
vn 0.9988 -0.0486 -0.0000
vn -0.0064 0.9967 -0.0813
vn 0.0067 0.9967 0.0813
vn 0.0018 0.9997 0.0226
vn 0.0225 0.9997 0.0020
vn 0.0220 0.9997 0.0055
vn 0.0144 0.9997 0.0174
vn 0.0811 0.9967 0.0074
vn 0.0791 0.9967 0.0197
vn 0.0697 0.9967 0.0424
vn 0.0624 0.9967 0.0526
vn 0.0518 0.9967 0.0629
vn 0.0192 0.9967 0.0793
vn 0.0071 1.0000 0.0017
vn -0.0225 0.9997 -0.0019
vn -0.0086 0.9997 -0.0210
vn -0.0812 0.9967 -0.0068
vn -0.0792 0.9967 -0.0194
vn -0.0621 0.9967 -0.0529
vn -0.0309 0.9967 -0.0755
vn -0.0188 0.9967 -0.0794
vt 0.463590 0.907364
vt 0.475034 0.921587
vt 0.528634 0.920237
vt 0.528599 0.923637
vt 0.463729 0.926464
vt 0.463729 0.937487
vt 0.978125 0.901042
vt 0.942821 0.651042
vt 0.928125 0.682091
vt 0.528634 0.907364
vt 0.593678 0.914321
vt 0.593678 0.907364
vt 0.593468 0.930002
vt 0.528599 0.937487
vt 0.593468 0.937487
vt 0.942821 0.739583
vt 0.978125 0.489583
vt 0.928125 0.489583
vt 0.929118 0.651042
vt 0.456992 0.921875
vt 0.463590 0.917610
vt 0.475143 0.922185
vt 0.978125 0.651042
vt 0.978125 0.739583
vt -0.209243 -2.110984
vt 0.346025 -1.676993
vt -0.209243 -1.676994
vt 0.461259 -0.294860
vt 0.468750 -0.209999
vt 0.461259 -0.209999
vt -1.967207 1.103066
vt -1.611322 1.165688
vt -1.654585 1.013939
vt -2.001915 0.981321
vt -1.689294 0.892195
vt 0.833333 0.479167
vt 0.583333 0.518754
vt 0.583333 0.479167
vt 0.916667 0.479167
vt 0.833333 0.518754
vt 1.000000 0.479167
vt 0.916667 0.518754
vt 0.346025 -2.110984
vt 0.346025 -1.676993
vt 0.468750 -0.294860
vt -1.923944 1.254815
vt -1.654585 1.013939
vt -1.611322 1.165688
vt -1.967206 1.103066
vt 0.833333 0.518754
vt 1.000000 0.518754
vt 0.916667 0.145833
vt 1.000000 0.104167
vt 0.916667 0.104167
vt 0.916667 0.187500
vt 1.000000 0.145833
vt 0.916667 0.229167
vt 1.000000 0.187500
vt 1.000000 0.270833
vt 1.000000 0.229167
vt 0.916667 0.270833
vt 1.000000 0.312500
vt 0.916667 0.354167
vt 0.916667 0.312500
vt 0.916667 0.395833
vt 1.000000 0.354167
vt 1.000000 0.437500
vt 1.000000 0.395833
vt 0.916667 0.437500
vt 0.833333 0.145833
vt 0.833333 0.104167
vt 0.833333 0.187500
vt 0.833333 0.229167
vt 0.833333 0.270833
vt 0.833333 0.354167
vt 0.833333 0.312500
vt 0.833333 0.395833
vt 0.833333 0.437500
vt 0.583333 0.145833
vt 0.583333 0.104167
vt 0.583333 0.187500
vt 0.583333 0.229167
vt 0.583333 0.270833
vt 0.583333 0.354167
vt 0.583333 0.312500
vt 0.583333 0.395833
vt 0.583333 0.437500
vt 1.306782 0.169668
vt 0.943033 0.141731
vt 1.272074 0.047923
vt 0.977741 0.263476
vt 0.613992 0.235539
vt 0.648701 0.357284
vt 0.284951 0.329347
vt -0.009381 0.544900
vt 0.319660 0.451092
vt -0.338422 0.638708
vt -0.044090 0.423155
vt -0.702171 0.610771
vt -0.373131 0.516963
vt -0.667463 0.732515
vt -1.031212 0.704579
vt -1.325545 0.920131
vt -0.996504 0.826323
vt -1.360253 0.798387
vt 1.350045 0.321416
vt 1.021004 0.415224
vt 0.691964 0.509032
vt 0.033882 0.696648
vt 0.362923 0.602840
vt -0.295159 0.790456
vt -0.624200 0.884264
vt -1.282281 1.071880
vt -0.953241 0.978072
vt 0.468750 0.504545
vt 0.461259 0.593863
vt 0.468750 0.593863
vt 0.468750 0.415227
vt 0.461259 0.504545
vt 0.468750 0.325909
vt 0.461259 0.415227
vt 0.468750 0.236591
vt 0.461259 0.325909
vt 0.468750 0.147273
vt 0.461259 0.236591
vt 0.461259 0.057955
vt 0.461259 0.147273
vt 0.468750 -0.031363
vt 0.468750 0.057955
vt 0.468750 -0.120681
vt 0.461259 -0.031363
vt 0.461259 -0.120681
vt 0.137032 -0.293008
vt 0.170806 -0.398756
vt 0.137032 -0.400306
vt 0.137032 -0.180075
vt 0.170806 -0.291458
vt 0.137032 -0.067142
vt 0.170806 -0.178525
vt 0.170806 0.047342
vt 0.170806 -0.065591
vt 0.137032 0.045792
vt 0.170806 0.160275
vt 0.137032 0.271658
vt 0.137032 0.158725
vt 0.137032 0.384592
vt 0.170806 0.273209
vt 0.170806 0.499075
vt 0.170806 0.386142
vt 0.137032 0.497525
vt 0.170806 0.612009
vt 0.137032 0.610458
vt 0.170806 0.724942
vt 0.346025 2.434070
vt -0.209243 1.977285
vt -0.209243 2.434070
vt 0.346025 1.977285
vt -0.209243 1.520500
vt 0.346025 1.520500
vt -0.209243 1.063715
vt 0.346025 0.606931
vt 0.346025 1.063716
vt 0.346025 0.150146
vt -0.209243 0.606930
vt -0.209243 -0.306639
vt -0.209243 0.150146
vt 0.346025 -0.306639
vt -0.209243 -0.763424
vt 0.346025 -1.220209
vt 0.346025 -0.763424
vt -0.209243 -1.220209
vt 1.000000 0.145833
vt 0.916667 0.104167
vt 0.916667 0.145833
vt 0.916667 0.187500
vt 0.916667 0.270833
vt 0.916667 0.229167
vt 0.916667 0.312500
vt 0.916667 0.354167
vt 0.916667 0.395833
vt 0.833333 0.104167
vt 0.833333 0.145833
vt 0.833333 0.312500
vt 0.977741 0.263476
vt 0.319660 0.451092
vt -0.338422 0.638708
vt -1.325545 0.920131
vt 1.021004 0.415224
vt 0.691964 0.509032
vt 0.362923 0.602840
vt -0.624200 0.884264
vt -0.295159 0.790456
vt 0.137032 -0.400306
vt 0.170806 -0.398756
vt 0.137032 -0.293008
vt 0.137032 0.158725
vt 0.137032 0.384592
vt 0.137032 0.723392
vt 0.346025 1.063715
vt 0.346025 0.150146
vt 0.928125 0.901042
vt 0.928125 0.708534
vt 0.468750 -0.294860
vt -1.923944 1.254815
vt 0.916667 0.518754
vt 1.000000 0.518754
vt 0.461259 -0.294860
vt -1.967207 1.103066
vt -2.001916 0.981321
vt 0.583333 0.518754
vt 0.833333 0.518754
s 0
f 3/1/1 12/2/1 6/3/1
f 5/4/2 10/5/2 73/6/2
f 44/7/2 10/8/2 9/9/2
f 7/10/1 8/11/1 4/12/1
f 93/13/2 45/14/2 83/15/2
f 13/16/3 2/17/3 1/18/3
f 103/19/2 9/9/2 10/8/2
f 11/20/4 12/2/4 13/21/4
f 16/3/5 24/21/5 14/1/5
f 141/6/2 171/22/2 122/4/2
f 170/9/2 141/23/2 44/7/2
f 20/11/1 17/10/1 15/12/1
f 18/14/2 19/13/2 151/15/2
f 1/18/6 14/24/6 24/16/6
f 171/19/2 21/8/2 170/9/2
f 22/20/7 24/21/7 23/2/7
f 1/25/8 161/26/8 25/27/8
f 20/28/9 142/29/9 152/30/9
f 16/31/10 152/32/10 131/33/10
f 23/34/11 131/33/11 180/35/11
f 132/36/12 2/37/12 35/38/12
f 121/39/12 14/40/12 132/36/12
f 142/41/12 17/42/12 121/39/12
f 11/43/8 25/27/8 94/44/8
f 4/45/13 84/30/13 74/29/13
f 8/46/14 63/47/14 84/48/14
f 6/49/15 112/35/15 63/47/15
f 35/38/12 3/50/12 64/36/12
f 64/36/12 7/42/12 54/39/12
f 54/39/12 4/51/12 74/41/12
f 46/52/12 83/53/12 45/54/12
f 47/55/12 82/56/12 46/52/12
f 48/57/12 81/58/12 47/55/12
f 48/57/12 79/59/12 80/60/12
f 49/61/12 78/62/12 79/59/12
f 51/63/12 78/62/12 50/64/12
f 52/65/12 77/66/12 51/63/12
f 52/65/12 75/67/12 76/68/12
f 53/69/12 74/41/12 75/67/12
f 72/70/12 45/54/12 73/71/12
f 71/72/12 46/52/12 72/70/12
f 70/73/12 47/55/12 71/72/12
f 70/73/12 49/61/12 48/57/12
f 69/74/12 50/64/12 49/61/12
f 67/75/12 50/64/12 68/76/12
f 66/77/12 51/63/12 67/75/12
f 66/77/12 53/69/12 52/65/12
f 65/78/12 54/39/12 53/69/12
f 43/79/12 73/71/12 44/80/12
f 42/81/12 72/70/12 43/79/12
f 41/82/12 71/72/12 42/81/12
f 41/82/12 69/74/12 70/73/12
f 40/83/12 68/76/12 69/74/12
f 38/84/12 68/76/12 39/85/12
f 37/86/12 67/75/12 38/84/12
f 37/86/12 65/78/12 66/77/12
f 36/87/12 64/36/12 65/78/12
f 5/88/16 104/89/16 103/90/16
f 55/91/17 105/92/17 104/89/17
f 56/93/18 106/94/18 105/92/18
f 58/95/19 106/94/19 57/96/19
f 59/97/20 107/98/20 58/95/20
f 59/97/21 109/99/21 108/100/21
f 60/101/22 110/102/22 109/99/22
f 62/103/23 110/102/23 61/104/23
f 63/47/24 111/105/24 62/103/24
f 93/106/25 55/91/25 5/88/25
f 92/107/26 56/93/26 55/91/26
f 91/108/27 57/96/27 56/93/27
f 89/109/28 57/96/28 90/110/28
f 88/111/29 58/95/29 89/109/29
f 88/111/30 60/101/30 59/97/30
f 87/112/31 61/104/31 60/101/31
f 85/113/32 61/104/32 86/114/32
f 84/48/33 62/103/33 85/113/33
f 82/115/34 93/116/34 83/117/34
f 81/118/35 92/119/35 82/115/35
f 80/120/36 91/121/36 81/118/36
f 79/122/37 90/123/37 80/120/37
f 78/124/38 89/125/38 79/122/38
f 78/124/39 87/126/39 88/127/39
f 76/128/40 87/126/40 77/129/40
f 75/130/41 86/131/41 76/128/41
f 74/29/42 85/132/42 75/130/42
f 94/133/43 12/134/43 11/135/43
f 95/136/44 112/137/44 94/133/44
f 96/138/45 111/139/45 95/136/45
f 96/138/46 109/140/46 110/141/46
f 97/142/47 108/143/47 109/140/47
f 99/144/48 108/143/48 98/145/48
f 100/146/49 107/147/49 99/144/49
f 100/146/50 105/148/50 106/149/50
f 101/150/51 104/151/51 105/148/51
f 102/152/52 103/153/52 104/151/52
f 9/154/8 33/155/8 34/156/8
f 102/157/8 32/158/8 33/155/8
f 101/159/8 31/160/8 32/158/8
f 99/161/8 31/160/8 100/162/8
f 98/163/8 30/164/8 99/161/8
f 98/163/8 28/165/8 29/166/8
f 97/167/8 27/168/8 28/165/8
f 95/169/8 27/168/8 96/170/8
f 94/44/8 26/171/8 95/169/8
f 150/172/12 18/173/12 151/53/12
f 149/58/12 113/174/12 150/172/12
f 148/60/12 114/175/12 149/58/12
f 148/60/12 116/176/12 115/177/12
f 147/59/12 117/178/12 116/176/12
f 145/66/12 117/178/12 146/62/12
f 144/68/12 118/179/12 145/66/12
f 144/68/12 120/69/12 119/180/12
f 143/67/12 121/39/12 120/69/12
f 113/174/12 141/181/12 18/173/12
f 114/175/12 140/182/12 113/174/12
f 115/177/12 139/72/12 114/175/12
f 115/177/12 137/74/12 138/73/12
f 116/176/12 136/183/12 137/74/12
f 118/179/12 136/183/12 117/178/12
f 119/180/12 135/75/12 118/179/12
f 119/180/12 133/78/12 134/77/12
f 120/69/12 132/36/12 133/78/12
f 140/182/12 44/80/12 141/181/12
f 139/72/12 43/79/12 140/182/12
f 138/73/12 42/81/12 139/72/12
f 138/73/12 40/83/12 41/82/12
f 137/74/12 39/85/12 40/83/12
f 135/75/12 39/85/12 136/183/12
f 134/77/12 38/84/12 135/75/12
f 134/77/12 36/87/12 37/86/12
f 133/78/12 35/38/12 36/87/12
f 171/90/53 123/184/53 122/88/53
f 172/89/54 124/93/54 123/184/54
f 173/92/55 125/185/55 124/93/55
f 175/98/56 125/185/56 174/94/56
f 176/100/57 126/95/57 175/98/57
f 176/100/58 128/101/58 127/186/58
f 177/99/59 129/104/59 128/101/59
f 179/105/60 129/104/60 178/102/60
f 180/35/61 130/187/61 179/105/61
f 122/88/62 160/188/62 19/106/62
f 123/184/63 159/189/63 160/188/63
f 124/93/64 158/190/64 159/189/64
f 126/95/65 158/190/65 125/185/65
f 127/186/66 157/109/66 126/95/66
f 127/186/67 155/191/67 156/192/67
f 128/101/68 154/114/68 155/191/68
f 130/187/69 154/114/69 129/104/69
f 131/33/70 153/113/70 130/187/70
f 160/119/71 151/117/71 19/116/71
f 159/121/72 150/115/72 160/119/72
f 158/123/73 149/118/73 159/121/73
f 157/125/74 148/120/74 158/123/74
f 156/127/75 147/122/75 157/125/75
f 155/126/76 146/124/76 156/127/76
f 154/131/77 145/129/77 155/126/77
f 153/132/78 144/128/78 154/131/78
f 152/30/79 143/130/79 153/132/79
f 180/137/80 22/193/80 23/194/80
f 179/139/81 161/195/81 180/137/81
f 178/141/82 162/136/82 179/139/82
f 178/141/83 164/142/83 163/138/83
f 177/140/84 165/196/84 164/142/84
f 175/147/85 165/196/85 176/143/85
f 174/149/86 166/144/86 175/147/86
f 174/149/87 168/150/87 167/197/87
f 173/148/88 169/152/88 168/150/88
f 172/151/89 170/198/89 169/152/89
f 34/156/8 169/157/8 170/154/8
f 33/155/8 168/159/8 169/157/8
f 32/158/8 167/199/8 168/159/8
f 30/164/8 167/199/8 31/160/8
f 29/166/8 166/161/8 30/164/8
f 29/166/8 164/167/8 165/200/8
f 28/165/8 163/170/8 164/167/8
f 26/171/8 163/170/8 27/168/8
f 25/27/8 162/169/8 26/171/8
f 6/3/1 7/10/1 3/1/1
f 3/1/90 13/21/90 12/2/90
f 73/6/2 45/14/2 5/4/2
f 5/4/2 103/22/2 10/5/2
f 9/9/2 34/201/2 44/7/2
f 44/7/2 73/23/2 10/8/2
f 7/10/1 6/3/1 8/11/1
f 93/13/2 5/4/2 45/14/2
f 1/18/91 11/202/91 13/16/91
f 13/16/92 3/24/92 2/17/92
f 14/1/1 17/10/1 16/3/1
f 16/3/93 23/2/93 24/21/93
f 122/4/2 18/14/2 141/6/2
f 141/6/2 21/5/2 171/22/2
f 44/7/2 34/201/2 170/9/2
f 170/9/2 21/8/2 141/23/2
f 20/11/1 16/3/1 17/10/1
f 18/14/2 122/4/2 19/13/2
f 24/16/94 22/202/94 1/18/94
f 1/18/1 2/17/1 14/24/1
f 1/25/8 22/43/8 161/26/8
f 20/28/9 15/203/9 142/29/9
f 16/31/95 20/204/95 152/32/95
f 23/34/11 16/31/11 131/33/11
f 132/36/12 14/40/12 2/37/12
f 121/39/12 17/205/12 14/40/12
f 142/41/12 15/206/12 17/42/12
f 11/43/8 1/25/8 25/27/8
f 4/45/13 8/207/13 84/30/13
f 8/46/96 6/208/96 63/47/96
f 6/49/97 12/209/97 112/35/97
f 35/38/12 2/210/12 3/50/12
f 64/36/12 3/211/12 7/42/12
f 54/39/12 7/205/12 4/51/12
f 46/52/12 82/56/12 83/53/12
f 47/55/12 81/58/12 82/56/12
f 48/57/12 80/60/12 81/58/12
f 48/57/12 49/61/12 79/59/12
f 49/61/12 50/64/12 78/62/12
f 51/63/12 77/66/12 78/62/12
f 52/65/12 76/68/12 77/66/12
f 52/65/12 53/69/12 75/67/12
f 53/69/12 54/39/12 74/41/12
f 72/70/12 46/52/12 45/54/12
f 71/72/12 47/55/12 46/52/12
f 70/73/12 48/57/12 47/55/12
f 70/73/12 69/74/12 49/61/12
f 69/74/12 68/76/12 50/64/12
f 67/75/12 51/63/12 50/64/12
f 66/77/12 52/65/12 51/63/12
f 66/77/12 65/78/12 53/69/12
f 65/78/12 64/36/12 54/39/12
f 43/79/12 72/70/12 73/71/12
f 42/81/12 71/72/12 72/70/12
f 41/82/12 70/73/12 71/72/12
f 41/82/12 40/83/12 69/74/12
f 40/83/12 39/85/12 68/76/12
f 38/84/12 67/75/12 68/76/12
f 37/86/12 66/77/12 67/75/12
f 37/86/12 36/87/12 65/78/12
f 36/87/12 35/38/12 64/36/12
f 5/88/98 55/91/98 104/89/98
f 55/91/99 56/93/99 105/92/99
f 56/93/18 57/96/18 106/94/18
f 58/95/19 107/98/19 106/94/19
f 59/97/20 108/100/20 107/98/20
f 59/97/100 60/101/100 109/99/100
f 60/101/22 61/104/22 110/102/22
f 62/103/23 111/105/23 110/102/23
f 63/47/24 112/35/24 111/105/24
f 93/106/101 92/107/101 55/91/101
f 92/107/102 91/108/102 56/93/102
f 91/108/27 90/110/27 57/96/27
f 89/109/103 58/95/103 57/96/103
f 88/111/104 59/97/104 58/95/104
f 88/111/105 87/112/105 60/101/105
f 87/112/31 86/114/31 61/104/31
f 85/113/32 62/103/32 61/104/32
f 84/48/106 63/47/106 62/103/106
f 82/115/34 92/119/34 93/116/34
f 81/118/35 91/121/35 92/119/35
f 80/120/36 90/123/36 91/121/36
f 79/122/37 89/125/37 90/123/37
f 78/124/38 88/127/38 89/125/38
f 78/124/39 77/129/39 87/126/39
f 76/128/40 86/131/40 87/126/40
f 75/130/41 85/132/41 86/131/41
f 74/29/42 84/30/42 85/132/42
f 94/133/43 112/137/43 12/134/43
f 95/136/44 111/139/44 112/137/44
f 96/138/45 110/141/45 111/139/45
f 96/138/46 97/142/46 109/140/46
f 97/142/47 98/145/47 108/143/47
f 99/144/48 107/147/48 108/143/48
f 100/146/49 106/149/49 107/147/49
f 100/146/50 101/150/50 105/148/50
f 101/150/107 102/152/107 104/151/107
f 102/152/52 9/198/52 103/153/52
f 9/154/8 102/157/8 33/155/8
f 102/157/8 101/159/8 32/158/8
f 101/159/8 100/162/8 31/160/8
f 99/161/8 30/164/8 31/160/8
f 98/163/8 29/166/8 30/164/8
f 98/163/8 97/167/8 28/165/8
f 97/167/8 96/170/8 27/168/8
f 95/169/8 26/171/8 27/168/8
f 94/44/8 25/27/8 26/171/8
f 150/172/12 113/174/12 18/173/12
f 149/58/12 114/175/12 113/174/12
f 148/60/12 115/177/12 114/175/12
f 148/60/12 147/59/12 116/176/12
f 147/59/12 146/62/12 117/178/12
f 145/66/12 118/179/12 117/178/12
f 144/68/12 119/180/12 118/179/12
f 144/68/12 143/67/12 120/69/12
f 143/67/12 142/41/12 121/39/12
f 113/174/12 140/182/12 141/181/12
f 114/175/12 139/72/12 140/182/12
f 115/177/12 138/73/12 139/72/12
f 115/177/12 116/176/12 137/74/12
f 116/176/12 117/178/12 136/183/12
f 118/179/12 135/75/12 136/183/12
f 119/180/12 134/77/12 135/75/12
f 119/180/12 120/69/12 133/78/12
f 120/69/12 121/39/12 132/36/12
f 140/182/12 43/79/12 44/80/12
f 139/72/12 42/81/12 43/79/12
f 138/73/12 41/82/12 42/81/12
f 138/73/12 137/74/12 40/83/12
f 137/74/12 136/183/12 39/85/12
f 135/75/12 38/84/12 39/85/12
f 134/77/12 37/86/12 38/84/12
f 134/77/12 133/78/12 36/87/12
f 133/78/12 132/36/12 35/38/12
f 171/90/108 172/89/108 123/184/108
f 172/89/54 173/92/54 124/93/54
f 173/92/55 174/94/55 125/185/55
f 175/98/56 126/95/56 125/185/56
f 176/100/57 127/186/57 126/95/57
f 176/100/58 177/99/58 128/101/58
f 177/99/59 178/102/59 129/104/59
f 179/105/109 130/187/109 129/104/109
f 180/35/61 131/33/61 130/187/61
f 122/88/110 123/184/110 160/188/110
f 123/184/111 124/93/111 159/189/111
f 124/93/64 125/185/64 158/190/64
f 126/95/65 157/109/65 158/190/65
f 127/186/112 156/192/112 157/109/112
f 127/186/67 128/101/67 155/191/67
f 128/101/68 129/104/68 154/114/68
f 130/187/113 153/113/113 154/114/113
f 131/33/114 152/32/114 153/113/114
f 160/119/71 150/115/71 151/117/71
f 159/121/72 149/118/72 150/115/72
f 158/123/73 148/120/73 149/118/73
f 157/125/74 147/122/74 148/120/74
f 156/127/75 146/124/75 147/122/75
f 155/126/76 145/129/76 146/124/76
f 154/131/77 144/128/77 145/129/77
f 153/132/78 143/130/78 144/128/78
f 152/30/79 142/29/79 143/130/79
f 180/137/80 161/195/80 22/193/80
f 179/139/81 162/136/81 161/195/81
f 178/141/82 163/138/82 162/136/82
f 178/141/83 177/140/83 164/142/83
f 177/140/84 176/143/84 165/196/84
f 175/147/85 166/144/85 165/196/85
f 174/149/86 167/197/86 166/144/86
f 174/149/87 173/148/87 168/150/87
f 173/148/88 172/151/88 169/152/88
f 172/151/89 171/153/89 170/198/89
f 34/156/8 33/155/8 169/157/8
f 33/155/8 32/158/8 168/159/8
f 32/158/8 31/160/8 167/199/8
f 30/164/8 166/161/8 167/199/8
f 29/166/8 165/200/8 166/161/8
f 29/166/8 28/165/8 164/167/8
f 28/165/8 27/168/8 163/170/8
f 26/171/8 162/169/8 163/170/8
f 25/27/8 161/26/8 162/169/8
