# Blender 4.3.0
# www.blender.org
o 90deg_gravel
v -12.676778 0.098827 103.000137
v -12.676778 -0.101173 103.000137
v -9.676777 -0.101173 103.000099
v -7.676776 -0.101173 103.000076
v -0.000001 0.076255 111.676781
v -8.676775 0.076255 103.000092
v -8.676775 -0.101173 103.000092
v -7.676776 -0.005287 103.000076
v 0.000000 0.098827 113.049377
v 0.000000 0.040042 112.676788
v -10.049368 0.098827 103.000099
v -9.500824 0.094855 103.000099
v -9.676621 0.040042 103.001862
v -15.676775 -0.101173 103.000168
v -17.676779 -0.101173 103.000191
v -16.676777 0.076255 103.000183
v -16.676777 -0.101173 103.000183
v 0.000002 -0.101173 119.676788
v 0.000002 -0.005287 120.676781
v -17.676779 -0.005287 103.000191
v 0.000001 0.040042 118.676788
v -15.304184 0.098827 103.000153
v -15.852728 0.094855 103.000168
v -15.676620 0.040042 103.003021
v -12.525633 0.098827 104.892860
v -12.061993 0.098827 106.835014
v -11.304798 0.098827 108.681633
v -10.274278 0.098827 110.391052
v -8.996008 0.098827 111.925667
v -7.473639 0.098827 113.218483
v -5.770716 0.098827 114.260086
v -3.929159 0.098827 115.029282
v -1.990507 0.098827 115.505661
v 0.000001 0.098827 115.676788
v -12.525633 -0.101173 104.892860
v -12.061993 -0.101173 106.835014
v -11.304798 -0.101173 108.681633
v -10.274278 -0.101173 110.391052
v -8.996008 -0.101173 111.925667
v -7.473639 -0.101173 113.218483
v -5.770716 -0.101173 114.260086
v -3.929159 -0.101173 115.029282
v -1.990507 -0.101173 115.505661
v 0.000001 -0.101173 115.676788
v -0.000001 -0.101173 111.676781
v -1.367617 -0.101173 111.554466
v -2.689153 -0.101173 111.226334
v -3.944679 -0.101173 110.701202
v -5.110346 -0.101173 109.991287
v -6.156528 -0.101173 109.108337
v -7.028597 -0.101173 108.053192
v -7.731605 -0.101173 106.883774
v -8.249332 -0.101173 105.625198
v -8.569624 -0.101173 104.301239
v -1.367617 0.076255 111.554466
v -2.689153 0.076255 111.226334
v -3.944679 0.076255 110.701202
v -5.110346 0.076255 109.991287
v -6.156528 0.076255 109.108337
v -7.028597 0.076255 108.053192
v -7.731605 0.076255 106.883774
v -8.249332 0.076255 105.625198
v -8.569624 0.076255 104.301239
v -9.558627 -0.101173 104.449142
v -9.202497 -0.101173 105.927658
v -8.624902 -0.101173 107.333244
v -7.840017 -0.101173 108.637650
v -6.866397 -0.101173 109.812675
v -5.701168 -0.101173 110.798080
v -4.401188 -0.101173 111.590927
v -2.999155 -0.101173 112.177071
v -1.523339 -0.101173 112.542267
v 0.000000 -0.101173 112.676788
v -7.580623 -0.101173 104.153336
v -7.296168 -0.101173 105.322754
v -6.838305 -0.101173 106.434311
v -6.217178 -0.101173 107.468735
v -5.446657 -0.101173 108.404007
v -4.519522 -0.101173 109.184479
v -3.488169 -0.101173 109.811493
v -2.379153 -0.101173 110.275604
v -1.211894 -0.101173 110.566666
v -0.000001 -0.101173 110.676788
v -7.580623 -0.005287 104.153336
v -7.296168 -0.005287 105.322754
v -6.838305 -0.005287 106.434311
v -6.217178 -0.005287 107.468735
v -5.446657 -0.005287 108.404007
v -4.519522 -0.005287 109.184479
v -3.488169 -0.005287 109.811493
v -2.379153 -0.005287 110.275604
v -1.211894 -0.005287 110.566666
v -0.000001 -0.005287 110.676788
v -9.927122 0.098827 104.504242
v -9.557640 0.098827 106.040344
v -8.957739 0.098827 107.500702
v -8.142347 0.098827 108.855423
v -7.130890 0.098827 110.075104
v -5.921306 0.098827 111.098694
v -4.571280 0.098827 111.922424
v -3.114659 0.098827 112.531311
v -1.581360 0.098827 112.910316
v 0.000000 0.094855 112.500839
v -1.495939 0.094855 112.368462
v -2.944609 0.094855 112.009796
v -4.320865 0.094856 111.434387
v -5.597213 0.094855 110.656113
v -6.741493 0.094855 109.688751
v -7.697247 0.094855 108.534821
v -8.467726 0.094855 107.254166
v -9.034786 0.094855 105.874443
v -9.384611 0.094855 104.423111
v -2.613397 -0.101173 119.456879
v -5.169163 -0.101173 118.832222
v -7.596753 -0.101173 117.818962
v -9.836931 -0.101173 116.445694
v -11.835489 -0.101173 114.743011
v -13.519958 -0.101173 112.728905
v -14.877992 -0.101173 110.479492
v -15.874652 -0.101173 108.044815
v -16.481638 -0.101173 105.484474
v 0.000002 0.076255 119.676788
v -2.613397 0.076255 119.456879
v -5.169163 0.076255 118.832222
v -7.596753 0.076255 117.818962
v -9.836933 0.076255 116.445694
v -11.835489 0.076255 114.743011
v -13.519958 0.076255 112.728905
v -14.877992 0.076255 110.479492
v -15.874652 0.076255 108.044815
v -16.481638 0.076255 105.484474
v -15.492637 -0.101173 105.336571
v -14.921488 -0.101173 107.742355
v -13.984694 -0.101173 110.030029
v -12.708538 -0.101173 112.144432
v -11.125619 -0.101173 114.038666
v -9.246109 -0.101173 115.638885
v -7.140244 -0.101173 116.929245
v -4.859162 -0.101173 117.881493
v -2.457675 -0.101173 118.469078
v 0.000001 -0.101173 118.676788
v -17.470642 -0.101173 105.632378
v -16.827820 -0.101173 108.347260
v -15.771292 -0.101173 110.928955
v -14.331379 -0.101173 113.313370
v -12.545360 -0.101173 115.447334
v -10.427755 -0.101173 117.252487
v -8.053264 -0.101173 118.708679
v -5.479164 -0.101173 119.782959
v -2.769120 -0.101173 120.444672
v 0.000002 -0.101173 120.676781
v -17.470642 -0.005287 105.632378
v -16.827820 -0.005287 108.347260
v -15.771292 -0.005287 110.928955
v -14.331379 -0.005287 113.313370
v -12.545360 -0.005287 115.447334
v -10.427755 -0.005287 117.252487
v -8.053264 -0.005286 118.708679
v -5.479164 -0.005287 119.782959
v -2.769120 -0.005287 120.444672
v -15.124143 0.098827 105.281464
v -14.566346 0.098827 107.629669
v -13.651857 0.098827 109.862564
v -12.406208 0.098827 111.926674
v -10.861126 0.098827 113.776245
v -9.025973 0.098827 115.338287
v -6.970152 0.098827 116.597740
v -4.743658 0.098827 117.527252
v -2.399653 0.098827 118.101028
v 0.000001 0.098827 118.304192
v 0.000001 0.094855 118.852730
v -2.485074 0.094855 118.642883
v -4.913707 0.094855 118.048767
v -7.220568 0.094855 117.085785
v -9.350065 0.094855 115.780853
v -11.250520 0.094855 114.162598
v -12.851309 0.094855 112.247284
v -14.141870 0.094855 110.109116
v -15.089198 0.094855 107.795578
v -15.666653 0.094855 105.362595
vn -0.0000 -0.0000 -1.0000
vn 1.0000 -0.0000 -0.0000
vn 0.0006 -0.0000 -1.0000
vn -0.0002 -0.0314 -0.9995
vn 0.0036 0.0202 -0.9998
vn -0.0014 0.0202 -0.9998
vn 0.0003 -0.0508 -0.9987
vn -0.0000 1.0000 -0.0000
vn -0.9969 -0.0000 0.0781
vn -0.0812 0.9967 0.0064
vn -0.0226 0.9997 0.0018
vn -0.0000 -1.0000 -0.0000
vn 0.9965 -0.0000 -0.0831
vn 0.0812 0.9967 -0.0067
vn 0.0225 0.9997 -0.0018
vn 0.0020 0.9997 -0.0226
vn 0.0054 0.9997 -0.0220
vn 0.0087 0.9997 -0.0209
vn 0.0118 0.9997 -0.0193
vn 0.0146 0.9997 -0.0173
vn 0.0174 0.9997 -0.0145
vn 0.0194 0.9997 -0.0117
vn 0.0209 0.9997 -0.0086
vn 0.0220 0.9997 -0.0053
vn 0.0073 0.9967 -0.0813
vn 0.0197 0.9967 -0.0792
vn 0.0315 0.9967 -0.0752
vn 0.0424 0.9967 -0.0696
vn 0.0525 0.9967 -0.0623
vn 0.0629 0.9967 -0.0520
vn 0.0699 0.9967 -0.0420
vn 0.0754 0.9967 -0.0310
vn 0.0792 0.9967 -0.0192
vn 0.0905 -0.0000 -0.9959
vn 0.2420 -0.0000 -0.9703
vn 0.3860 -0.0000 -0.9225
vn 0.5195 -0.0000 -0.8545
vn 0.6440 -0.0000 -0.7650
vn 0.7718 -0.0000 -0.6359
vn 0.8573 -0.0000 -0.5148
vn 0.9246 -0.0000 -0.3809
vn 0.9717 -0.0000 -0.2364
vn 0.0072 1.0000 -0.0006
vn 0.0071 1.0000 -0.0017
vn 0.0067 1.0000 -0.0028
vn 0.0062 1.0000 -0.0037
vn 0.0056 1.0000 -0.0046
vn 0.0047 1.0000 -0.0056
vn 0.0038 1.0000 -0.0062
vn 0.0028 1.0000 -0.0067
vn 0.0017 1.0000 -0.0070
vn 0.0006 1.0000 -0.0072
vn -0.0019 0.9997 0.0226
vn -0.0054 0.9997 0.0220
vn -0.0087 0.9997 0.0209
vn -0.0118 0.9997 0.0193
vn -0.0147 0.9997 0.0172
vn -0.0174 0.9997 0.0145
vn -0.0194 0.9997 0.0117
vn -0.0209 0.9997 0.0086
vn -0.0220 0.9997 0.0052
vn -0.0068 0.9967 0.0813
vn -0.0193 0.9967 0.0792
vn -0.0314 0.9967 0.0752
vn -0.0426 0.9967 0.0695
vn -0.0529 0.9967 0.0620
vn -0.0625 0.9967 0.0523
vn -0.0698 0.9967 0.0422
vn -0.0754 0.9967 0.0309
vn -0.0793 0.9967 0.0188
vn -0.0835 -0.0000 0.9965
vn -0.2372 -0.0000 0.9715
vn -0.3851 -0.0000 0.9229
vn -0.5228 -0.0000 0.8525
vn -0.6487 -0.0000 0.7610
vn -0.7669 -0.0000 0.6418
vn -0.8560 -0.0000 0.5169
vn -0.9255 -0.0000 0.3787
vn -0.9731 -0.0000 0.2304
vn -0.0072 1.0000 0.0006
vn -0.0071 1.0000 0.0017
vn -0.0067 1.0000 0.0028
vn -0.0062 1.0000 0.0038
vn -0.0056 1.0000 0.0047
vn -0.0047 1.0000 0.0055
vn -0.0038 1.0000 0.0062
vn -0.0028 1.0000 0.0067
vn -0.0017 1.0000 0.0071
vn -0.0006 1.0000 0.0072
vn -0.0139 0.0125 -0.9998
vn -0.0000 -0.0300 -0.9995
vn -0.0000 0.0125 -0.9999
vn 0.0011 -0.0485 -0.9988
vn -0.0000 -0.0486 -0.9988
vn -0.0813 0.9967 0.0064
vn 0.0813 0.9967 -0.0068
vn 0.0226 0.9997 -0.0019
vn 0.0020 0.9997 -0.0225
vn 0.0055 0.9997 -0.0220
vn 0.0174 0.9997 -0.0144
vn 0.0074 0.9967 -0.0811
vn 0.0197 0.9967 -0.0791
vn 0.0424 0.9967 -0.0697
vn 0.0525 0.9967 -0.0624
vn 0.0629 0.9967 -0.0518
vn 0.0754 0.9967 -0.0311
vn 0.0793 0.9967 -0.0193
vn 0.7718 -0.0000 -0.6358
vn 0.0047 1.0000 -0.0055
vn 0.0017 1.0000 -0.0071
vn -0.0019 0.9997 0.0225
vn -0.0210 0.9997 0.0086
vn -0.0068 0.9967 0.0812
vn -0.0194 0.9967 0.0792
vn -0.0529 0.9967 0.0621
vn -0.0698 0.9967 0.0421
vn -0.0755 0.9967 0.0309
vn -0.0794 0.9967 0.0188
vt 0.463590 0.907364
vt 0.475034 0.921587
vt 0.528634 0.920237
vt 0.528599 0.923637
vt 0.463729 0.926464
vt 0.463729 0.937487
vt 0.978125 0.901042
vt 0.942821 0.651042
vt 0.928125 0.682091
vt 0.528634 0.907364
vt 0.593678 0.914321
vt 0.593678 0.907364
vt 0.593468 0.930002
vt 0.528599 0.937487
vt 0.593468 0.937487
vt 0.942821 0.739583
vt 0.978125 0.489583
vt 0.928125 0.489583
vt 0.929118 0.651042
vt 0.456992 0.921875
vt 0.463590 0.917610
vt 0.475143 0.922185
vt 0.978125 0.651042
vt 0.978125 0.739583
vt -0.209243 -1.676994
vt 0.346025 -2.110984
vt 0.346025 -1.676993
vt 0.461259 -0.294860
vt 0.468750 -0.209999
vt 0.461259 -0.209999
vt -1.654585 1.013939
vt -1.923944 1.254815
vt -1.611322 1.165688
vt -1.689294 0.892195
vt -1.967207 1.103066
vt 0.833333 0.518754
vt 0.583333 0.479167
vt 0.833333 0.479167
vt 0.916667 0.518754
vt 0.916667 0.479167
vt 1.000000 0.518754
vt 1.000000 0.479167
vt 0.346025 -1.676993
vt -0.209243 -2.110984
vt 0.461259 -0.294860
vt -1.611322 1.165688
vt -1.967207 1.103066
vt -1.654585 1.013939
vt -2.001916 0.981321
vt 0.583333 0.518754
vt 0.833333 0.518754
vt 0.916667 0.145833
vt 1.000000 0.104167
vt 0.916667 0.104167
vt 0.916667 0.187500
vt 1.000000 0.145833
vt 0.916667 0.229167
vt 1.000000 0.187500
vt 0.916667 0.270833
vt 1.000000 0.229167
vt 0.916667 0.312500
vt 1.000000 0.270833
vt 0.916667 0.354167
vt 1.000000 0.312500
vt 0.916667 0.395833
vt 1.000000 0.354167
vt 0.916667 0.437500
vt 1.000000 0.395833
vt 1.000000 0.437500
vt 0.833333 0.145833
vt 0.833333 0.104167
vt 0.833333 0.187500
vt 0.833333 0.229167
vt 0.833333 0.270833
vt 0.833333 0.312500
vt 0.833333 0.354167
vt 0.833333 0.395833
vt 0.833333 0.437500
vt 0.583333 0.145833
vt 0.583333 0.104167
vt 0.583333 0.187500
vt 0.583333 0.229167
vt 0.583333 0.270833
vt 0.583333 0.312500
vt 0.583333 0.354167
vt 0.583333 0.395833
vt 0.583333 0.437500
vt 1.306782 0.169668
vt 0.943033 0.141731
vt 1.272074 0.047923
vt 0.977741 0.263476
vt 0.613992 0.235539
vt 0.648701 0.357284
vt 0.284951 0.329347
vt 0.319660 0.451092
vt -0.044090 0.423155
vt -0.009381 0.544900
vt -0.373131 0.516963
vt -0.338422 0.638708
vt -0.702171 0.610771
vt -0.667463 0.732515
vt -1.031212 0.704579
vt -0.996504 0.826323
vt -1.360253 0.798387
vt -1.325545 0.920131
vt 1.350045 0.321416
vt 1.021004 0.415224
vt 0.691964 0.509032
vt 0.362923 0.602840
vt 0.033882 0.696648
vt -0.295159 0.790456
vt -0.624200 0.884264
vt -0.953241 0.978072
vt -1.282281 1.071880
vt 0.468750 0.593863
vt 0.461259 0.504545
vt 0.461259 0.593863
vt 0.468750 0.415227
vt 0.468750 0.504545
vt 0.468750 0.325909
vt 0.461259 0.415227
vt 0.461259 0.236591
vt 0.461259 0.325909
vt 0.468750 0.147273
vt 0.468750 0.236591
vt 0.468750 0.057955
vt 0.461259 0.147273
vt 0.468750 -0.031363
vt 0.461259 0.057955
vt 0.468750 -0.120681
vt 0.461259 -0.031363
vt 0.461259 -0.120681
vt 0.137032 -0.400306
vt 0.170806 -0.291458
vt 0.170806 -0.398756
vt 0.137032 -0.293008
vt 0.170806 -0.178525
vt 0.137032 -0.180075
vt 0.170806 -0.065591
vt 0.137032 -0.067142
vt 0.170806 0.047342
vt 0.137032 0.045792
vt 0.170806 0.160275
vt 0.137032 0.158725
vt 0.170806 0.273209
vt 0.137032 0.271658
vt 0.170806 0.386142
vt 0.137032 0.384592
vt 0.170806 0.499075
vt 0.137032 0.497525
vt 0.170806 0.612009
vt 0.137032 0.610458
vt 0.170806 0.724942
vt 0.346025 2.434070
vt -0.209243 1.977285
vt -0.209243 2.434070
vt 0.346025 1.977285
vt -0.209243 1.520500
vt 0.346025 1.520500
vt -0.209243 1.063715
vt 0.346025 1.063716
vt -0.209243 0.606930
vt 0.346025 0.606931
vt -0.209243 0.150146
vt 0.346025 0.150146
vt -0.209243 -0.306639
vt 0.346025 -0.306639
vt -0.209243 -0.763424
vt 0.346025 -0.763424
vt -0.209243 -1.220209
vt 0.346025 -1.220209
vt 1.000000 0.145833
vt 0.916667 0.104167
vt 0.916667 0.145833
vt 0.916667 0.187500
vt 0.916667 0.229167
vt 0.916667 0.270833
vt 0.916667 0.312500
vt 0.916667 0.354167
vt 0.916667 0.395833
vt 0.833333 0.104167
vt 0.833333 0.145833
vt 0.833333 0.312500
vt 0.977741 0.263476
vt 0.319660 0.451092
vt -0.338422 0.638708
vt -1.325545 0.920131
vt 1.021004 0.415224
vt 0.691964 0.509032
vt 0.362923 0.602840
vt -0.295159 0.790456
vt -0.624200 0.884264
vt 0.170806 -0.398756
vt 0.137032 -0.293008
vt 0.137032 -0.400306
vt 0.137032 0.158725
vt 0.137032 0.384592
vt 0.137032 0.723392
vt 0.346025 1.063715
vt 0.346025 0.150146
vt 0.928125 0.901042
vt 0.928125 0.708534
vt 0.468750 -0.294860
vt -2.001915 0.981321
vt 0.583333 0.518754
vt 0.916667 0.518754
vt 0.468750 -0.294860
vt -1.923944 1.254815
vt -1.967206 1.103066
vt 0.833333 0.518754
vt 1.000000 0.518754
s 0
f 3/1/1 12/2/1 6/3/1
f 5/4/2 10/5/2 73/6/2
f 44/7/2 10/8/2 9/9/2
f 7/10/1 8/11/1 4/12/1
f 93/13/2 45/14/2 83/15/2
f 13/16/3 2/17/3 1/18/3
f 103/19/2 9/9/2 10/8/2
f 11/20/4 12/2/4 13/21/4
f 16/3/5 24/21/5 14/1/5
f 141/6/2 171/22/2 122/4/2
f 170/9/2 141/23/2 44/7/2
f 20/11/1 17/10/1 15/12/1
f 18/14/2 19/13/2 151/15/2
f 1/18/6 14/24/6 24/16/6
f 171/19/2 21/8/2 170/9/2
f 22/20/7 24/21/7 23/2/7
f 25/25/8 22/26/8 161/27/8
f 20/28/9 142/29/9 152/30/9
f 131/31/10 20/32/10 152/33/10
f 180/34/11 16/35/11 131/31/11
f 14/36/12 35/37/12 132/38/12
f 17/39/12 132/38/12 121/40/12
f 15/41/12 121/40/12 142/42/12
f 94/43/8 1/44/8 25/25/8
f 74/29/13 8/45/13 84/30/13
f 84/46/14 6/47/14 63/48/14
f 63/48/15 12/49/15 112/34/15
f 2/50/12 64/38/12 35/37/12
f 3/51/12 54/40/12 64/38/12
f 7/39/12 74/42/12 54/40/12
f 46/52/12 83/53/12 45/54/12
f 47/55/12 82/56/12 46/52/12
f 48/57/12 81/58/12 47/55/12
f 49/59/12 80/60/12 48/57/12
f 50/61/12 79/62/12 49/59/12
f 51/63/12 78/64/12 50/61/12
f 52/65/12 77/66/12 51/63/12
f 53/67/12 76/68/12 52/65/12
f 54/40/12 75/69/12 53/67/12
f 72/70/12 45/54/12 73/71/12
f 71/72/12 46/52/12 72/70/12
f 70/73/12 47/55/12 71/72/12
f 69/74/12 48/57/12 70/73/12
f 68/75/12 49/59/12 69/74/12
f 67/76/12 50/61/12 68/75/12
f 66/77/12 51/63/12 67/76/12
f 65/78/12 52/65/12 66/77/12
f 64/38/12 53/67/12 65/78/12
f 43/79/12 73/71/12 44/80/12
f 42/81/12 72/70/12 43/79/12
f 41/82/12 71/72/12 42/81/12
f 40/83/12 70/73/12 41/82/12
f 39/84/12 69/74/12 40/83/12
f 38/85/12 68/75/12 39/84/12
f 37/86/12 67/76/12 38/85/12
f 36/87/12 66/77/12 37/86/12
f 35/37/12 65/78/12 36/87/12
f 5/88/16 104/89/16 103/90/16
f 55/91/17 105/92/17 104/89/17
f 56/93/18 106/94/18 105/92/18
f 57/95/19 107/96/19 106/94/19
f 58/97/20 108/98/20 107/96/20
f 59/99/21 109/100/21 108/98/21
f 60/101/22 110/102/22 109/100/22
f 61/103/23 111/104/23 110/102/23
f 62/105/24 112/34/24 111/104/24
f 93/106/25 55/91/25 5/88/25
f 92/107/26 56/93/26 55/91/26
f 91/108/27 57/95/27 56/93/27
f 90/109/28 58/97/28 57/95/28
f 89/110/29 59/99/29 58/97/29
f 88/111/30 60/101/30 59/99/30
f 87/112/31 61/103/31 60/101/31
f 86/113/32 62/105/32 61/103/32
f 85/114/33 63/48/33 62/105/33
f 83/115/34 92/116/34 93/117/34
f 81/118/35 92/116/35 82/119/35
f 80/120/36 91/121/36 81/118/36
f 80/120/37 89/122/37 90/123/37
f 78/124/38 89/122/38 79/125/38
f 77/126/39 88/127/39 78/124/39
f 76/128/40 87/129/40 77/126/40
f 75/130/41 86/131/41 76/128/41
f 74/29/42 85/132/42 75/130/42
f 11/133/43 112/134/43 12/135/43
f 94/136/44 111/137/44 112/134/44
f 95/138/45 110/139/45 111/137/45
f 96/140/46 109/141/46 110/139/46
f 97/142/47 108/143/47 109/141/47
f 98/144/48 107/145/48 108/143/48
f 99/146/49 106/147/49 107/145/49
f 100/148/50 105/149/50 106/147/50
f 101/150/51 104/151/51 105/149/51
f 102/152/52 103/153/52 104/151/52
f 9/154/8 33/155/8 34/156/8
f 102/157/8 32/158/8 33/155/8
f 101/159/8 31/160/8 32/158/8
f 100/161/8 30/162/8 31/160/8
f 99/163/8 29/164/8 30/162/8
f 98/165/8 28/166/8 29/164/8
f 97/167/8 27/168/8 28/166/8
f 96/169/8 26/170/8 27/168/8
f 95/171/8 25/25/8 26/170/8
f 150/172/12 18/173/12 151/53/12
f 149/58/12 113/174/12 150/172/12
f 148/60/12 114/175/12 149/58/12
f 147/62/12 115/176/12 148/60/12
f 146/64/12 116/177/12 147/62/12
f 145/66/12 117/178/12 146/64/12
f 144/68/12 118/179/12 145/66/12
f 143/69/12 119/180/12 144/68/12
f 142/42/12 120/67/12 143/69/12
f 113/174/12 141/181/12 18/173/12
f 114/175/12 140/182/12 113/174/12
f 115/176/12 139/72/12 114/175/12
f 116/177/12 138/73/12 115/176/12
f 117/178/12 137/74/12 116/177/12
f 118/179/12 136/183/12 117/178/12
f 119/180/12 135/76/12 118/179/12
f 120/67/12 134/77/12 119/180/12
f 121/40/12 133/78/12 120/67/12
f 140/182/12 44/80/12 141/181/12
f 139/72/12 43/79/12 140/182/12
f 138/73/12 42/81/12 139/72/12
f 137/74/12 41/82/12 138/73/12
f 136/183/12 40/83/12 137/74/12
f 135/76/12 39/84/12 136/183/12
f 134/77/12 38/85/12 135/76/12
f 133/78/12 37/86/12 134/77/12
f 132/38/12 36/87/12 133/78/12
f 171/90/53 123/184/53 122/88/53
f 172/89/54 124/93/54 123/184/54
f 173/92/55 125/185/55 124/93/55
f 174/94/56 126/97/56 125/185/56
f 175/96/57 127/186/57 126/97/57
f 176/98/58 128/101/58 127/186/58
f 177/100/59 129/103/59 128/101/59
f 178/102/60 130/187/60 129/103/60
f 179/104/61 131/31/61 130/187/61
f 122/88/62 160/188/62 19/106/62
f 123/184/63 159/189/63 160/188/63
f 124/93/64 158/190/64 159/189/64
f 125/185/65 157/110/65 158/190/65
f 126/97/66 156/191/66 157/110/66
f 127/186/67 155/192/67 156/191/67
f 128/101/68 154/113/68 155/192/68
f 129/103/69 153/114/69 154/113/69
f 130/187/70 152/33/70 153/114/70
f 160/116/71 151/115/71 19/117/71
f 160/116/72 149/118/72 150/119/72
f 158/123/73 149/118/73 159/121/73
f 157/122/74 148/120/74 158/123/74
f 157/122/75 146/124/75 147/125/75
f 155/129/76 146/124/76 156/127/76
f 154/131/77 145/126/77 155/129/77
f 154/131/78 143/130/78 144/128/78
f 152/30/79 143/130/79 153/132/79
f 23/193/80 161/194/80 22/195/80
f 180/134/81 162/138/81 161/194/81
f 179/137/82 163/140/82 162/138/82
f 178/139/83 164/142/83 163/140/83
f 177/141/84 165/196/84 164/142/84
f 176/143/85 166/146/85 165/196/85
f 175/145/86 167/197/86 166/146/86
f 174/147/87 168/150/87 167/197/87
f 173/149/88 169/152/88 168/150/88
f 172/151/89 170/198/89 169/152/89
f 34/156/8 169/157/8 170/154/8
f 33/155/8 168/159/8 169/157/8
f 32/158/8 167/199/8 168/159/8
f 31/160/8 166/163/8 167/199/8
f 30/162/8 165/200/8 166/163/8
f 29/164/8 164/167/8 165/200/8
f 28/166/8 163/169/8 164/167/8
f 27/168/8 162/171/8 163/169/8
f 26/170/8 161/27/8 162/171/8
f 6/3/1 7/10/1 3/1/1
f 3/1/90 13/21/90 12/2/90
f 73/6/2 45/14/2 5/4/2
f 5/4/2 103/22/2 10/5/2
f 9/9/2 34/201/2 44/7/2
f 44/7/2 73/23/2 10/8/2
f 7/10/1 6/3/1 8/11/1
f 93/13/2 5/4/2 45/14/2
f 1/18/91 11/202/91 13/16/91
f 13/16/92 3/24/92 2/17/92
f 14/1/1 17/10/1 16/3/1
f 16/3/93 23/2/93 24/21/93
f 122/4/2 18/14/2 141/6/2
f 141/6/2 21/5/2 171/22/2
f 44/7/2 34/201/2 170/9/2
f 170/9/2 21/8/2 141/23/2
f 20/11/1 16/3/1 17/10/1
f 18/14/2 122/4/2 19/13/2
f 24/16/94 22/202/94 1/18/94
f 1/18/1 2/17/1 14/24/1
f 25/25/8 1/44/8 22/26/8
f 20/28/9 15/203/9 142/29/9
f 131/31/95 16/35/95 20/32/95
f 180/34/11 23/204/11 16/35/11
f 14/36/12 2/205/12 35/37/12
f 17/39/12 14/36/12 132/38/12
f 15/41/12 17/206/12 121/40/12
f 94/43/8 11/26/8 1/44/8
f 74/29/13 4/207/13 8/45/13
f 84/46/96 8/208/96 6/47/96
f 63/48/97 6/209/97 12/49/97
f 2/50/12 3/210/12 64/38/12
f 3/51/12 7/206/12 54/40/12
f 7/39/12 4/211/12 74/42/12
f 46/52/12 82/56/12 83/53/12
f 47/55/12 81/58/12 82/56/12
f 48/57/12 80/60/12 81/58/12
f 49/59/12 79/62/12 80/60/12
f 50/61/12 78/64/12 79/62/12
f 51/63/12 77/66/12 78/64/12
f 52/65/12 76/68/12 77/66/12
f 53/67/12 75/69/12 76/68/12
f 54/40/12 74/42/12 75/69/12
f 72/70/12 46/52/12 45/54/12
f 71/72/12 47/55/12 46/52/12
f 70/73/12 48/57/12 47/55/12
f 69/74/12 49/59/12 48/57/12
f 68/75/12 50/61/12 49/59/12
f 67/76/12 51/63/12 50/61/12
f 66/77/12 52/65/12 51/63/12
f 65/78/12 53/67/12 52/65/12
f 64/38/12 54/40/12 53/67/12
f 43/79/12 72/70/12 73/71/12
f 42/81/12 71/72/12 72/70/12
f 41/82/12 70/73/12 71/72/12
f 40/83/12 69/74/12 70/73/12
f 39/84/12 68/75/12 69/74/12
f 38/85/12 67/76/12 68/75/12
f 37/86/12 66/77/12 67/76/12
f 36/87/12 65/78/12 66/77/12
f 35/37/12 64/38/12 65/78/12
f 5/88/98 55/91/98 104/89/98
f 55/91/99 56/93/99 105/92/99
f 56/93/18 57/95/18 106/94/18
f 57/95/19 58/97/19 107/96/19
f 58/97/20 59/99/20 108/98/20
f 59/99/100 60/101/100 109/100/100
f 60/101/22 61/103/22 110/102/22
f 61/103/23 62/105/23 111/104/23
f 62/105/24 63/48/24 112/34/24
f 93/106/101 92/107/101 55/91/101
f 92/107/102 91/108/102 56/93/102
f 91/108/27 90/109/27 57/95/27
f 90/109/103 89/110/103 58/97/103
f 89/110/104 88/111/104 59/99/104
f 88/111/105 87/112/105 60/101/105
f 87/112/31 86/113/31 61/103/31
f 86/113/106 85/114/106 62/105/106
f 85/114/107 84/46/107 63/48/107
f 83/115/34 82/119/34 92/116/34
f 81/118/35 91/121/35 92/116/35
f 80/120/36 90/123/36 91/121/36
f 80/120/37 79/125/37 89/122/37
f 78/124/38 88/127/38 89/122/38
f 77/126/108 87/129/108 88/127/108
f 76/128/40 86/131/40 87/129/40
f 75/130/41 85/132/41 86/131/41
f 74/29/42 84/30/42 85/132/42
f 11/133/43 94/136/43 112/134/43
f 94/136/44 95/138/44 111/137/44
f 95/138/45 96/140/45 110/139/45
f 96/140/46 97/142/46 109/141/46
f 97/142/47 98/144/47 108/143/47
f 98/144/109 99/146/109 107/145/109
f 99/146/49 100/148/49 106/147/49
f 100/148/50 101/150/50 105/149/50
f 101/150/110 102/152/110 104/151/110
f 102/152/52 9/198/52 103/153/52
f 9/154/8 102/157/8 33/155/8
f 102/157/8 101/159/8 32/158/8
f 101/159/8 100/161/8 31/160/8
f 100/161/8 99/163/8 30/162/8
f 99/163/8 98/165/8 29/164/8
f 98/165/8 97/167/8 28/166/8
f 97/167/8 96/169/8 27/168/8
f 96/169/8 95/171/8 26/170/8
f 95/171/8 94/43/8 25/25/8
f 150/172/12 113/174/12 18/173/12
f 149/58/12 114/175/12 113/174/12
f 148/60/12 115/176/12 114/175/12
f 147/62/12 116/177/12 115/176/12
f 146/64/12 117/178/12 116/177/12
f 145/66/12 118/179/12 117/178/12
f 144/68/12 119/180/12 118/179/12
f 143/69/12 120/67/12 119/180/12
f 142/42/12 121/40/12 120/67/12
f 113/174/12 140/182/12 141/181/12
f 114/175/12 139/72/12 140/182/12
f 115/176/12 138/73/12 139/72/12
f 116/177/12 137/74/12 138/73/12
f 117/178/12 136/183/12 137/74/12
f 118/179/12 135/76/12 136/183/12
f 119/180/12 134/77/12 135/76/12
f 120/67/12 133/78/12 134/77/12
f 121/40/12 132/38/12 133/78/12
f 140/182/12 43/79/12 44/80/12
f 139/72/12 42/81/12 43/79/12
f 138/73/12 41/82/12 42/81/12
f 137/74/12 40/83/12 41/82/12
f 136/183/12 39/84/12 40/83/12
f 135/76/12 38/85/12 39/84/12
f 134/77/12 37/86/12 38/85/12
f 133/78/12 36/87/12 37/86/12
f 132/38/12 35/37/12 36/87/12
f 171/90/111 172/89/111 123/184/111
f 172/89/54 173/92/54 124/93/54
f 173/92/55 174/94/55 125/185/55
f 174/94/56 175/96/56 126/97/56
f 175/96/57 176/98/57 127/186/57
f 176/98/58 177/100/58 128/101/58
f 177/100/59 178/102/59 129/103/59
f 178/102/112 179/104/112 130/187/112
f 179/104/61 180/34/61 131/31/61
f 122/88/113 123/184/113 160/188/113
f 123/184/114 124/93/114 159/189/114
f 124/93/64 125/185/64 158/190/64
f 125/185/65 126/97/65 157/110/65
f 126/97/115 127/186/115 156/191/115
f 127/186/67 128/101/67 155/192/67
f 128/101/116 129/103/116 154/113/116
f 129/103/117 130/187/117 153/114/117
f 130/187/118 131/31/118 152/33/118
f 160/116/71 150/119/71 151/115/71
f 160/116/72 159/121/72 149/118/72
f 158/123/73 148/120/73 149/118/73
f 157/122/74 147/125/74 148/120/74
f 157/122/75 156/127/75 146/124/75
f 155/129/76 145/126/76 146/124/76
f 154/131/77 144/128/77 145/126/77
f 154/131/78 153/132/78 143/130/78
f 152/30/79 142/29/79 143/130/79
f 23/193/80 180/134/80 161/194/80
f 180/134/81 179/137/81 162/138/81
f 179/137/82 178/139/82 163/140/82
f 178/139/83 177/141/83 164/142/83
f 177/141/84 176/143/84 165/196/84
f 176/143/85 175/145/85 166/146/85
f 175/145/86 174/147/86 167/197/86
f 174/147/87 173/149/87 168/150/87
f 173/149/88 172/151/88 169/152/88
f 172/151/89 171/153/89 170/198/89
f 34/156/8 33/155/8 169/157/8
f 33/155/8 32/158/8 168/159/8
f 32/158/8 31/160/8 167/199/8
f 31/160/8 30/162/8 166/163/8
f 30/162/8 29/164/8 165/200/8
f 29/164/8 28/166/8 164/167/8
f 28/166/8 27/168/8 163/169/8
f 27/168/8 26/170/8 162/171/8
f 26/170/8 25/25/8 161/27/8
