# Blender 4.3.2
# www.blender.org
mtllib T_Intersection_gravel.mtl
o T_Intersection_gravel
v 3.175949 0.096028 -23.000000
v 1.096344 0.100000 -20.999489
v 3.000000 0.100000 -19.095829
v 4.351105 0.100000 -21.320862
v 3.733521 0.100000 -21.733521
v 3.320862 0.100000 -22.351112
v -3.175949 0.100000 -19.095829
v -1.096344 0.100000 -20.999489
v -5.000000 -0.004114 -19.095829
v -5.000000 -0.100000 -19.095829
v -4.000000 0.077428 -23.000000
v -4.000000 0.047943 -19.095829
v 4.000000 0.077428 -23.000000
v 4.000000 0.077428 -22.947449
v 4.072128 0.077428 -22.584877
v 4.277512 0.077428 -22.277504
v 4.584885 0.077428 -22.072121
v 4.947449 0.077428 -22.000000
v -5.000000 -0.004114 -18.000000
v -5.000000 -0.100000 -18.000000
v -4.000000 0.047943 -18.000000
v 3.000000 0.100000 -18.000000
v 5.000000 0.100000 -18.000000
v -3.175949 0.100000 -18.000000
v -2.627411 0.100000 -22.477905
v -2.627411 0.100000 -18.000000
v -2.627411 0.100000 -19.576687
v -2.627411 0.100000 -23.001022
v 2.722321 0.098447 -22.566544
v 2.627411 0.100000 -23.000000
v 4.566681 0.100000 -20.722252
v 2.815323 0.098598 -22.146812
v 3.350586 0.100118 -21.350578
v 4.151657 0.100118 -20.815319
v 1.096344 0.100000 -15.000511
v 3.000000 0.100000 -16.904171
v 4.351105 0.100000 -14.679138
v 3.733521 0.100000 -14.266479
v 3.320862 0.100000 -13.648888
v -3.175949 0.100000 -16.904171
v -1.096344 0.100000 -15.000511
v -5.000000 -0.004114 -16.904171
v -3.175949 0.100000 -13.000000
v -5.000000 -0.100000 -16.904171
v -5.000000 -0.100000 -13.000000
v -4.000000 0.047943 -16.904171
v 4.000000 0.077428 -13.052551
v 4.072128 0.077428 -13.415123
v 4.277512 0.077428 -13.722496
v 4.584885 0.077428 -13.927879
v 4.947449 0.077428 -14.000000
v -2.627411 0.100000 -13.522095
v -2.627411 0.100000 -16.423313
v 2.722321 0.098447 -13.433456
v 4.566681 0.100000 -15.277748
v 2.815323 0.098598 -13.853188
v 3.350586 0.100118 -14.649422
v 4.151657 0.100118 -15.184681
v 18.000000 0.100000 -18.000000
v 5.000000 -0.100000 -18.000000
v 18.000000 -0.100000 -18.000000
v 5.000000 -0.100000 -15.000000
v 18.000000 -0.100000 -15.000000
v 5.000000 -0.100000 -13.000000
v 18.000000 -0.100000 -13.000000
v 5.000000 0.077428 -14.000000
v 18.000000 0.077428 -14.000000
v 18.000000 -0.100000 -14.000000
v 5.000000 -0.100000 -14.000000
v 18.000000 -0.004114 -13.000000
v 5.000000 0.096028 -14.824047
v 5.000000 0.100000 -15.372593
v 18.000000 0.100000 -15.372593
v 18.000000 0.096028 -14.824047
v 18.000000 0.041215 -15.000000
v 5.000000 -0.100000 -21.000000
v 18.000000 -0.100000 -21.000000
v 18.000000 -0.100000 -23.000000
v 5.000000 0.077428 -22.000000
v 18.000000 0.077428 -22.000000
v 18.000000 -0.100000 -22.000000
v 5.000000 -0.100000 -22.000000
v 18.000000 -0.004114 -23.000000
v 5.000000 0.096028 -21.175953
v 5.000000 0.100000 -20.627407
v 18.000000 0.100000 -20.627407
v 18.000000 0.096028 -21.175953
v 18.000000 0.041215 -21.000000
v 0.000000 0.100000 -23.000000
v 0.000000 0.100000 -36.000000
v 0.000000 -0.100000 -23.000000
v 0.000000 -0.100000 -36.000000
v 3.000000 -0.100000 -23.000000
v 3.000000 -0.100000 -36.000000
v 5.000000 -0.100000 -23.000000
v 5.000000 -0.100000 -36.000000
v 4.000000 0.077428 -36.000000
v 4.000000 -0.100000 -36.000000
v 4.000000 -0.100000 -23.000000
v 5.000000 -0.004114 -23.000000
v 5.000000 -0.004114 -36.000000
v 2.627411 0.100000 -36.000000
v 3.175949 0.096028 -36.000000
v 3.000000 0.041215 -36.000000
v -3.000000 -0.100000 -23.000000
v -3.000000 -0.100000 -36.000000
v -5.000000 -0.100000 -23.000000
v -5.000000 -0.100000 -36.000000
v -4.000000 0.077428 -36.000000
v -4.000000 -0.100000 -36.000000
v -4.000000 -0.100000 -23.000000
v -5.000000 -0.004114 -23.000000
v -5.000000 -0.004114 -36.000000
v -3.175949 0.096028 -23.000000
v -2.627411 0.100000 -36.000000
v -3.175949 0.096028 -36.000000
v -3.000000 0.041215 -36.000000
v 0.000000 0.100000 0.000000
v 0.000000 -0.100000 -13.000000
v 0.000000 -0.100000 0.000000
v -3.000000 -0.100000 -13.000000
v -3.000000 -0.100000 0.000000
v -5.000000 -0.100000 0.000000
v -4.000000 0.077428 -13.000000
v -4.000000 0.077428 0.000000
v -4.000000 -0.100000 0.000000
v -4.000000 -0.100000 -13.000000
v -5.000000 -0.004114 -13.000000
v -5.000000 -0.004114 0.000000
v -2.627411 0.100000 -13.000000
v -2.627411 0.100000 0.000000
v -3.175949 0.096028 0.000000
v -3.000000 0.041215 0.000000
v 3.000000 -0.100000 -13.000000
v 3.000000 -0.100000 0.000000
v 5.000000 -0.100000 0.000000
v 4.000000 0.077428 -13.000000
v 4.000000 0.077428 0.000000
v 4.000000 -0.100000 0.000000
v 4.000000 -0.100000 -13.000000
v 5.000000 -0.004114 -13.000000
v 5.000000 -0.004114 0.000000
v 3.175949 0.096028 -13.000000
v 2.627411 0.100000 -13.000000
v 2.627411 0.100000 0.000000
v 3.175949 0.096028 0.000000
v 3.000000 0.041215 0.000000
v 0.000000 0.100000 -13.000000
v 0.000000 -0.100000 -18.000000
v -3.000000 -0.100000 -18.000000
v -4.000000 -0.100000 -18.000000
v 3.000000 -0.100000 -18.000000
v 4.000000 -0.100000 -18.000000
vn -0.0007 1.0000 -0.0010
vn -0.0000 1.0000 -0.0000
vn 0.0072 1.0000 0.0020
vn -1.0000 -0.0000 -0.0000
vn -0.0813 0.9967 0.0075
vn -0.0630 0.9980 0.0075
vn -0.0520 0.9986 -0.0000
vn 0.0016 1.0000 -0.0072
vn -0.0630 0.9980 -0.0000
vn 0.0255 0.9993 -0.0255
vn -0.0072 1.0000 -0.0000
vn 0.0006 1.0000 -0.0005
vn -0.0048 1.0000 -0.0039
vn 0.0072 1.0000 -0.0020
vn -0.0813 0.9967 -0.0075
vn -0.0630 0.9980 -0.0075
vn 0.0795 0.9963 0.0329
vn 0.0016 1.0000 0.0072
vn 0.0229 0.9995 0.0229
vn -0.0024 1.0000 0.0003
vn 1.0000 -0.0000 -0.0000
vn -0.0000 -1.0000 -0.0000
vn -0.0000 0.9997 0.0226
vn -0.0000 0.9967 0.0813
vn -0.0000 -0.0000 1.0000
vn -0.0000 1.0000 0.0072
vn -0.0000 0.9997 -0.0226
vn -0.0000 0.9967 -0.0813
vn -0.0000 -0.0000 -1.0000
vn -0.0000 1.0000 -0.0072
vn 0.0226 0.9997 -0.0000
vn 0.0813 0.9967 -0.0000
vn 0.0072 1.0000 -0.0000
vn -0.0226 0.9997 -0.0000
vn -0.0813 0.9967 -0.0000
vn -0.0274 0.9996 0.0003
vn 0.0067 1.0000 -0.0024
vn 0.0004 1.0000 -0.0006
vn -0.0034 1.0000 0.0004
vn -0.0004 1.0000 -0.0060
vn 0.0002 1.0000 -0.0001
vn -0.0034 1.0000 0.0023
vn -0.0226 0.9997 -0.0010
vn 0.0770 0.9941 -0.0770
vn 0.0226 0.9997 -0.0112
vn 0.0112 0.9997 -0.0226
vn -0.0000 0.9994 -0.0332
vn 0.0332 0.9994 -0.0000
vn 0.0283 0.9996 -0.0056
vn 0.0056 0.9996 -0.0283
vn 0.0249 0.9996 -0.0166
vn 0.0166 0.9996 -0.0249
vn -0.0063 1.0000 -0.0010
vn 0.0036 1.0000 0.0028
vn 0.0002 1.0000 0.0002
vn 0.0005 1.0000 -0.0005
vn -0.0024 1.0000 -0.0003
vn 0.0067 1.0000 0.0024
vn 0.0004 1.0000 0.0006
vn -0.0034 1.0000 -0.0004
vn -0.0004 1.0000 0.0060
vn -0.0034 1.0000 -0.0023
vn 0.0011 1.0000 0.0019
vn -0.0274 0.9996 -0.0000
vn 0.0329 0.9963 0.0795
vn 0.0226 0.9997 0.0112
vn 0.0112 0.9997 0.0226
vn -0.0000 0.9994 0.0332
vn 0.0283 0.9996 0.0056
vn 0.0249 0.9996 0.0166
vn 0.0056 0.9996 0.0283
vn 0.0266 0.9989 0.0399
vn 0.0036 1.0000 -0.0028
vn 0.0002 1.0000 -0.0002
vn 0.0005 1.0000 0.0005
vn 0.0006 1.0000 0.0005
vn -0.0000 1.0000 0.0003
vt 0.386134 0.831561
vt 0.272000 0.925585
vt 0.342913 0.788338
vt -1.117103 1.239331
vt -1.463461 1.573783
vt -1.463461 0.917461
vt 0.323200 0.974509
vt 0.261289 0.974509
vt 0.993785 0.280851
vt 0.995857 0.365196
vt 0.993785 0.365196
vt 0.995857 0.388871
vt 0.993785 0.388871
vt -0.978577 1.064353
vt -0.865677 0.623687
vt -0.865660 1.064353
vt -0.772637 0.623687
vt 0.037292 1.058421
vt 0.068615 0.982805
vt 0.144230 0.951482
vt -0.978577 0.623687
vt -0.865677 0.500000
vt 0.529081 0.706713
vt 0.529078 0.768628
vt 0.480173 0.717419
vt -0.190429 0.560778
vt -0.621073 1.239331
vt -0.772637 0.500000
vt -0.039348 0.991113
vt 0.076934 0.874828
vt 0.081648 1.005424
vt 0.019735 0.623687
vt 0.081648 0.677961
vt 0.081648 0.500000
vt 0.019735 0.500000
vt 0.081648 1.064468
vt 0.019733 1.064353
vt -0.869088 1.691893
vt -0.232208 1.498882
vt -0.253247 1.593835
vt -0.190429 0.808680
vt 0.262011 1.155158
vt 0.480173 0.288441
vt 0.272000 0.080275
vt 0.386135 0.174299
vt -1.117103 -0.117776
vt -1.463461 0.204095
vt -1.463461 -0.452227
vt 0.323200 0.031350
vt 0.261289 0.031350
vt 0.995857 0.412545
vt 0.993785 0.496890
vt 0.993785 0.412545
vt -0.865677 0.376313
vt -0.978577 -0.064353
vt -0.865660 -0.064353
vt -0.772637 0.376313
vt 0.068615 0.017196
vt 0.037292 -0.058421
vt 0.150113 -0.064353
vt -0.978577 0.376313
vt 0.529081 0.299146
vt 0.529078 0.237231
vt -0.621073 -0.117776
vt 0.103308 0.040377
vt 0.076934 0.125172
vt -0.039348 0.008887
vt 0.019735 0.376313
vt 0.081648 -0.005424
vt 0.081648 0.322038
vt 0.019735 -0.064353
vt 0.081648 -0.064353
vt -0.869088 -0.570337
vt -0.190429 0.312876
vt -0.232208 -0.377326
vt -0.111119 -0.197200
vt 0.163986 -0.055058
vt 0.262011 -0.033602
vt 0.004321 0.820949
vt 0.000086 0.817148
vt 0.000488 0.799345
vt 0.777746 0.302455
vt 0.496895 0.280851
vt 0.777746 0.280851
vt 0.004321 0.799345
vt 0.002249 0.777741
vt 0.004321 0.777741
vt 0.777746 0.324059
vt 0.496895 0.302455
vt 0.777746 0.388871
vt 0.496895 0.324059
vt 0.066980 1.146983
vt 0.156675 -0.268022
vt 0.156675 1.146983
vt -0.041866 1.146983
vt 0.066980 -0.268022
vt 0.997928 0.280851
vt 0.995857 0.000000
vt 0.997928 0.000000
vt 0.001270 0.820949
vt 0.004321 0.885761
vt 0.000000 0.885761
vt 0.640453 -0.000000
vt 0.640453 0.015238
vt 0.638895 0.010361
vt 0.141165 1.146983
vt 0.200872 -0.268022
vt 0.141165 -0.268022
vt 0.394709 1.857505
vt 0.967898 -0.978545
vt 0.967898 1.857506
vt 0.000488 0.972177
vt 0.001270 0.950573
vt 0.004321 0.950573
vt 0.496895 0.496890
vt 0.777746 0.475286
vt 0.777746 0.496890
vt 0.002249 0.993780
vt 0.004321 0.972177
vt 0.004321 0.993780
vt 0.496895 0.475286
vt 0.777746 0.453682
vt 0.496895 0.453682
vt 0.848058 -0.268022
vt 0.937752 1.146983
vt 0.848058 1.146983
vt 0.937753 -0.268022
vt 1.046599 1.146983
vt 0.995857 0.842553
vt 0.997929 0.561702
vt 0.997928 0.842553
vt 0.000000 0.942523
vt 0.000086 0.954374
vt 0.200872 -0.268022
vt 0.141165 1.146983
vt 0.141165 -0.268022
vt 1.541087 1.857506
vt 0.008642 0.820949
vt 0.004407 0.817148
vt 0.004808 0.799345
vt 0.799350 0.496890
vt 0.777746 0.777741
vt 0.008642 0.799345
vt 0.006570 0.777741
vt 0.008642 0.777741
vt 0.820954 0.496890
vt 0.799350 0.777741
vt 0.885766 0.496890
vt 0.820954 0.777741
vt 0.937752 -0.268022
vt 0.848057 1.146983
vt 0.848057 -0.268022
vt 1.046599 -0.268022
vt 0.937752 1.146983
vt 1.000000 0.280851
vt 0.997929 -0.000000
vt 1.000000 -0.000000
vt 0.005591 0.820949
vt 0.008642 0.885761
vt 0.004321 0.885761
vt 0.004321 0.828999
vt 0.141165 -0.268022
vt 0.200871 1.146983
vt 0.141165 1.146983
vt 1.541088 -0.978545
vt 0.967898 1.857505
vt 0.967898 -0.978545
vt 0.004808 0.972177
vt 0.005591 0.950573
vt 0.008642 0.950573
vt 0.993785 0.777741
vt 0.972181 0.496890
vt 0.993785 0.496890
vt 0.006570 0.993780
vt 0.008642 0.972177
vt 0.008642 0.993780
vt 0.972181 0.777741
vt 0.950577 0.496890
vt 0.950577 0.777741
vt 0.156675 1.146983
vt 0.066980 -0.268022
vt 0.156675 -0.268022
vt 0.066980 1.146983
vt -0.041866 -0.268022
vt 0.995857 -0.000000
vt 0.995857 0.280851
vt 0.004321 0.942523
vt 0.004407 0.954374
vt 0.200872 1.146983
vt 0.141165 -0.267911
vt 0.141165 1.146983
vt 0.394708 -0.978322
vt 0.012962 0.820949
vt 0.008727 0.817148
vt 0.009129 0.799345
vt 0.972181 0.280851
vt 0.993785 0.000000
vt 0.993785 0.280851
vt 0.012962 0.799345
vt 0.010891 0.777741
vt 0.012962 0.777741
vt 0.950577 0.280851
vt 0.972181 0.000000
vt 0.885766 0.280851
vt 0.950577 0.000000
vt 0.066980 1.146983
vt 0.156675 -0.268022
vt 0.156675 1.146983
vt -0.041866 1.146983
vt 0.066980 -0.268022
vt 0.995857 0.777741
vt 0.995857 0.496890
vt 0.009912 0.820949
vt 0.012962 0.885761
vt 0.008642 0.885761
vt 0.640453 0.015238
vt 0.640453 0.030475
vt 0.638895 0.025599
vt 0.141165 1.146983
vt 0.200872 -0.268022
vt 0.141165 -0.268022
vt 0.394708 1.857505
vt 0.967898 -0.978545
vt 0.967898 1.857505
vt 0.009129 0.972177
vt 0.009912 0.950573
vt 0.012962 0.950573
vt 0.777746 0.000000
vt 0.799350 0.280851
vt 0.010891 0.993780
vt 0.012962 0.972177
vt 0.012962 0.993780
vt 0.799350 0.000000
vt 0.820954 0.280851
vt 0.820954 0.000000
vt 0.848057 -0.268022
vt 0.937752 1.146983
vt 0.937752 -0.268022
vt 1.046599 1.146983
vt 0.995857 0.561702
vt 0.997928 0.561702
vt 0.638895 0.030475
vt 0.640453 0.040837
vt 0.638895 0.045713
vt 0.200871 -0.268022
vt 0.141165 1.146983
vt 0.141165 -0.268022
vt 1.541088 1.857505
vt 0.972181 0.388871
vt 0.993785 0.365196
vt 0.950577 0.388871
vt 0.885766 0.388871
vt 0.799350 0.388871
vt 0.993785 0.412545
vt 0.993785 0.388871
vt 0.820954 0.388871
vt 0.455841 0.784984
vt 0.433329 0.727923
vt 0.282498 0.878209
vt 0.339558 0.901269
vt -0.772639 1.064353
vt 0.150161 0.951483
vt 0.150113 1.064353
vt 0.037292 1.064353
vt 0.045433 1.017498
vt 0.103308 0.959623
vt -0.978577 0.500000
vt -1.463461 0.560777
vt -0.055707 1.064353
vt 0.007228 0.921405
vt 0.150172 0.858472
vt -0.274716 1.691893
vt -1.463461 1.692124
vt 0.163986 1.176614
vt 0.070099 1.197668
vt -0.111119 1.318756
vt 0.262011 0.560778
vt 0.455841 0.220876
vt 0.433329 0.277936
vt 0.342913 0.217521
vt 0.282498 0.127650
vt 0.339558 0.104590
vt -0.772637 -0.064353
vt 0.150161 0.048518
vt 0.144230 0.048518
vt 0.045433 -0.017498
vt 0.037292 -0.064353
vt -0.055707 -0.064353
vt 0.007228 0.078595
vt 0.150172 0.141528
vt -0.274716 -0.570337
vt -0.253247 -0.472279
vt -1.463461 -0.570337
vt 0.070099 -0.076112
vt 0.496895 0.388871
vt -0.041866 -0.268022
vt 0.000000 0.828999
vt 0.200872 1.146983
vt 0.394709 -0.978545
vt 1.046599 -0.268022
vt 0.995857 0.561702
vt 0.200872 1.146983
vt 1.541088 -0.978545
vt 0.885766 0.777741
vt 0.997929 0.280851
vt 0.200871 -0.268022
vt 1.541088 1.857505
vt 0.993785 -0.000000
vt 0.200872 -0.268022
vt 0.394708 1.857505
vt 0.885766 0.000000
vt -0.041866 -0.268022
vt 0.008642 0.828999
vt 0.200872 1.146983
vt 0.394708 -0.978545
vt 0.008727 0.954374
vt 1.046599 -0.268022
vt 0.008642 0.942523
vt 1.541088 -0.978545
s 0
usemtl Soil
f 112/9/4 10/10/4 9/11/4
f 9/11/4 20/12/4 19/13/4
f 112/14/5 12/15/5 11/16/5
f 7/17/6 11/16/6 12/15/6
f 14/18/2 16/19/2 18/20/2
f 9/21/7 21/22/7 12/15/7
f 12/15/9 24/28/9 7/17/9
f 6/29/10 4/30/10 16/19/10
f 44/51/4 128/52/4 42/53/4
f 20/12/4 42/53/4 19/13/4
f 46/54/15 128/55/15 124/56/15
f 124/56/16 40/57/16 46/54/16
f 49/58/17 47/59/17 141/60/17
f 21/22/7 42/61/7 46/54/7
f 24/28/9 46/54/9 40/57/9
f 50/65/19 37/66/19 39/67/19
f 63/79/21 74/80/21 67/81/21
f 69/82/22 65/83/22 64/84/22
f 68/85/21 70/86/21 65/87/21
f 62/88/22 68/89/22 69/82/22
f 60/90/22 63/91/22 62/88/22
f 66/92/23 74/93/23 71/94/23
f 141/95/24 67/96/24 66/92/24
f 65/97/25 141/98/25 64/99/25
f 75/100/21 61/101/21 59/102/21
f 80/112/21 88/113/21 77/114/21
f 78/115/22 82/116/22 95/117/22
f 83/118/21 81/119/21 78/120/21
f 81/121/22 76/122/22 82/116/22
f 77/123/22 60/90/22 76/122/22
f 87/124/27 79/125/27 84/126/27
f 80/127/28 100/128/28 79/125/28
f 100/129/29 78/130/29 95/131/29
f 59/102/21 77/114/21 88/113/21
f 94/138/29 103/139/29 97/140/29
f 99/141/22 96/142/22 95/117/22
f 98/143/29 101/144/29 96/145/29
f 93/146/22 98/147/22 99/141/22
f 91/148/22 94/149/22 93/146/22
f 13/150/31 103/151/31 1/152/31
f 100/153/32 97/154/32 13/150/32
f 96/155/21 100/156/21 95/157/21
f 104/158/29 92/159/29 90/160/29
f 109/168/29 117/169/29 106/170/29
f 108/171/22 111/172/22 107/173/22
f 113/174/29 110/175/29 108/176/29
f 110/177/22 105/178/22 111/172/22
f 106/179/22 91/148/22 105/178/22
f 116/180/34 11/181/34 114/182/34
f 109/183/35 112/184/35 11/181/35
f 112/9/4 108/185/4 107/186/4
f 90/160/29 106/170/29 117/169/29
f 122/193/25 132/194/25 125/195/25
f 127/196/22 123/197/22 45/198/22
f 126/199/25 129/200/25 123/201/25
f 121/202/22 126/203/22 127/196/22
f 119/204/22 122/205/22 121/202/22
f 124/206/36 132/207/36 43/208/36
f 128/209/35 125/210/35 124/206/35
f 123/211/4 128/52/4 45/212/4
f 133/213/25 120/214/25 118/215/25
f 138/225/25 147/226/25 135/227/25
f 136/228/22 140/229/22 64/84/22
f 142/230/25 139/231/25 136/232/25
f 139/233/22 134/234/22 140/229/22
f 135/235/22 119/204/22 134/234/22
f 146/236/31 137/237/31 143/151/31
f 138/238/32 141/239/32 137/237/32
f 141/240/21 136/97/21 64/241/21
f 118/215/25 135/227/25 147/226/25
f 99/141/22 82/116/22 76/122/22
f 151/249/22 45/198/22 44/250/22
f 111/172/22 150/251/22 151/249/22
f 105/178/22 149/252/22 150/251/22
f 151/249/22 121/202/22 127/196/22
f 150/251/22 119/204/22 121/202/22
f 153/253/22 62/88/22 69/82/22
f 10/254/22 111/172/22 20/255/22
f 149/252/22 134/234/22 119/204/22
f 91/148/22 152/256/22 149/252/22
f 152/256/22 140/229/22 134/234/22
f 93/146/22 153/253/22 152/256/22
f 112/9/4 107/186/4 10/10/4
f 9/11/4 10/10/4 20/12/4
f 112/14/7 9/21/7 12/15/7
f 7/17/43 114/261/43 11/16/43
f 18/20/28 79/262/28 100/263/28
f 100/263/32 13/264/32 14/18/32
f 14/18/2 15/265/2 16/19/2
f 16/19/2 17/266/2 18/20/2
f 18/20/44 100/263/44 14/18/44
f 9/21/7 19/267/7 21/22/7
f 12/15/9 21/22/9 24/28/9
f 13/264/45 1/269/45 6/29/45
f 6/29/2 5/270/2 4/30/2
f 4/30/46 84/271/46 79/262/46
f 4/30/47 79/262/47 18/20/47
f 14/18/48 13/264/48 6/29/48
f 15/265/49 14/18/49 6/29/49
f 4/30/50 18/20/50 17/266/50
f 16/19/51 15/265/51 6/29/51
f 4/30/52 17/266/52 16/19/52
f 44/51/4 45/212/4 128/52/4
f 20/12/4 44/51/4 42/53/4
f 46/54/7 42/61/7 128/55/7
f 124/56/64 43/283/64 40/57/64
f 141/60/24 66/284/24 51/285/24
f 51/285/2 50/65/2 49/58/2
f 49/58/2 48/286/2 47/59/2
f 47/59/32 137/287/32 141/60/32
f 141/60/65 51/285/65 49/58/65
f 21/22/7 19/267/7 42/61/7
f 24/28/9 21/22/9 46/54/9
f 39/67/66 143/288/66 137/287/66
f 39/67/48 137/287/48 47/59/48
f 37/66/2 38/289/2 39/67/2
f 66/284/67 71/290/67 37/66/67
f 51/285/68 66/284/68 37/66/68
f 39/67/69 47/59/69 48/286/69
f 39/67/70 48/286/70 49/58/70
f 50/65/71 51/285/71 37/66/71
f 39/67/72 49/58/72 50/65/72
f 67/81/21 68/85/21 63/79/21
f 63/79/21 75/100/21 74/80/21
f 69/82/22 68/89/22 65/83/22
f 68/85/21 67/81/21 70/86/21
f 62/88/22 63/91/22 68/89/22
f 60/90/22 61/295/22 63/91/22
f 66/92/23 67/96/23 74/93/23
f 141/95/24 70/296/24 67/96/24
f 65/97/25 70/186/25 141/98/25
f 59/102/21 73/297/21 75/100/21
f 75/100/21 63/79/21 61/101/21
f 77/114/21 81/119/21 80/112/21
f 80/112/21 87/133/21 88/113/21
f 78/115/22 81/121/22 82/116/22
f 83/118/21 80/112/21 81/119/21
f 81/121/22 77/123/22 76/122/22
f 77/123/22 61/295/22 60/90/22
f 87/124/27 80/127/27 79/125/27
f 80/127/28 83/300/28 100/128/28
f 100/129/29 83/301/29 78/130/29
f 88/113/21 86/132/21 59/102/21
f 59/102/21 61/101/21 77/114/21
f 97/140/29 98/143/29 94/138/29
f 94/138/29 104/158/29 103/139/29
f 99/141/22 98/147/22 96/142/22
f 98/143/29 97/140/29 101/144/29
f 93/146/22 94/149/22 98/147/22
f 91/148/22 92/304/22 94/149/22
f 13/150/31 97/154/31 103/151/31
f 100/153/32 101/239/32 97/154/32
f 96/155/21 101/305/21 100/156/21
f 90/160/29 102/161/29 104/158/29
f 104/158/29 94/138/29 92/159/29
f 106/170/29 110/175/29 109/168/29
f 109/168/29 116/188/29 117/169/29
f 108/171/22 110/177/22 111/172/22
f 113/174/29 109/168/29 110/175/29
f 110/177/22 106/179/22 105/178/22
f 106/179/22 92/304/22 91/148/22
f 116/180/34 109/183/34 11/181/34
f 109/183/35 113/95/35 112/184/35
f 112/9/4 113/308/4 108/185/4
f 117/169/29 115/187/29 90/160/29
f 90/160/29 92/159/29 106/170/29
f 125/195/25 126/199/25 122/193/25
f 122/193/25 133/213/25 132/194/25
f 127/196/22 126/203/22 123/197/22
f 126/199/25 125/195/25 129/200/25
f 121/202/22 122/205/22 126/203/22
f 119/204/22 120/311/22 122/205/22
f 124/206/34 125/210/34 132/207/34
f 128/209/35 129/312/35 125/210/35
f 123/211/4 129/171/4 128/52/4
f 118/215/25 131/313/25 133/213/25
f 133/213/25 122/193/25 120/214/25
f 135/227/25 139/231/25 138/225/25
f 138/225/25 146/316/25 147/226/25
f 136/228/22 139/233/22 140/229/22
f 142/230/25 138/225/25 139/231/25
f 139/233/22 135/235/22 134/234/22
f 135/235/22 120/311/22 119/204/22
f 146/236/31 138/238/31 137/237/31
f 138/238/32 142/317/32 141/239/32
f 141/240/21 142/186/21 136/97/21
f 147/226/25 145/318/25 118/215/25
f 118/215/25 120/214/25 135/227/25
f 60/90/22 153/253/22 99/141/22
f 99/141/22 95/117/22 82/116/22
f 76/122/22 60/90/22 99/141/22
f 44/250/22 20/255/22 151/249/22
f 151/249/22 127/196/22 45/198/22
f 111/172/22 105/178/22 150/251/22
f 105/178/22 91/148/22 149/252/22
f 151/249/22 150/251/22 121/202/22
f 150/251/22 149/252/22 119/204/22
f 64/84/22 140/229/22 153/253/22
f 153/253/22 60/90/22 62/88/22
f 69/82/22 64/84/22 153/253/22
f 10/254/22 107/173/22 111/172/22
f 111/172/22 151/249/22 20/255/22
f 149/252/22 152/256/22 134/234/22
f 91/148/22 93/146/22 152/256/22
f 152/256/22 153/253/22 140/229/22
f 93/146/22 99/141/22 153/253/22
usemtl Soil/Gravel.002
f 5/1/1 29/2/1 33/3/1
f 1/7/3 30/8/3 29/2/3
f 85/23/8 84/24/8 31/25/8
f 25/31/2 7/32/2 27/33/2
f 26/34/2 7/32/2 24/35/2
f 25/31/11 28/36/11 114/37/11
f 55/43/13 54/44/13 38/45/13
f 143/49/14 54/44/14 144/50/14
f 72/62/18 55/43/18 71/63/18
f 40/68/2 52/69/2 53/70/2
f 26/34/2 40/68/2 53/70/2
f 52/69/2 43/71/2 130/72/2
f 73/103/21 74/104/21 75/105/21
f 86/132/21 88/113/21 87/133/21
f 102/161/29 103/139/29 104/158/29
f 115/187/29 117/169/29 116/188/29
f 131/216/25 132/217/25 133/218/25
f 145/242/25 147/243/25 146/244/25
f 31/25/37 84/24/37 4/257/37
f 31/25/2 4/257/2 5/1/2
f 33/3/38 34/258/38 31/25/38
f 29/2/39 32/259/39 33/3/39
f 6/260/40 1/7/40 29/2/40
f 33/3/41 31/25/41 5/1/41
f 5/1/42 6/260/42 29/2/42
f 25/31/53 114/37/53 7/32/53
f 26/34/2 27/33/2 7/32/2
f 37/278/58 71/63/58 55/43/58
f 55/43/59 58/279/59 57/280/59
f 57/280/60 56/281/60 54/44/60
f 54/44/61 143/49/61 39/282/61
f 38/45/2 37/278/2 55/43/2
f 54/44/62 39/282/62 38/45/62
f 55/43/63 57/280/63 54/44/63
f 40/68/2 43/71/2 52/69/2
f 26/34/2 24/35/2 40/68/2
usemtl Soil/Gravel.001
f 72/106/26 74/107/26 73/108/26
f 87/134/30 85/135/30 86/136/30
f 30/162/33 103/163/33 102/164/33
f 116/189/11 28/190/11 115/191/11
f 130/219/11 132/220/11 131/221/11
f 146/245/33 144/246/33 145/247/33
f 72/106/26 71/298/26 74/107/26
f 87/134/30 84/302/30 85/135/30
f 30/162/33 1/306/33 103/163/33
f 116/189/11 114/309/11 28/190/11
f 130/219/77 43/314/77 132/220/77
f 146/245/33 143/163/33 144/246/33
usemtl gravel
f 8/4/2 25/5/2 27/6/2
f 27/6/2 22/26/2 2/27/2
f 89/38/2 25/5/2 2/27/2
f 32/39/12 29/40/12 3/41/12
f 85/42/2 3/41/2 22/26/2
f 41/46/2 53/47/2 52/48/2
f 35/64/2 22/26/2 53/47/2
f 35/64/2 52/48/2 148/73/2
f 36/74/20 56/75/20 57/76/20
f 22/26/2 55/77/2 72/78/2
f 72/109/2 59/110/2 23/111/2
f 59/110/2 85/137/2 23/111/2
f 30/165/2 90/166/2 89/167/2
f 90/166/2 28/192/2 89/167/2
f 130/222/2 118/223/2 148/224/2
f 118/223/2 144/248/2 148/224/2
f 2/27/2 8/4/2 27/6/2
f 27/6/2 26/268/2 22/26/2
f 22/26/2 3/41/2 2/27/2
f 2/27/54 29/40/54 30/272/54
f 89/38/2 28/273/2 25/5/2
f 2/27/2 30/272/2 89/38/2
f 25/5/2 8/4/2 2/27/2
f 3/41/55 31/274/55 34/275/55
f 3/41/2 34/275/2 33/276/2
f 29/40/56 2/27/56 3/41/56
f 3/41/57 33/276/57 32/39/57
f 22/26/2 23/277/2 85/42/2
f 85/42/2 31/274/2 3/41/2
f 53/47/2 41/46/2 35/64/2
f 35/64/2 36/74/2 22/26/2
f 22/26/2 26/268/2 53/47/2
f 144/291/73 54/292/73 35/64/73
f 35/64/2 41/46/2 52/48/2
f 52/48/2 130/293/2 148/73/2
f 148/73/2 144/291/2 35/64/2
f 58/294/74 55/77/74 36/74/74
f 36/74/75 35/64/75 54/292/75
f 36/74/76 54/292/76 56/75/76
f 57/76/2 58/294/2 36/74/2
f 72/78/2 23/277/2 22/26/2
f 22/26/2 36/74/2 55/77/2
f 72/109/2 73/299/2 59/110/2
f 59/110/2 86/303/2 85/137/2
f 30/165/2 102/307/2 90/166/2
f 90/166/2 115/310/2 28/192/2
f 130/222/2 131/315/2 118/223/2
f 118/223/2 145/319/2 144/248/2
