# Blender 4.3.0
# www.blender.org
o 45deg
v 0.000000 0.000000 67.735001
v -0.000000 0.000000 64.735001
v -0.000000 -0.200000 64.735001
v -0.000000 0.000000 61.735001
v 0.000000 -0.200000 67.735001
v 0.000000 -0.200000 69.735001
v 0.000000 0.200000 67.735001
v 0.000000 0.200000 69.735001
v 0.000000 0.200000 68.034859
v -0.000000 -0.200000 61.735001
v -0.000000 -0.200000 59.735001
v -0.000000 0.200000 61.735001
v -0.000000 0.200000 59.735001
v -0.000000 0.200000 61.435146
v -5.469356 -0.200000 57.469574
v -11.338125 0.200000 63.338570
v -5.469356 0.200000 57.469574
v -6.883543 -0.200000 58.883812
v -6.883543 -0.000000 58.883812
v -6.671518 0.200000 58.671780
v -6.883543 0.200000 58.883812
v -11.126102 0.200000 63.126537
v -9.004824 0.000000 61.005173
v -11.126102 0.000000 63.126537
v -12.540289 0.200000 64.540779
v -11.126102 -0.200000 63.126537
v -12.540289 -0.200000 64.540779
v -9.004824 -0.200000 61.005173
v -0.998686 -0.200000 64.690697
v -1.991175 -0.200000 64.572289
v -2.971987 -0.200000 64.379593
v -3.934789 -0.200000 64.110657
v -4.871290 -0.200000 63.760994
v -5.778179 -0.200000 63.340843
v -6.650072 -0.200000 62.852318
v -7.481754 -0.200000 62.298050
v -8.268240 -0.200000 61.681149
v -6.125088 0.200000 59.171974
v -5.541950 0.200000 59.628555
v -4.925567 0.200000 60.038937
v -4.279596 0.200000 60.400894
v -3.607867 0.200000 60.712585
v -2.914317 0.200000 60.972557
v -2.200760 0.200000 61.171124
v -1.473957 0.200000 61.313221
v -0.738678 0.200000 61.401100
v -6.319835 0.200000 59.399982
v -5.718219 0.200000 59.871128
v -5.082271 0.200000 60.294586
v -4.415771 0.200000 60.668045
v -3.722674 0.200000 60.989590
v -3.007046 0.200000 61.257713
v -2.270841 0.200000 61.462673
v -1.520956 0.200000 61.609371
v -0.762305 0.200000 61.700024
v -6.319835 -0.200000 59.399982
v -5.718221 -0.200000 59.871128
v -5.082271 -0.200000 60.294586
v -4.415771 -0.200000 60.668045
v -3.722674 -0.200000 60.989590
v -3.007047 -0.200000 61.257713
v -2.270841 -0.200000 61.462673
v -1.520956 -0.200000 61.609371
v -0.762305 -0.200000 61.700027
v -10.411392 0.200000 64.190323
v -9.421558 0.200000 64.967545
v -8.374578 0.200000 65.665703
v -7.276763 0.200000 66.280792
v -6.134712 0.200000 66.809410
v -4.955259 0.200000 67.248764
v -3.743212 0.200000 67.588058
v -2.508391 0.200000 67.831360
v -1.258692 0.200000 67.980293
v -11.515583 0.200000 65.483093
v -10.420979 0.200000 66.342918
v -9.263075 0.200000 67.115204
v -8.048860 0.200000 67.795502
v -6.785650 0.200000 68.380005
v -5.481023 0.200000 68.865570
v -4.140561 0.200000 69.241119
v -2.774871 0.200000 69.510490
v -1.392652 0.200000 69.675156
v -6.319835 0.000000 59.399982
v -5.718221 -0.000000 59.871128
v -5.082271 0.000000 60.294586
v -4.415771 0.000000 60.668045
v -3.722674 0.000000 60.989590
v -3.007047 -0.000000 61.257713
v -2.270841 0.000000 61.462673
v -1.520957 0.000000 61.609371
v -0.762305 -0.000000 61.700024
v -8.268240 0.000000 61.681149
v -7.481756 0.000000 62.298050
v -6.650072 0.000000 62.852318
v -5.778179 0.000000 63.340843
v -4.871290 0.000000 63.760994
v -3.934788 0.000000 64.110657
v -2.971986 0.000000 64.379593
v -1.991174 0.000000 64.572289
v -0.998686 0.000000 64.690697
v -0.604718 0.200000 59.706245
v -1.207478 0.200000 59.634090
v -1.803411 0.200000 59.518066
v -2.388552 0.200000 59.355751
v -2.956930 0.200000 59.141987
v -3.507498 0.200000 58.886181
v -4.037070 0.200000 58.589432
v -4.542528 0.200000 58.253181
v -5.020897 0.200000 57.879204
v -1.235066 -0.200000 67.681374
v -2.461392 -0.200000 67.535210
v -3.673131 -0.200000 67.296509
v -4.862530 -0.200000 66.963608
v -6.019906 -0.200000 66.532402
v -7.140587 -0.200000 66.013641
v -8.217874 -0.200000 65.410049
v -9.245290 -0.200000 64.724968
v -10.216646 -0.200000 63.962315
v -1.392652 -0.200000 69.675156
v -2.774871 -0.200000 69.510490
v -4.140561 -0.200000 69.241119
v -5.481023 -0.200000 68.865570
v -6.785650 -0.200000 68.380005
v -8.048858 -0.200000 67.795502
v -9.263075 -0.200000 67.115204
v -10.420979 -0.200000 66.342918
v -11.515583 -0.200000 65.483093
v -1.235066 0.200000 67.681374
v -2.461392 0.200000 67.535210
v -3.673131 0.200000 67.296509
v -4.862530 0.200000 66.963608
v -6.019906 0.200000 66.532402
v -7.140588 0.200000 66.013641
v -8.217874 0.200000 65.410049
v -9.245290 0.200000 64.724968
v -10.216646 0.200000 63.962315
v -0.604718 -0.200000 59.706245
v -1.207478 -0.200000 59.634090
v -1.803411 -0.200000 59.518066
v -2.388552 -0.200000 59.355751
v -2.956930 -0.200000 59.141987
v -3.507498 -0.200000 58.886181
v -4.037070 -0.200000 58.589432
v -4.542528 -0.200000 58.253181
v -5.020897 -0.200000 57.879204
v -1.235066 0.000000 67.681374
v -2.461393 0.000000 67.535210
v -3.673131 -0.000000 67.296509
v -4.862530 0.000000 66.963608
v -6.019906 -0.000000 66.532402
v -7.140587 -0.000000 66.013641
v -8.217874 -0.000000 65.410049
v -9.245290 0.000000 64.724968
v -10.216646 -0.000000 63.962315
vn -0.7071 -0.0000 -0.7071
vn 1.0000 -0.0000 -0.0000
vn -0.0000 -1.0000 -0.0000
vn -0.0000 1.0000 -0.0000
vn 0.6767 -0.0000 -0.7363
vn 0.6744 -0.0000 -0.7383
vn -0.6769 -0.0000 0.7361
vn -0.6753 -0.0000 0.7375
vn -0.0458 -0.0000 0.9989
vn -0.1187 -0.0000 0.9929
vn -0.1920 -0.0000 0.9814
vn -0.2682 -0.0000 0.9634
vn -0.3508 -0.0000 0.9364
vn -0.4208 -0.0000 0.9071
vn -0.4888 -0.0000 0.8724
vn -0.5542 -0.0000 0.8324
vn -0.6166 -0.0000 0.7873
vn -0.0429 -0.0000 0.9991
vn -0.1183 -0.0000 0.9930
vn -0.1935 -0.0000 0.9811
vn -0.2698 -0.0000 0.9629
vn -0.3488 -0.0000 0.9372
vn -0.4199 -0.0000 0.9076
vn -0.5549 -0.0000 0.8319
vn -0.6177 -0.0000 0.7864
vn 0.0475 -0.0000 -0.9989
vn 0.1189 -0.0000 -0.9929
vn 0.1911 -0.0000 -0.9816
vn 0.2673 -0.0000 -0.9636
vn 0.3520 -0.0000 -0.9360
vn 0.4214 -0.0000 -0.9069
vn 0.4888 -0.0000 -0.8724
vn 0.5539 -0.0000 -0.8326
vn 0.6159 -0.0000 -0.7878
vn 0.0434 -0.0000 -0.9991
vn 0.1183 -0.0000 -0.9930
vn 0.1933 -0.0000 -0.9811
vn 0.2695 -0.0000 -0.9630
vn 0.3491 -0.0000 -0.9371
vn 0.4201 -0.0000 -0.9075
vn 0.5548 -0.0000 -0.8320
vn 0.6175 -0.0000 -0.7865
vt 0.483094 0.936386
vt 0.463590 0.921875
vt 0.463590 0.907364
vt 0.928125 0.489583
vt 0.978125 0.739583
vt 0.928125 0.739583
vt 0.928125 0.651042
vt 0.978125 0.901042
vt 0.928125 0.901042
vt 0.463729 0.937487
vt 0.463729 0.906263
vt 0.483181 0.906263
vt 0.593678 0.936386
vt 0.463729 0.921875
vt 0.833333 0.229167
vt 0.583333 0.208333
vt 0.833333 0.208333
vt 0.177908 0.007500
vt 0.160417 -0.045000
vt 0.160417 0.007500
vt 0.833334 0.416667
vt 1.000000 0.395833
vt 0.833333 0.395833
vt 0.177908 0.427500
vt 0.160417 0.480000
vt 0.160417 0.427500
vt 0.583333 0.229167
vt 0.833333 0.208333
vt 0.583333 0.208333
vt 4.097452 0.904381
vt 3.633497 0.947950
vt 3.635388 0.880892
vt 1.000000 0.229167
vt 0.833333 0.208333
vt 1.000000 0.208333
vt 0.468750 -0.076022
vt 0.437500 -0.031363
vt 0.468750 -0.031363
vt 0.277083 0.427500
vt 0.177908 0.480000
vt 0.437500 -0.076022
vt 0.468750 -0.031363
vt 0.437500 -0.031363
vt -0.000250 -0.067142
vt 0.156500 -0.123609
vt 0.156500 -0.067142
vt -0.000250 0.384592
vt 0.156500 0.441058
vt 0.156500 0.384592
vt 4.095560 0.971439
vt 3.635389 0.880892
vt 3.633497 0.947950
vt 0.177908 0.427500
vt 0.277083 0.480000
vt 0.277083 0.427500
vt 0.177908 -0.045000
vt 0.277083 0.007500
vt 0.277083 -0.045000
vt 0.277083 0.060000
vt 0.177908 0.060000
vt 0.277083 0.112500
vt 0.177908 0.112500
vt 0.277083 0.165000
vt 0.177908 0.165000
vt 0.277083 0.217500
vt 0.177908 0.217500
vt 0.277083 0.270000
vt 0.177908 0.270000
vt 0.277083 0.322500
vt 0.177908 0.322500
vt 0.277083 0.375000
vt 0.177908 0.375000
vt -0.063009 0.760040
vt -0.523180 0.669493
vt -0.525072 0.736551
vt 0.399054 0.783529
vt -0.061117 0.692982
vt 0.863010 0.739960
vt 0.400946 0.716471
vt 1.323181 0.830506
vt 0.861118 0.807018
vt 1.787136 0.786937
vt 1.325073 0.763448
vt 2.247307 0.877484
vt 1.785244 0.853995
vt 2.711262 0.833914
vt 2.249199 0.810426
vt 3.171434 0.924461
vt 2.709370 0.900973
vt 3.173326 0.857403
vt -0.000250 -0.123609
vt 0.156500 -0.067142
vt 0.156500 -0.123609
vt 0.156500 -0.010675
vt -0.000250 -0.010675
vt 0.156500 0.045791
vt -0.000250 0.045791
vt 0.156500 0.102258
vt -0.000250 0.102258
vt 0.156500 0.158725
vt -0.000250 0.158725
vt 0.156500 0.215192
vt -0.000250 0.215192
vt 0.156500 0.271658
vt -0.000250 0.271658
vt 0.156500 0.328125
vt -0.000250 0.328125
vt -0.000250 0.441058
vt 0.156500 0.215192
vt 0.156500 0.158725
vt 0.156500 0.102258
vt 0.156500 0.045791
vt 0.156500 -0.010675
vt 0.437500 0.325909
vt 0.468750 0.370568
vt 0.437500 0.370568
vt 0.437500 0.281250
vt 0.468750 0.325909
vt 0.437500 0.236591
vt 0.468750 0.281250
vt 0.468750 0.191932
vt 0.468750 0.236591
vt 0.437500 0.147273
vt 0.437500 0.191932
vt 0.437500 0.102614
vt 0.468750 0.147273
vt 0.437500 0.057955
vt 0.468750 0.102614
vt 0.437500 0.013296
vt 0.468750 0.057955
vt 0.468750 0.013296
vt 0.277083 -0.045000
vt 0.177908 0.007500
vt 0.177908 -0.045000
vt 0.277083 0.007500
vt 0.177908 0.060000
vt 0.277083 0.060000
vt 0.177908 0.112500
vt 0.277083 0.112500
vt 0.177908 0.165000
vt 0.277083 0.165000
vt 0.177908 0.217500
vt 0.277083 0.217500
vt 0.177908 0.270000
vt 0.277083 0.270000
vt 0.177908 0.322500
vt 0.277083 0.322500
vt 0.177908 0.375000
vt 0.277083 0.375000
vt 0.437500 0.281250
vt 0.437500 0.236591
vt 0.437500 0.147273
vt 0.437500 0.191932
vt 0.468750 0.147273
vt 0.437500 0.102614
vt 0.468750 0.057955
vt 0.468750 0.102614
vt 0.468750 0.013296
vt 0.437500 0.057955
vt 0.437500 0.013296
vt 1.000000 0.416667
vt 0.833333 0.395833
vt 1.000000 0.395833
vt 0.833333 0.375000
vt 1.000000 0.375000
vt 0.833333 0.354167
vt 1.000000 0.354167
vt 0.833333 0.333333
vt 1.000000 0.333333
vt 0.833333 0.312500
vt 1.000000 0.312500
vt 0.833333 0.291667
vt 1.000000 0.291667
vt 0.833333 0.270833
vt 1.000000 0.270833
vt 0.833333 0.250000
vt 1.000000 0.250000
vt -0.063009 0.760040
vt -0.061117 0.692982
vt 0.399054 0.783529
vt 0.863009 0.739960
vt 0.400946 0.716471
vt 1.323181 0.830507
vt 0.861118 0.807018
vt 1.787136 0.786937
vt 1.325073 0.763448
vt 2.247308 0.877484
vt 1.785244 0.853995
vt 2.711262 0.833915
vt 2.249199 0.810426
vt 3.171434 0.924461
vt 2.709371 0.900973
vt 3.173325 0.857403
vt 0.583333 0.416667
vt 0.583333 0.395833
vt 0.833333 0.375000
vt 0.583333 0.375000
vt 0.833333 0.354167
vt 0.583333 0.354167
vt 0.833333 0.333333
vt 0.583333 0.333333
vt 0.833333 0.312500
vt 0.583333 0.312500
vt 0.833333 0.291667
vt 0.583333 0.291667
vt 0.833333 0.270833
vt 0.583333 0.270833
vt 0.833333 0.250000
vt 0.583333 0.250000
vt 0.833333 0.229167
vt 0.177908 -0.045000
vt 0.160417 0.007500
vt 0.160417 -0.045000
vt 0.160417 0.060000
vt 0.160417 0.112500
vt 0.160417 0.165000
vt 0.160417 0.217500
vt 0.160417 0.270000
vt 0.160417 0.322500
vt 0.160417 0.375000
vt 1.000000 0.208333
vt 0.833333 0.208333
vt 1.000000 0.250000
vt 1.000000 0.270833
vt 1.000000 0.291667
vt 1.000000 0.312500
vt 1.000000 0.333333
vt 1.000000 0.354167
vt 1.000000 0.375000
vt 0.177908 0.480000
vt 0.160417 0.427500
vt 0.160417 0.480000
vt 0.160417 0.375000
vt 0.160417 0.322500
vt 0.160417 0.270000
vt 0.160417 0.217500
vt 0.160417 0.165000
vt 0.160417 0.112500
vt 0.160417 0.060000
vt 0.833333 0.416667
vt 0.593678 0.907364
vt 0.463590 0.936386
vt 0.978125 0.489583
vt 0.978125 0.651042
vt 0.593468 0.906263
vt 0.593468 0.937487
vt 0.177908 -0.045000
vt 1.000000 0.416667
vt 4.095561 0.971439
vt 0.437500 -0.076022
vt 0.468750 -0.076022
vt -0.000250 -0.123609
vt -0.000250 0.441058
vt 4.097452 0.904381
vt 0.833333 0.416667
vt 0.833333 0.416667
vt 0.583333 0.416667
s 0
f 16/1/1 24/2/1 26/3/1
f 23/4/1 26/5/1 24/6/1
f 1/7/2 3/8/2 2/9/2
f 5/10/2 7/11/2 9/12/2
f 19/2/1 20/1/1 17/13/1
f 18/5/1 23/4/1 19/6/1
f 3/8/2 4/7/2 2/9/2
f 14/12/2 4/14/2 10/10/2
f 110/15/3 3/16/3 5/17/3
f 38/18/4 21/19/4 47/20/4
f 18/21/3 145/22/3 56/23/3
f 73/24/4 7/25/4 128/26/4
f 29/27/3 10/28/3 3/29/3
f 24/30/5 136/31/5 154/32/5
f 119/33/3 5/34/3 6/35/3
f 15/36/6 109/37/6 145/38/6
f 82/39/4 9/40/4 73/24/4
f 25/41/7 127/42/7 74/43/7
f 92/44/4 24/45/4 154/46/4
f 100/47/4 4/48/4 91/49/4
f 21/50/8 83/51/8 47/52/8
f 46/53/4 13/54/4 101/55/4
f 20/56/4 109/57/4 17/58/4
f 38/18/4 108/59/4 109/57/4
f 39/60/4 107/61/4 108/59/4
f 40/62/4 106/63/4 107/61/4
f 41/64/4 105/65/4 106/63/4
f 42/66/4 104/67/4 105/65/4
f 43/68/4 103/69/4 104/67/4
f 44/70/4 102/71/4 103/69/4
f 45/72/4 101/55/4 102/71/4
f 55/73/9 4/74/9 12/75/9
f 54/76/10 91/77/10 55/73/10
f 54/76/11 89/78/11 90/79/11
f 52/80/12 89/78/12 53/81/12
f 52/80/13 87/82/13 88/83/13
f 50/84/14 87/82/14 51/85/14
f 50/84/15 85/86/15 86/87/15
f 48/88/16 85/86/16 49/89/16
f 47/52/17 84/90/17 48/88/17
f 23/91/4 83/92/4 19/93/4
f 92/44/4 84/94/4 83/92/4
f 93/95/4 85/96/4 84/94/4
f 94/97/4 86/98/4 85/96/4
f 95/99/4 87/100/4 86/98/4
f 96/101/4 88/102/4 87/100/4
f 97/103/4 89/104/4 88/102/4
f 98/105/4 90/106/4 89/104/4
f 99/107/4 91/49/4 90/106/4
f 2/108/4 146/49/4 1/48/4
f 100/47/4 147/106/4 146/49/4
f 99/107/4 148/104/4 147/106/4
f 98/105/4 149/109/4 148/104/4
f 97/103/4 150/110/4 149/109/4
f 96/101/4 151/111/4 150/110/4
f 95/99/4 152/112/4 151/111/4
f 94/97/4 153/113/4 152/112/4
f 93/95/4 154/46/4 153/113/4
f 82/114/18 6/115/18 8/116/18
f 81/117/19 119/118/19 82/114/19
f 80/119/20 120/120/20 81/117/20
f 80/119/21 122/121/21 121/122/21
f 78/123/22 122/121/22 79/124/22
f 77/125/23 123/126/23 78/123/23
f 76/127/15 124/128/15 77/125/15
f 75/129/24 125/130/24 76/127/24
f 75/129/25 127/42/25 126/131/25
f 25/132/4 65/133/4 16/134/4
f 74/135/4 66/136/4 65/133/4
f 75/137/4 67/138/4 66/136/4
f 76/139/4 68/140/4 67/138/4
f 77/141/4 69/142/4 68/140/4
f 78/143/4 70/144/4 69/142/4
f 79/145/4 71/146/4 70/144/4
f 80/147/4 72/148/4 71/146/4
f 81/149/4 73/24/4 72/148/4
f 137/118/26 13/116/26 11/115/26
f 138/120/27 101/114/27 137/118/27
f 139/122/28 102/150/28 138/120/28
f 140/121/29 103/151/29 139/122/29
f 140/121/30 105/152/30 104/153/30
f 141/154/31 106/155/31 105/152/31
f 143/156/32 106/155/32 142/157/32
f 144/158/33 107/159/33 143/156/33
f 144/158/34 109/37/34 108/160/34
f 27/161/3 118/162/3 127/163/3
f 127/163/3 117/164/3 126/165/3
f 126/165/3 116/166/3 125/167/3
f 125/167/3 115/168/3 124/169/3
f 124/169/3 114/170/3 123/171/3
f 123/171/3 113/172/3 122/173/3
f 122/173/3 112/174/3 121/175/3
f 121/175/3 111/176/3 120/177/3
f 120/177/3 110/15/3 119/33/3
f 1/74/35 128/178/35 7/75/35
f 146/179/36 129/180/36 128/178/36
f 148/181/37 129/180/37 147/182/37
f 148/181/38 131/183/38 130/184/38
f 150/185/39 131/183/39 149/186/39
f 150/185/40 133/187/40 132/188/40
f 152/189/32 133/187/32 151/190/32
f 152/189/41 135/191/41 134/192/41
f 154/32/42 135/191/42 153/193/42
f 28/194/3 56/23/3 37/195/3
f 37/195/3 57/196/3 36/197/3
f 36/197/3 58/198/3 35/199/3
f 35/199/3 59/200/3 34/201/3
f 34/201/3 60/202/3 33/203/3
f 33/203/3 61/204/3 32/205/3
f 32/205/3 62/206/3 31/207/3
f 31/207/3 63/208/3 30/209/3
f 30/209/3 64/210/3 29/27/3
f 16/211/4 136/212/4 22/213/4
f 65/133/4 135/214/4 136/212/4
f 66/136/4 134/215/4 135/214/4
f 67/138/4 133/216/4 134/215/4
f 68/140/4 132/217/4 133/216/4
f 69/142/4 131/218/4 132/217/4
f 70/144/4 130/219/4 131/218/4
f 71/146/4 129/220/4 130/219/4
f 72/148/4 128/26/4 129/220/4
f 64/210/3 11/221/3 10/222/3
f 63/208/3 137/33/3 64/210/3
f 62/206/3 138/223/3 63/208/3
f 61/204/3 139/224/3 62/206/3
f 60/202/3 140/225/3 61/204/3
f 59/200/3 141/226/3 60/202/3
f 58/198/3 142/227/3 59/200/3
f 57/196/3 143/228/3 58/198/3
f 56/23/3 144/229/3 57/196/3
f 14/230/4 55/231/4 12/232/4
f 46/53/4 54/233/4 55/231/4
f 45/72/4 53/234/4 54/233/4
f 44/70/4 52/235/4 53/234/4
f 43/68/4 51/236/4 52/235/4
f 42/66/4 50/237/4 51/236/4
f 41/64/4 49/238/4 50/237/4
f 40/62/4 48/239/4 49/238/4
f 39/60/4 47/20/4 48/239/4
f 26/240/3 37/195/3 118/162/3
f 118/162/3 36/197/3 117/164/3
f 117/164/3 35/199/3 116/166/3
f 116/166/3 34/201/3 115/168/3
f 115/168/3 33/203/3 114/170/3
f 114/170/3 32/205/3 113/172/3
f 113/172/3 31/207/3 112/174/3
f 112/174/3 30/209/3 111/176/3
f 111/176/3 29/27/3 110/15/3
f 26/3/1 27/241/1 25/13/1
f 16/1/1 22/242/1 24/2/1
f 26/3/1 25/13/1 16/1/1
f 23/4/1 28/243/1 26/5/1
f 1/7/2 5/244/2 3/8/2
f 8/245/2 6/246/2 5/10/2
f 5/10/2 1/14/2 7/11/2
f 9/12/2 8/245/2 5/10/2
f 17/13/1 15/241/1 18/3/1
f 19/2/1 21/242/1 20/1/1
f 17/13/1 18/3/1 19/2/1
f 18/5/1 28/243/1 23/4/1
f 3/8/2 10/244/2 4/7/2
f 10/10/2 11/246/2 13/245/2
f 14/12/2 12/11/2 4/14/2
f 10/10/2 13/245/2 14/12/2
f 110/15/3 29/27/3 3/16/3
f 38/18/4 20/247/4 21/19/4
f 18/21/3 15/248/3 145/22/3
f 73/24/4 9/40/4 7/25/4
f 29/27/3 64/210/3 10/28/3
f 24/30/5 22/249/5 136/31/5
f 119/33/3 110/15/3 5/34/3
f 15/36/6 17/250/6 109/37/6
f 82/39/4 8/54/4 9/40/4
f 25/41/7 27/251/7 127/42/7
f 92/44/4 23/252/4 24/45/4
f 100/47/4 2/253/4 4/48/4
f 21/50/8 19/254/8 83/51/8
f 46/53/4 14/40/4 13/54/4
f 20/56/4 38/18/4 109/57/4
f 38/18/4 39/60/4 108/59/4
f 39/60/4 40/62/4 107/61/4
f 40/62/4 41/64/4 106/63/4
f 41/64/4 42/66/4 105/65/4
f 42/66/4 43/68/4 104/67/4
f 43/68/4 44/70/4 103/69/4
f 44/70/4 45/72/4 102/71/4
f 45/72/4 46/53/4 101/55/4
f 55/73/9 91/77/9 4/74/9
f 54/76/10 90/79/10 91/77/10
f 54/76/11 53/81/11 89/78/11
f 52/80/12 88/83/12 89/78/12
f 52/80/13 51/85/13 87/82/13
f 50/84/14 86/87/14 87/82/14
f 50/84/15 49/89/15 85/86/15
f 48/88/16 84/90/16 85/86/16
f 47/52/17 83/51/17 84/90/17
f 23/91/4 92/44/4 83/92/4
f 92/44/4 93/95/4 84/94/4
f 93/95/4 94/97/4 85/96/4
f 94/97/4 95/99/4 86/98/4
f 95/99/4 96/101/4 87/100/4
f 96/101/4 97/103/4 88/102/4
f 97/103/4 98/105/4 89/104/4
f 98/105/4 99/107/4 90/106/4
f 99/107/4 100/47/4 91/49/4
f 2/108/4 100/47/4 146/49/4
f 100/47/4 99/107/4 147/106/4
f 99/107/4 98/105/4 148/104/4
f 98/105/4 97/103/4 149/109/4
f 97/103/4 96/101/4 150/110/4
f 96/101/4 95/99/4 151/111/4
f 95/99/4 94/97/4 152/112/4
f 94/97/4 93/95/4 153/113/4
f 93/95/4 92/44/4 154/46/4
f 82/114/18 119/118/18 6/115/18
f 81/117/19 120/120/19 119/118/19
f 80/119/20 121/122/20 120/120/20
f 80/119/21 79/124/21 122/121/21
f 78/123/22 123/126/22 122/121/22
f 77/125/23 124/128/23 123/126/23
f 76/127/15 125/130/15 124/128/15
f 75/129/24 126/131/24 125/130/24
f 75/129/25 74/43/25 127/42/25
f 25/132/4 74/135/4 65/133/4
f 74/135/4 75/137/4 66/136/4
f 75/137/4 76/139/4 67/138/4
f 76/139/4 77/141/4 68/140/4
f 77/141/4 78/143/4 69/142/4
f 78/143/4 79/145/4 70/144/4
f 79/145/4 80/147/4 71/146/4
f 80/147/4 81/149/4 72/148/4
f 81/149/4 82/39/4 73/24/4
f 137/118/26 101/114/26 13/116/26
f 138/120/27 102/150/27 101/114/27
f 139/122/28 103/151/28 102/150/28
f 140/121/29 104/153/29 103/151/29
f 140/121/30 141/154/30 105/152/30
f 141/154/31 142/157/31 106/155/31
f 143/156/32 107/159/32 106/155/32
f 144/158/33 108/160/33 107/159/33
f 144/158/34 145/38/34 109/37/34
f 27/161/3 26/255/3 118/162/3
f 127/163/3 118/162/3 117/164/3
f 126/165/3 117/164/3 116/166/3
f 125/167/3 116/166/3 115/168/3
f 124/169/3 115/168/3 114/170/3
f 123/171/3 114/170/3 113/172/3
f 122/173/3 113/172/3 112/174/3
f 121/175/3 112/174/3 111/176/3
f 120/177/3 111/176/3 110/15/3
f 1/74/35 146/179/35 128/178/35
f 146/179/36 147/182/36 129/180/36
f 148/181/37 130/184/37 129/180/37
f 148/181/38 149/186/38 131/183/38
f 150/185/39 132/188/39 131/183/39
f 150/185/40 151/190/40 133/187/40
f 152/189/32 134/192/32 133/187/32
f 152/189/41 153/193/41 135/191/41
f 154/32/42 136/31/42 135/191/42
f 28/194/3 18/256/3 56/23/3
f 37/195/3 56/23/3 57/196/3
f 36/197/3 57/196/3 58/198/3
f 35/199/3 58/198/3 59/200/3
f 34/201/3 59/200/3 60/202/3
f 33/203/3 60/202/3 61/204/3
f 32/205/3 61/204/3 62/206/3
f 31/207/3 62/206/3 63/208/3
f 30/209/3 63/208/3 64/210/3
f 16/211/4 65/133/4 136/212/4
f 65/133/4 66/136/4 135/214/4
f 66/136/4 67/138/4 134/215/4
f 67/138/4 68/140/4 133/216/4
f 68/140/4 69/142/4 132/217/4
f 69/142/4 70/144/4 131/218/4
f 70/144/4 71/146/4 130/219/4
f 71/146/4 72/148/4 129/220/4
f 72/148/4 73/24/4 128/26/4
f 64/210/3 137/33/3 11/221/3
f 63/208/3 138/223/3 137/33/3
f 62/206/3 139/224/3 138/223/3
f 61/204/3 140/225/3 139/224/3
f 60/202/3 141/226/3 140/225/3
f 59/200/3 142/227/3 141/226/3
f 58/198/3 143/228/3 142/227/3
f 57/196/3 144/229/3 143/228/3
f 56/23/3 145/22/3 144/229/3
f 14/230/4 46/53/4 55/231/4
f 46/53/4 45/72/4 54/233/4
f 45/72/4 44/70/4 53/234/4
f 44/70/4 43/68/4 52/235/4
f 43/68/4 42/66/4 51/236/4
f 42/66/4 41/64/4 50/237/4
f 41/64/4 40/62/4 49/238/4
f 40/62/4 39/60/4 48/239/4
f 39/60/4 38/18/4 47/20/4
f 26/240/3 28/257/3 37/195/3
f 118/162/3 37/195/3 36/197/3
f 117/164/3 36/197/3 35/199/3
f 116/166/3 35/199/3 34/201/3
f 115/168/3 34/201/3 33/203/3
f 114/170/3 33/203/3 32/205/3
f 113/172/3 32/205/3 31/207/3
f 112/174/3 31/207/3 30/209/3
f 111/176/3 30/209/3 29/27/3
