# Blender 4.3.2
# www.blender.org
o Cross_Intersection
v 5.000004 0.100000 -32.000000
v 29.000004 0.100000 -32.000000
v 5.000004 0.100000 -29.000000
v 29.000004 0.100000 -29.000000
v 5.000004 -0.100000 -32.000000
v 29.000004 -0.100000 -32.000000
v 5.000004 -0.100000 -29.000000
v 29.000004 -0.100000 -29.000000
v 5.000004 -0.100000 -34.000000
v 29.000004 -0.100000 -34.000000
v 29.000004 0.300000 -32.000000
v 5.000004 0.300000 -32.000000
v 29.000004 0.300000 -34.000000
v 5.000004 0.300000 -34.000000
v 5.000004 0.300000 -32.299854
v 29.000004 0.300000 -32.299854
v 5.000004 0.100000 -26.000000
v 29.000004 0.100000 -26.000000
v 5.000004 -0.100000 -26.000000
v 29.000004 -0.100000 -26.000000
v 5.000004 -0.100000 -24.000000
v 29.000004 -0.100000 -24.000000
v 29.000004 0.300000 -26.000000
v 5.000004 0.300000 -26.000000
v 29.000004 0.300000 -24.000000
v 5.000004 0.300000 -24.000000
v 5.000004 0.300000 -25.700146
v 29.000004 0.300000 -25.700146
v -2.999996 0.100000 -34.000000
v -2.999996 0.100000 -58.000000
v 0.000004 0.100000 -34.000000
v 0.000004 0.100000 -58.000000
v -2.999996 -0.100000 -34.000000
v -2.999996 -0.100000 -58.000000
v 0.000004 -0.100000 -34.000000
v 0.000004 -0.100000 -58.000000
v -4.999996 -0.100000 -34.000000
v -4.999996 -0.100000 -58.000000
v -2.999996 0.300000 -58.000000
v -2.999996 0.300000 -34.000000
v -4.999996 0.300000 -58.000000
v -4.999996 0.300000 -34.000000
v -3.299852 0.300000 -34.000000
v -3.299850 0.300000 -58.000000
v 3.000004 0.100000 -34.000000
v 3.000004 0.100000 -58.000000
v 3.000004 -0.100000 -34.000000
v 3.000004 -0.100000 -58.000000
v 5.000004 -0.100000 -34.000000
v 5.000004 -0.100000 -58.000000
v 3.000004 0.300000 -58.000000
v 3.000004 0.300000 -34.000000
v 5.000004 0.300000 -58.000000
v 5.000004 0.300000 -34.000000
v 3.299858 0.300000 -34.000000
v 3.299860 0.300000 -58.000000
v -4.999996 0.100000 -26.000000
v -28.999996 0.100000 -26.000004
v -4.999996 0.100000 -29.000000
v -28.999996 0.100000 -29.000004
v -4.999996 -0.100000 -26.000000
v -28.999996 -0.100000 -26.000004
v -4.999996 -0.100000 -29.000000
v -28.999996 -0.100000 -29.000004
v -4.999996 -0.100000 -24.000000
v -28.999996 -0.100000 -24.000004
v -28.999996 0.300000 -26.000004
v -4.999996 0.300000 -26.000000
v -28.999996 0.300000 -24.000004
v -4.999996 0.300000 -24.000000
v -4.999996 0.300000 -25.700146
v -28.999996 0.300000 -25.700150
v -4.999996 0.100000 -32.000000
v -28.999996 0.100000 -32.000004
v -4.999996 -0.100000 -32.000000
v -28.999996 -0.100000 -32.000004
v -4.999996 -0.100000 -34.000000
v -28.999996 -0.100000 -34.000004
v -28.999996 0.300000 -32.000004
v -4.999996 0.300000 -32.000000
v -28.999996 0.300000 -34.000004
v -4.999996 0.300000 -34.000000
v -4.999996 0.300000 -32.299854
v -28.999996 0.300000 -32.299858
v 3.000004 0.100000 -24.000000
v 3.000000 0.100000 0.000000
v 0.000004 0.100000 -24.000000
v 0.000000 0.100000 0.000000
v 3.000004 -0.100000 -24.000000
v 3.000000 -0.100000 0.000000
v 0.000004 -0.100000 -24.000000
v 0.000000 -0.100000 0.000000
v 5.000004 -0.100000 -24.000000
v 5.000000 -0.100000 0.000000
v 3.000000 0.300000 0.000000
v 3.000004 0.300000 -24.000000
v 5.000000 0.300000 0.000000
v 5.000004 0.300000 -24.000000
v 3.299860 0.300000 -24.000000
v 3.299854 0.300000 0.000000
v -2.999996 0.100000 -24.000000
v -3.000000 0.100000 0.000000
v -2.999996 -0.100000 -24.000000
v -3.000000 -0.100000 0.000000
v -4.999996 -0.100000 -24.000000
v -5.000000 -0.100000 0.000000
v -3.000000 0.300000 0.000000
v -2.999996 0.300000 -24.000000
v -5.000000 0.300000 0.000000
v -4.999996 0.300000 -24.000000
v -3.299850 0.300000 -24.000000
v -3.299856 0.300000 0.000000
v -5.009079 0.100000 -23.990917
v 5.009087 0.100000 -23.990917
v -5.009079 0.100000 -34.009083
v 5.009087 0.100000 -34.009083
v -5.009079 0.100000 -26.000511
v -5.009079 0.100000 -31.999489
v 5.009087 0.100000 -31.999489
v 5.009087 0.100000 -26.000511
v -2.999996 0.100000 -34.009083
v 3.000004 0.100000 -34.009083
v 3.000004 0.100000 -23.990917
v -2.999996 0.100000 -23.990917
v -5.009079 0.300000 -26.000511
v -5.009079 0.300000 -23.990917
v 5.009087 0.300000 -23.990917
v 5.009087 0.300000 -26.000511
v -5.009079 0.300000 -34.009083
v -5.009079 0.300000 -31.999489
v 5.009087 0.300000 -31.999489
v 5.009087 0.300000 -34.009083
v 3.000004 0.300000 -23.990917
v -2.999996 0.300000 -23.990917
v 3.000004 0.300000 -34.009083
v -2.999996 0.300000 -34.009083
v 4.903664 0.100000 -31.999489
v 3.000004 0.100000 -33.903149
v 1.096344 0.100000 -31.999489
v 3.000004 0.100000 -30.095831
v 4.175163 0.100000 -32.144398
v 3.557571 0.100000 -32.557060
v 3.144911 0.100000 -33.174652
v -2.999996 0.100000 -33.903149
v -4.903656 0.100000 -31.999489
v -2.999996 0.100000 -30.095831
v -1.096336 0.100000 -31.999489
v -3.144903 0.100000 -33.174652
v -3.557566 0.100000 -32.557060
v -4.175156 0.100000 -32.144398
v 3.000004 0.100000 -24.096851
v 4.903664 0.100000 -26.000511
v 3.000004 0.100000 -27.904169
v 1.096344 0.100000 -26.000511
v 3.144911 0.100000 -24.825350
v 3.557573 0.100000 -25.442942
v 4.175163 0.100000 -25.855602
v -4.903656 0.100000 -26.000511
v -2.999996 0.100000 -24.096851
v -1.096336 0.100000 -26.000511
v -2.999996 0.100000 -27.904169
v -4.175156 0.100000 -25.855602
v -3.557566 0.100000 -25.442942
v -3.144903 0.100000 -24.825350
v 4.903664 0.300000 -26.000511
v 3.000004 0.300000 -24.096851
v 4.175163 0.300000 -25.855602
v 3.557573 0.300000 -25.442942
v 3.144911 0.300000 -24.825350
v -2.999996 0.300000 -24.096851
v -4.903656 0.300000 -26.000511
v -3.144903 0.300000 -24.825350
v -3.557566 0.300000 -25.442942
v -4.175156 0.300000 -25.855602
v 3.000004 0.300000 -33.903149
v 4.903664 0.300000 -31.999489
v 3.144911 0.300000 -33.174652
v 3.557571 0.300000 -32.557060
v 4.175163 0.300000 -32.144398
v -4.903656 0.300000 -31.999489
v -2.999996 0.300000 -33.903149
v -4.175156 0.300000 -32.144398
v -3.557566 0.300000 -32.557060
v -3.144903 0.300000 -33.174652
vn 1.0000 -0.0000 -0.0000
vn -1.0000 -0.0000 -0.0000
vn -0.0000 -0.0000 -1.0000
vn -0.0000 -0.0000 1.0000
vn -0.0000 1.0000 -0.0000
vn -0.0000 -1.0000 -0.0000
vn 0.9808 -0.0000 0.1951
vn 0.8315 -0.0000 0.5556
vn 0.5556 -0.0000 0.8315
vn 0.1951 -0.0000 0.9808
vn -0.1951 -0.0000 0.9808
vn -0.5556 -0.0000 0.8315
vn -0.8315 -0.0000 0.5556
vn -0.9808 -0.0000 0.1951
vn -0.9808 -0.0000 -0.1951
vn -0.8315 -0.0000 -0.5556
vn -0.5556 -0.0000 -0.8315
vn -0.1951 -0.0000 -0.9808
vn 0.9808 -0.0000 -0.1951
vn 0.8315 -0.0000 -0.5556
vn 0.5556 -0.0000 -0.8315
vn 0.1951 -0.0000 -0.9808
vt 0.483094 0.936386
vt 0.463590 0.921875
vt 0.463590 0.907364
vt 0.928125 0.489583
vt 0.978125 0.739583
vt 0.928125 0.739583
vt 0.928125 0.651042
vt 0.978125 0.901042
vt 0.928125 0.901042
vt 0.437500 0.817158
vt 0.468750 -0.254658
vt 0.468750 0.817158
vt 0.463729 0.921875
vt 0.483181 0.906263
vt 0.593468 0.906263
vt 5.945705 0.998337
vt -5.145705 0.501663
vt -5.143813 0.434605
vt 0.160417 -0.255000
vt 0.177908 1.005000
vt 0.160417 1.005000
vt 1.000000 0.500000
vt 0.833333 0.000000
vt 1.000000 0.000000
vt 0.833333 0.500000
vt 0.583333 -0.000000
vt -0.000250 -0.349475
vt 0.156500 1.005725
vt -0.000250 1.005725
vt 0.277083 -0.255000
vt 0.277083 1.005000
vt 0.593678 0.936386
vt 0.463729 0.937487
vt 0.200616 0.548517
vt 0.195975 0.284439
vt 0.284416 0.368239
vt 0.107824 0.877770
vt 0.093852 0.870370
vt 0.107824 0.870370
vt 0.793735 0.778412
vt 0.779763 0.638019
vt 0.793735 0.638019
vt 0.191658 0.783670
vt 0.177686 0.776330
vt 0.191658 0.776330
vt 0.863597 0.778376
vt 0.849624 0.638019
vt 0.863597 0.638019
vt 0.177686 0.783695
vt 0.163713 0.776330
vt 0.177686 0.776330
vt 0.632340 0.548517
vt 0.548540 0.368239
vt 0.636981 0.284439
vt 0.093852 0.880572
vt 0.079880 0.873232
vt 0.093852 0.873232
vt 0.821680 0.778412
vt 0.807708 0.638019
vt 0.821680 0.638019
vt 0.861861 0.367356
vt 0.920120 0.357232
vt 0.779763 0.497626
vt 0.909997 0.555920
vt 0.838022 0.627895
vt 0.881168 0.115399
vt 0.920120 0.209439
vt 0.779763 0.216839
vt 0.807708 0.778412
vt 0.793735 0.638019
vt 0.807708 0.638019
vt 0.849624 0.778376
vt 0.835652 0.638019
vt 0.835652 0.778412
vt 0.877569 0.777909
vt 0.863597 0.638019
vt 0.877569 0.638019
vt 0.368216 0.284439
vt 0.464739 0.548517
vt 0.135769 0.783731
vt 0.121797 0.776330
vt 0.135769 0.776330
vt 0.548540 0.200638
vt 0.284416 0.195975
vt 0.891541 0.777909
vt 0.877569 0.638019
vt 0.891541 0.638019
vt 0.121796 0.877770
vt 0.121796 0.870370
vt 0.912755 0.357232
vt 0.818716 0.318280
vt 0.779763 0.224240
vt 0.149741 0.783731
vt 0.149741 0.776330
vt 0.163713 0.877735
vt 0.149741 0.870369
vt 0.163713 0.870369
vt 0.554919 0.600248
vt 0.548540 0.632317
vt 0.548540 0.464717
vt 0.232685 0.554896
vt 0.368216 0.548517
vt 0.600271 0.278060
vt 0.632340 0.284439
vt 0.464739 0.284439
vt 0.278037 0.232707
vt 0.284416 0.200638
vt 0.107824 0.819476
vt 0.093852 0.819476
vt 0.107824 0.776330
vt 0.177686 0.874222
vt 0.191658 0.833570
vt 0.191658 0.874222
vt 0.177686 0.833570
vt 0.093852 0.821682
vt 0.079880 0.821682
vt 0.093852 0.776330
vt 0.135769 0.877770
vt 0.149741 0.834624
vt 0.149741 0.877770
vt 0.135769 0.834624
vt 0.121796 0.819476
vt 0.121796 0.776330
vt 0.163713 0.877735
vt 0.177686 0.834589
vt 0.177686 0.877735
vt 0.163713 0.834589
vt 0.121797 0.834624
vt 0.121797 0.783731
vt 0.135769 0.834624
vt 0.121797 0.877770
vt 0.149741 0.819476
vt 0.163713 0.819476
vt 0.284416 0.636981
vt 0.593678 0.907364
vt 0.463590 0.936386
vt 0.978125 0.489583
vt 0.978125 0.651042
vt 0.437500 -0.254658
vt 0.593468 0.937487
vt 0.463729 0.906263
vt 5.943813 1.065395
vt 0.177908 -0.255000
vt 0.583333 0.500000
vt 0.156500 -0.349475
vt 0.284416 0.464717
vt 0.195975 0.548517
vt 0.200616 0.284439
vt 0.093852 0.877770
vt 0.779763 0.778412
vt 0.177686 0.783670
vt 0.163713 0.783695
vt 0.636981 0.548517
vt 0.079880 0.880572
vt 0.807708 0.778412
vt 0.779763 0.490225
vt 0.789886 0.439331
vt 0.818716 0.396185
vt 0.920120 0.497626
vt 0.920120 0.505026
vt 0.881168 0.599066
vt 0.787128 0.638019
vt 0.779763 0.076446
vt 0.787128 0.076446
vt 0.838022 0.086570
vt 0.909997 0.158545
vt 0.920120 0.216839
vt 0.835652 0.778376
vt 0.863597 0.777909
vt 0.548540 0.195975
vt 0.779763 0.216839
vt 0.920120 0.216839
vt 0.861861 0.347109
vt 0.789886 0.275134
vt 0.149741 0.877735
vt 0.600271 0.554896
vt 0.573084 0.573062
vt 0.284416 0.632317
vt 0.278037 0.600248
vt 0.259872 0.573062
vt 0.554919 0.232707
vt 0.573084 0.259894
vt 0.232685 0.278060
vt 0.259872 0.259894
vt 0.093852 0.776330
vt 0.079880 0.776330
vt 0.135769 0.877770
vt 0.548540 0.636981
s 0
f 16/1/1 2/2/1 6/3/1
f 4/4/1 6/5/1 2/6/1
f 1/7/2 7/8/2 3/9/2
f 14/10/3 10/11/3 9/12/3
f 1/13/2 15/14/2 14/15/2
f 2/16/4 12/17/4 1/18/4
f 11/19/5 15/20/5 12/21/5
f 10/22/6 5/23/6 9/24/6
f 6/25/6 7/26/6 5/23/6
f 4/27/5 1/28/5 3/29/5
f 15/20/5 13/30/5 14/31/5
f 18/2/1 28/1/1 25/32/1
f 20/5/1 4/4/1 18/6/1
f 7/8/2 17/7/2 3/9/2
f 22/11/4 26/10/4 21/12/4
f 27/14/2 17/13/2 19/33/2
f 24/17/3 18/16/3 17/18/3
f 27/20/5 23/19/5 24/21/5
f 19/23/6 22/22/6 21/24/6
f 7/26/6 20/25/6 19/23/6
f 17/28/5 4/27/5 3/29/5
f 25/30/5 27/20/5 26/31/5
f 44/1/3 30/2/3 34/3/3
f 32/4/3 34/5/3 30/6/3
f 29/7/4 35/8/4 31/9/4
f 42/10/2 38/11/2 37/12/2
f 29/13/4 43/14/4 42/15/4
f 30/16/1 40/17/1 29/18/1
f 39/19/5 43/20/5 40/21/5
f 38/22/6 33/23/6 37/24/6
f 34/25/6 35/26/6 33/23/6
f 32/27/5 29/28/5 31/29/5
f 43/20/5 41/30/5 42/31/5
f 46/2/3 56/1/3 53/32/3
f 48/5/3 32/4/3 46/6/3
f 35/8/4 45/7/4 31/9/4
f 50/11/1 54/10/1 49/12/1
f 55/14/4 45/13/4 47/33/4
f 52/17/2 46/16/2 45/18/2
f 55/20/5 51/19/5 52/21/5
f 47/23/6 50/22/6 49/24/6
f 35/26/6 48/25/6 47/23/6
f 45/28/5 32/27/5 31/29/5
f 53/30/5 55/20/5 54/31/5
f 72/1/2 58/2/2 62/3/2
f 60/4/2 62/5/2 58/6/2
f 57/7/1 63/8/1 59/9/1
f 70/10/4 66/11/4 65/12/4
f 57/13/1 71/14/1 70/15/1
f 58/16/3 68/17/3 57/18/3
f 67/19/5 71/20/5 68/21/5
f 66/22/6 61/23/6 65/24/6
f 62/25/6 63/26/6 61/23/6
f 60/27/5 57/28/5 59/29/5
f 71/20/5 69/30/5 70/31/5
f 74/2/2 84/1/2 81/32/2
f 76/5/2 60/4/2 74/6/2
f 63/8/1 73/7/1 59/9/1
f 78/11/3 82/10/3 77/12/3
f 83/14/1 73/13/1 75/33/1
f 80/17/4 74/16/4 73/18/4
f 83/20/5 79/19/5 80/21/5
f 75/23/6 78/22/6 77/24/6
f 63/26/6 76/25/6 75/23/6
f 73/28/5 60/27/5 59/29/5
f 81/30/5 83/20/5 82/31/5
f 100/1/4 86/2/4 90/3/4
f 88/4/4 90/5/4 86/6/4
f 85/7/3 91/8/3 87/9/3
f 98/10/1 94/11/1 93/12/1
f 85/13/3 99/14/3 98/15/3
f 86/16/2 96/17/2 85/18/2
f 95/19/5 99/20/5 96/21/5
f 94/22/6 89/23/6 93/24/6
f 90/25/6 91/26/6 89/23/6
f 88/27/5 85/28/5 87/29/5
f 99/20/5 97/30/5 98/31/5
f 102/2/4 112/1/4 109/32/4
f 104/5/4 88/4/4 102/6/4
f 91/8/3 101/7/3 87/9/3
f 106/11/2 110/10/2 105/12/2
f 111/14/3 101/13/3 103/33/3
f 108/17/1 102/16/1 101/18/1
f 111/20/5 107/19/5 108/21/5
f 103/23/6 106/22/6 105/24/6
f 91/26/6 104/25/6 103/23/6
f 101/28/5 88/27/5 87/29/5
f 109/30/5 111/20/5 110/31/5
f 145/34/5 117/35/5 161/36/5
f 121/37/1 181/38/1 144/39/1
f 120/40/1 127/41/1 114/42/1
f 145/43/4 130/44/4 118/45/4
f 122/46/3 132/47/3 116/48/3
f 152/49/3 128/50/3 120/51/3
f 137/52/5 153/53/5 120/54/5
f 119/55/4 176/56/4 137/57/4
f 113/58/2 125/59/2 117/60/2
f 179/61/5 131/62/5 135/63/5
f 172/64/5 174/65/5 125/41/5
f 183/66/5 181/67/5 129/68/5
f 118/69/2 129/70/2 115/71/2
f 115/72/3 136/73/3 121/47/3
f 116/74/1 131/60/1 119/73/1
f 114/75/4 133/76/4 123/77/4
f 160/78/5 153/53/5 139/79/5
f 159/80/1 134/81/1 124/82/1
f 151/83/5 160/78/5 124/84/5
f 124/85/4 126/86/4 113/87/4
f 123/88/2 166/39/2 151/89/2
f 165/90/5 168/91/5 166/92/5
f 138/93/2 135/82/2 122/94/2
f 117/95/3 171/96/3 158/97/3
f 143/98/5 138/99/5 140/100/5
f 150/101/5 145/34/5 147/102/5
f 157/103/5 152/104/5 154/105/5
f 164/106/5 159/107/5 161/36/5
f 181/38/7 148/108/7 144/39/7
f 184/109/8 149/110/8 148/108/8
f 183/111/9 150/112/9 149/113/9
f 182/114/10 145/43/10 150/112/10
f 176/56/11 141/115/11 137/57/11
f 179/116/12 142/117/12 141/115/12
f 178/118/13 143/119/13 142/120/13
f 177/121/14 138/93/14 143/119/14
f 166/39/15 155/122/15 151/89/15
f 169/108/16 156/123/16 155/122/16
f 168/124/17 157/125/17 156/126/17
f 167/127/18 152/49/18 157/125/18
f 159/80/19 172/128/19 170/129/19
f 164/130/20 173/131/20 172/128/20
f 163/50/21 174/132/21 173/94/21
f 162/133/22 171/96/22 174/132/22
f 138/99/5 121/134/5 147/102/5
f 6/3/1 10/135/1 13/32/1
f 16/1/1 11/136/1 2/2/1
f 6/3/1 13/32/1 16/1/1
f 4/4/1 8/137/1 6/5/1
f 1/7/2 5/138/2 7/8/2
f 14/10/3 13/139/3 10/11/3
f 14/15/2 9/140/2 5/33/2
f 1/13/2 12/141/2 15/14/2
f 14/15/2 5/33/2 1/13/2
f 2/16/4 11/142/4 12/17/4
f 11/19/5 16/143/5 15/20/5
f 10/22/6 6/25/6 5/23/6
f 6/25/6 8/144/6 7/26/6
f 4/27/5 2/145/5 1/28/5
f 15/20/5 16/143/5 13/30/5
f 25/32/1 22/135/1 20/3/1
f 18/2/1 23/136/1 28/1/1
f 25/32/1 20/3/1 18/2/1
f 20/5/1 8/137/1 4/4/1
f 7/8/2 19/138/2 17/7/2
f 22/11/4 25/139/4 26/10/4
f 19/33/2 21/140/2 26/15/2
f 27/14/2 24/141/2 17/13/2
f 19/33/2 26/15/2 27/14/2
f 24/17/3 23/142/3 18/16/3
f 27/20/5 28/143/5 23/19/5
f 19/23/6 20/25/6 22/22/6
f 7/26/6 8/144/6 20/25/6
f 17/28/5 18/145/5 4/27/5
f 25/30/5 28/143/5 27/20/5
f 34/3/3 38/135/3 41/32/3
f 44/1/3 39/136/3 30/2/3
f 34/3/3 41/32/3 44/1/3
f 32/4/3 36/137/3 34/5/3
f 29/7/4 33/138/4 35/8/4
f 42/10/2 41/139/2 38/11/2
f 42/15/4 37/140/4 33/33/4
f 29/13/4 40/141/4 43/14/4
f 42/15/4 33/33/4 29/13/4
f 30/16/1 39/142/1 40/17/1
f 39/19/5 44/143/5 43/20/5
f 38/22/6 34/25/6 33/23/6
f 34/25/6 36/144/6 35/26/6
f 32/27/5 30/145/5 29/28/5
f 43/20/5 44/143/5 41/30/5
f 53/32/3 50/135/3 48/3/3
f 46/2/3 51/136/3 56/1/3
f 53/32/3 48/3/3 46/2/3
f 48/5/3 36/137/3 32/4/3
f 35/8/4 47/138/4 45/7/4
f 50/11/1 53/139/1 54/10/1
f 47/33/4 49/140/4 54/15/4
f 55/14/4 52/141/4 45/13/4
f 47/33/4 54/15/4 55/14/4
f 52/17/2 51/142/2 46/16/2
f 55/20/5 56/143/5 51/19/5
f 47/23/6 48/25/6 50/22/6
f 35/26/6 36/144/6 48/25/6
f 45/28/5 46/145/5 32/27/5
f 53/30/5 56/143/5 55/20/5
f 62/3/2 66/135/2 69/32/2
f 72/1/2 67/136/2 58/2/2
f 62/3/2 69/32/2 72/1/2
f 60/4/2 64/137/2 62/5/2
f 57/7/1 61/138/1 63/8/1
f 70/10/4 69/139/4 66/11/4
f 70/15/1 65/140/1 61/33/1
f 57/13/1 68/141/1 71/14/1
f 70/15/1 61/33/1 57/13/1
f 58/16/3 67/142/3 68/17/3
f 67/19/5 72/143/5 71/20/5
f 66/22/6 62/25/6 61/23/6
f 62/25/6 64/144/6 63/26/6
f 60/27/5 58/145/5 57/28/5
f 71/20/5 72/143/5 69/30/5
f 81/32/2 78/135/2 76/3/2
f 74/2/2 79/136/2 84/1/2
f 81/32/2 76/3/2 74/2/2
f 76/5/2 64/137/2 60/4/2
f 63/8/1 75/138/1 73/7/1
f 78/11/3 81/139/3 82/10/3
f 75/33/1 77/140/1 82/15/1
f 83/14/1 80/141/1 73/13/1
f 75/33/1 82/15/1 83/14/1
f 80/17/4 79/142/4 74/16/4
f 83/20/5 84/143/5 79/19/5
f 75/23/6 76/25/6 78/22/6
f 63/26/6 64/144/6 76/25/6
f 73/28/5 74/145/5 60/27/5
f 81/30/5 84/143/5 83/20/5
f 90/3/4 94/135/4 97/32/4
f 100/1/4 95/136/4 86/2/4
f 90/3/4 97/32/4 100/1/4
f 88/4/4 92/137/4 90/5/4
f 85/7/3 89/138/3 91/8/3
f 98/10/1 97/139/1 94/11/1
f 98/15/3 93/140/3 89/33/3
f 85/13/3 96/141/3 99/14/3
f 98/15/3 89/33/3 85/13/3
f 86/16/2 95/142/2 96/17/2
f 95/19/5 100/143/5 99/20/5
f 94/22/6 90/25/6 89/23/6
f 90/25/6 92/144/6 91/26/6
f 88/27/5 86/145/5 85/28/5
f 99/20/5 100/143/5 97/30/5
f 109/32/4 106/135/4 104/3/4
f 102/2/4 107/136/4 112/1/4
f 109/32/4 104/3/4 102/2/4
f 104/5/4 92/137/4 88/4/4
f 91/8/3 103/138/3 101/7/3
f 106/11/2 109/139/2 110/10/2
f 103/33/3 105/140/3 110/15/3
f 111/14/3 108/141/3 101/13/3
f 103/33/3 110/15/3 111/14/3
f 108/17/1 107/142/1 102/16/1
f 111/20/5 112/143/5 107/19/5
f 103/23/6 104/25/6 106/22/6
f 91/26/6 92/144/6 104/25/6
f 101/28/5 102/145/5 88/27/5
f 109/30/5 112/143/5 111/20/5
f 161/36/5 146/146/5 145/34/5
f 145/34/5 118/147/5 117/35/5
f 117/35/5 158/148/5 161/36/5
f 121/37/1 136/149/1 181/38/1
f 120/40/1 128/150/1 127/41/1
f 145/43/4 180/151/4 130/44/4
f 122/46/3 135/72/3 132/47/3
f 152/49/3 165/152/3 128/50/3
f 120/54/5 119/153/5 137/52/5
f 137/52/5 140/100/5 153/53/5
f 153/53/5 152/104/5 120/54/5
f 119/55/4 131/154/4 176/56/4
f 113/58/2 126/155/2 125/59/2
f 135/63/5 175/156/5 177/157/5
f 177/157/5 178/158/5 179/61/5
f 179/61/5 176/90/5 131/62/5
f 131/62/5 132/159/5 135/63/5
f 135/63/5 177/157/5 179/61/5
f 125/41/5 126/63/5 134/159/5
f 134/159/5 170/160/5 172/64/5
f 172/64/5 173/161/5 174/65/5
f 174/65/5 171/162/5 125/41/5
f 125/41/5 134/159/5 172/64/5
f 129/68/5 130/163/5 180/164/5
f 180/164/5 182/165/5 183/66/5
f 183/66/5 184/166/5 181/67/5
f 181/67/5 136/167/5 129/68/5
f 129/68/5 180/164/5 183/66/5
f 118/69/2 130/40/2 129/70/2
f 115/72/3 129/168/3 136/73/3
f 116/74/1 132/58/1 131/60/1
f 114/75/4 127/169/4 133/76/4
f 139/79/5 147/102/5 146/146/5
f 146/146/5 161/36/5 160/78/5
f 160/78/5 154/105/5 153/53/5
f 153/53/5 140/100/5 139/79/5
f 139/79/5 146/146/5 160/78/5
f 159/80/1 170/129/1 134/81/1
f 124/84/5 123/170/5 151/83/5
f 151/83/5 154/105/5 160/78/5
f 160/78/5 159/107/5 124/84/5
f 124/85/4 134/75/4 126/86/4
f 123/88/2 133/37/2 166/39/2
f 166/92/5 133/171/5 127/172/5
f 127/172/5 128/62/5 165/90/5
f 165/90/5 167/173/5 168/91/5
f 168/91/5 169/174/5 166/92/5
f 166/92/5 127/172/5 165/90/5
f 138/93/2 175/80/2 135/82/2
f 117/95/3 125/175/3 171/96/3
f 140/100/5 137/52/5 141/176/5
f 140/100/5 141/176/5 142/177/5
f 138/99/5 139/79/5 140/100/5
f 140/100/5 142/177/5 143/98/5
f 147/102/5 144/178/5 148/179/5
f 147/102/5 148/179/5 149/180/5
f 145/34/5 146/146/5 147/102/5
f 147/102/5 149/180/5 150/101/5
f 154/105/5 151/83/5 155/181/5
f 154/105/5 155/181/5 156/182/5
f 152/104/5 153/53/5 154/105/5
f 154/105/5 156/182/5 157/103/5
f 161/36/5 158/148/5 162/183/5
f 161/36/5 162/183/5 163/184/5
f 159/107/5 160/78/5 161/36/5
f 161/36/5 163/184/5 164/106/5
f 181/38/7 184/109/7 148/108/7
f 184/109/8 183/185/8 149/110/8
f 183/111/9 182/114/9 150/112/9
f 182/114/10 180/151/10 145/43/10
f 176/56/11 179/116/11 141/115/11
f 179/116/12 178/186/12 142/117/12
f 178/118/13 177/121/13 143/119/13
f 177/121/14 175/80/14 138/93/14
f 166/39/15 169/108/15 155/122/15
f 169/108/16 168/110/16 156/123/16
f 168/124/17 167/127/17 157/125/17
f 167/127/18 165/152/18 152/49/18
f 159/80/19 164/130/19 172/128/19
f 164/130/20 163/187/20 173/131/20
f 163/50/21 162/133/21 174/132/21
f 162/133/22 158/97/22 171/96/22
f 147/102/5 139/79/5 138/99/5
f 138/99/5 122/188/5 121/134/5
f 121/134/5 144/178/5 147/102/5
