# Blender 4.3.0
# www.blender.org
o Cross_Intersection_noSide
v 90.091705 -0.000337 24.999989
v 88.188049 -0.000337 27.999477
v 90.091705 -0.000337 26.095819
v 91.442810 -0.000337 28.320850
v 90.825226 -0.000337 28.733511
v 90.412560 -0.000337 29.351103
v 91.091705 -0.022909 29.947437
v 91.163826 -0.022909 29.584866
v 91.369209 -0.022909 29.277493
v 91.676582 -0.022909 29.072109
v 92.039154 -0.022909 28.999989
v 89.814034 -0.001890 29.566534
v 91.658379 -0.000337 27.722240
v 89.907028 -0.001738 29.146801
v 90.442291 -0.000219 28.350569
v 91.243362 -0.000219 27.815308
v 92.091705 -0.200337 27.999989
v 92.091705 -0.000337 27.627396
v 87.128960 -0.200337 29.999989
v 90.091705 -0.200337 29.999989
v 91.091705 -0.200337 29.999987
v 87.128960 -0.000787 29.995831
v 87.128960 -0.000337 24.999989
v 87.128960 -0.000337 27.999477
v 92.085464 0.000000 24.999989
v 118.085464 0.000000 24.999989
v 92.085464 -0.200000 24.999989
v 118.085464 -0.200000 24.999989
v 118.085464 -0.200000 28.000000
v 118.085464 -0.200000 30.000000
v 92.085464 -0.022572 29.000000
v 118.085464 -0.022572 29.000000
v 118.085464 -0.200000 29.000000
v 92.085464 -0.200000 29.000000
v 118.085464 -0.104114 30.000000
v 92.085464 -0.003972 28.175953
v 118.085464 0.000000 27.627407
v 118.085464 -0.003972 28.175953
v 118.085464 -0.058785 28.000000
v 87.128960 -0.001011 55.993748
v 87.128960 -0.201011 55.993748
v 90.085464 -0.201011 55.993748
v 92.085457 -0.201011 29.993750
v 92.085464 -0.201011 55.993748
v 91.085457 -0.023583 29.993750
v 91.085464 -0.023583 55.993748
v 91.085464 -0.201011 55.993748
v 92.085457 -0.105125 29.993750
v 92.085464 -0.105125 55.993748
v 90.261406 -0.004983 29.993752
v 89.712860 -0.001011 29.993752
v 89.712868 -0.001011 55.993748
v 90.261414 -0.004983 55.993748
v 90.085464 -0.059796 55.993748
v 84.166214 -0.000337 24.999989
v 86.069870 -0.000337 27.999477
v 84.166214 -0.000337 26.095819
v 82.815109 -0.000337 28.320850
v 83.432693 -0.000337 28.733511
v 83.845360 -0.000337 29.351103
v 83.166214 -0.022909 29.947437
v 83.094093 -0.022909 29.584866
v 82.888710 -0.022909 29.277493
v 82.581337 -0.022909 29.072109
v 82.218765 -0.022909 28.999989
v 84.443886 -0.001890 29.566534
v 82.599541 -0.000337 27.722240
v 84.350891 -0.001738 29.146801
v 83.815628 -0.000219 28.350569
v 83.014557 -0.000219 27.815308
v 82.166214 -0.200337 27.999989
v 82.166214 -0.000337 27.627396
v 84.166214 -0.200337 29.999989
v 83.166214 -0.200337 29.999987
v 82.172455 0.000000 24.999989
v 56.172455 0.000000 24.999989
v 82.172455 -0.200000 24.999989
v 56.172455 -0.200000 24.999989
v 56.172455 -0.200000 28.000000
v 56.172455 -0.200000 30.000000
v 82.172455 -0.022572 29.000000
v 56.172455 -0.022572 29.000000
v 56.172455 -0.200000 29.000000
v 82.172455 -0.200000 29.000000
v 56.172455 -0.104114 30.000000
v 82.172455 -0.003972 28.175953
v 56.172455 0.000000 27.627407
v 56.172455 -0.003972 28.175953
v 56.172455 -0.058785 28.000000
v 84.172455 -0.201011 55.993748
v 82.172462 -0.201011 29.993750
v 82.172455 -0.201011 55.993748
v 83.172462 -0.023583 29.993750
v 83.172455 -0.023583 55.993748
v 83.172455 -0.201011 55.993748
v 82.172462 -0.105125 29.993750
v 82.172455 -0.105125 55.993748
v 83.996513 -0.004983 29.993752
v 84.545059 -0.001011 29.993752
v 84.545052 -0.001011 55.993748
v 83.996506 -0.004983 55.993748
v 84.172455 -0.059796 55.993748
v 88.188049 -0.000337 22.000500
v 90.091705 -0.000337 23.904158
v 91.442810 -0.000337 21.679127
v 90.825226 -0.000337 21.266466
v 90.412560 -0.000337 20.648874
v 91.091705 -0.022909 20.052540
v 91.163826 -0.022909 20.415112
v 91.369209 -0.022909 20.722485
v 91.676582 -0.022909 20.927868
v 92.039154 -0.022909 20.999989
v 89.814034 -0.001890 20.433443
v 91.658379 -0.000337 22.277737
v 89.907028 -0.001738 20.853176
v 90.442291 -0.000219 21.649408
v 91.243362 -0.000219 22.184669
v 92.091705 -0.200337 21.999989
v 92.091705 -0.000337 22.372581
v 87.128960 -0.200337 19.999989
v 90.091705 -0.200337 19.999989
v 91.091705 -0.200337 19.999990
v 87.128960 -0.000337 19.999989
v 87.128960 -0.000337 22.000500
v 118.085464 -0.200000 21.999977
v 118.085464 -0.200000 19.999977
v 92.085464 -0.022572 20.999977
v 118.085464 -0.022572 20.999977
v 118.085464 -0.200000 20.999977
v 92.085464 -0.200000 20.999977
v 118.085464 -0.104114 19.999977
v 92.085464 -0.003972 21.824024
v 118.085464 0.000000 22.372570
v 118.085464 -0.003972 21.824024
v 118.085464 -0.058785 21.999977
v 87.128960 -0.001011 -5.993771
v 87.128960 -0.201011 -5.993771
v 90.085464 -0.201011 -5.993771
v 92.085457 -0.201011 20.006227
v 92.085464 -0.201011 -5.993771
v 91.085457 -0.023583 20.006227
v 91.085464 -0.023583 -5.993771
v 91.085464 -0.201011 -5.993771
v 92.085457 -0.105125 20.006227
v 92.085464 -0.105125 -5.993771
v 90.261406 -0.004983 20.006226
v 89.712860 -0.001011 20.006226
v 89.712868 -0.001011 -5.993771
v 90.261414 -0.004983 -5.993771
v 90.085464 -0.059796 -5.993771
v 86.069870 -0.000337 22.000500
v 84.166214 -0.000337 23.904158
v 82.815109 -0.000337 21.679127
v 83.432693 -0.000337 21.266466
v 83.845360 -0.000337 20.648874
v 83.166214 -0.022909 20.052540
v 83.094093 -0.022909 20.415112
v 82.888710 -0.022909 20.722485
v 82.581337 -0.022909 20.927868
v 82.218765 -0.022909 20.999989
v 84.443886 -0.001890 20.433443
v 82.599541 -0.000337 22.277737
v 84.350891 -0.001738 20.853176
v 83.815628 -0.000219 21.649408
v 83.014557 -0.000219 22.184669
v 82.166214 -0.200337 21.999989
v 82.166214 -0.000337 22.372581
v 84.166214 -0.200337 19.999989
v 83.166214 -0.200337 19.999990
v 56.172455 -0.200000 21.999977
v 56.172455 -0.200000 19.999977
v 82.172455 -0.022572 20.999977
v 56.172455 -0.022572 20.999977
v 56.172455 -0.200000 20.999977
v 82.172455 -0.200000 20.999977
v 56.172455 -0.104114 19.999977
v 82.172455 -0.003972 21.824024
v 56.172455 0.000000 22.372570
v 56.172455 -0.003972 21.824024
v 56.172455 -0.058785 21.999977
v 84.172455 -0.201011 -5.993771
v 82.172462 -0.201011 20.006227
v 82.172455 -0.201011 -5.993771
v 83.172462 -0.023583 20.006227
v 83.172455 -0.023583 -5.993771
v 83.172455 -0.201011 -5.993771
v 82.172462 -0.105125 20.006227
v 82.172455 -0.105125 -5.993771
v 83.996513 -0.004983 20.006226
v 84.545059 -0.001011 20.006226
v 84.545052 -0.001011 -5.993771
v 83.996506 -0.004983 -5.993771
v 84.172455 -0.059796 -5.993771
vn -0.0048 1.0000 -0.0039
vn 0.0072 1.0000 -0.0003
vn 0.0809 0.9962 0.0335
vn 0.0015 1.0000 0.0066
vn -0.0000 1.0000 -0.0000
vn 0.0229 0.9995 0.0229
vn -0.0024 1.0000 0.0003
vn 0.0001 1.0000 0.0003
vn 1.0000 -0.0000 -0.0000
vn -0.0000 -1.0000 -0.0000
vn -0.0000 -1.0000 0.0003
vn -0.0000 0.9997 0.0226
vn -0.0000 0.9966 0.0828
vn -0.0002 -0.0000 1.0000
vn -0.0000 1.0000 0.0072
vn -0.0000 1.0000 0.0001
vn -0.0000 -0.0000 1.0000
vn -0.0007 -1.0000 -0.0000
vn 0.0226 0.9997 -0.0000
vn 0.0813 0.9967 -0.0000
vn 0.0072 1.0000 -0.0000
vn 0.0001 1.0000 -0.0000
vn 0.0007 1.0000 0.0010
vn -0.0072 1.0000 -0.0003
vn -0.0015 1.0000 0.0066
vn -0.0255 0.9993 0.0255
vn -0.0006 1.0000 0.0005
vn -0.0000 1.0000 0.0003
vn -1.0000 -0.0000 -0.0000
vn -0.0000 -1.0000 -0.0010
vn -0.0000 -1.0000 -0.0001
vn 0.0002 -0.0000 1.0000
vn 0.0007 -1.0000 -0.0000
vn -0.0226 0.9997 -0.0000
vn -0.0813 0.9967 -0.0000
vn -0.0072 1.0000 -0.0000
vn -0.0007 1.0000 -0.0010
vn 0.0072 1.0000 0.0003
vn 0.0015 1.0000 -0.0066
vn 0.0255 0.9993 -0.0255
vn 0.0006 1.0000 -0.0005
vn -0.0000 1.0000 -0.0003
vn -0.0000 -1.0000 0.0010
vn -0.0000 -1.0000 -0.0003
vn -0.0000 -1.0000 0.0001
vn -0.0000 0.9997 -0.0226
vn -0.0000 0.9966 -0.0828
vn -0.0002 -0.0000 -1.0000
vn -0.0000 1.0000 -0.0072
vn -0.0000 1.0000 -0.0001
vn -0.0000 -0.0000 -1.0000
vn 0.0048 1.0000 0.0039
vn -0.0072 1.0000 0.0003
vn -0.0809 0.9962 -0.0335
vn -0.0015 1.0000 -0.0066
vn -0.0229 0.9995 -0.0229
vn 0.0024 1.0000 -0.0003
vn -0.0003 1.0000 -0.0001
vn 0.0002 -0.0000 -1.0000
vn -0.0003 1.0000 -0.0000
vn 0.0062 1.0000 0.0022
vn 0.0004 1.0000 0.0006
vn -0.0034 1.0000 -0.0004
vn -0.0034 1.0000 -0.0023
vn 0.0011 1.0000 0.0019
vn -0.0073 0.9965 0.0828
vn 0.0812 0.9964 0.0255
vn 0.0335 0.9962 0.0809
vn 0.0226 0.9997 0.0125
vn 0.0183 0.9997 0.0170
vn 0.0107 0.9997 0.0226
vn -0.0073 0.9992 0.0396
vn 0.0283 0.9996 0.0056
vn 0.0249 0.9996 0.0166
vn 0.0056 0.9996 0.0283
vn 0.0266 0.9989 0.0399
vn 0.0002 1.0000 -0.0002
vn 0.0005 1.0000 0.0005
vn 0.0006 1.0000 0.0005
vn -0.0002 1.0000 0.0001
vn 0.0024 1.0000 -0.0015
vn -0.0000 1.0000 0.0002
vn -0.0001 0.9967 0.0813
vn -0.0000 1.0000 0.0066
vn -0.0062 1.0000 0.0022
vn -0.0004 1.0000 0.0006
vn 0.0034 1.0000 -0.0004
vn 0.0034 1.0000 -0.0023
vn 0.0073 0.9965 0.0828
vn -0.0812 0.9964 0.0255
vn -0.0786 0.9938 0.0786
vn -0.0226 0.9997 0.0125
vn -0.0107 0.9997 0.0226
vn 0.0073 0.9992 0.0396
vn -0.0183 0.9997 0.0170
vn -0.0283 0.9996 0.0056
vn -0.0056 0.9996 0.0283
vn -0.0249 0.9996 0.0166
vn -0.0166 0.9996 0.0249
vn -0.0002 1.0000 -0.0002
vn -0.0005 1.0000 0.0005
vn 0.0024 1.0000 0.0003
vn 0.0002 1.0000 0.0001
vn -0.0024 1.0000 -0.0015
vn -0.0001 1.0000 0.0002
vn 0.0001 0.9967 0.0813
vn -0.0001 1.0000 -0.0000
vn 0.0062 1.0000 -0.0022
vn 0.0004 1.0000 -0.0006
vn -0.0034 1.0000 0.0004
vn 0.0002 1.0000 -0.0001
vn -0.0034 1.0000 0.0023
vn -0.0073 0.9965 -0.0828
vn 0.0812 0.9964 -0.0255
vn 0.0786 0.9938 -0.0786
vn 0.0226 0.9997 -0.0125
vn 0.0107 0.9997 -0.0226
vn -0.0073 0.9992 -0.0396
vn 0.0183 0.9997 -0.0170
vn 0.0283 0.9996 -0.0056
vn 0.0056 0.9996 -0.0283
vn 0.0249 0.9996 -0.0166
vn 0.0166 0.9996 -0.0249
vn 0.0002 1.0000 0.0002
vn 0.0005 1.0000 -0.0005
vn -0.0024 1.0000 -0.0003
vn -0.0002 1.0000 -0.0001
vn 0.0024 1.0000 0.0015
vn 0.0003 1.0000 -0.0000
vn -0.0001 0.9967 -0.0813
vn -0.0000 1.0000 -0.0066
vn -0.0062 1.0000 -0.0022
vn -0.0004 1.0000 -0.0006
vn 0.0034 1.0000 0.0004
vn 0.0034 1.0000 0.0023
vn -0.0011 1.0000 -0.0019
vn 0.0073 0.9965 -0.0828
vn -0.0812 0.9964 -0.0255
vn -0.0335 0.9962 -0.0809
vn -0.0226 0.9997 -0.0125
vn -0.0183 0.9997 -0.0170
vn -0.0107 0.9997 -0.0226
vn 0.0073 0.9992 -0.0396
vn -0.0283 0.9996 -0.0056
vn -0.0249 0.9996 -0.0166
vn -0.0056 0.9996 -0.0283
vn -0.0266 0.9989 -0.0399
vn -0.0002 1.0000 0.0002
vn -0.0005 1.0000 -0.0005
vn -0.0006 1.0000 -0.0005
vn -0.0024 1.0000 0.0015
vn 0.0001 0.9967 -0.0813
vn 0.0007 -1.0000 -0.0010
vn 0.0539 -0.9985 -0.0000
vn 0.0007 -1.0000 0.0010
vn -0.0007 -1.0000 0.0010
vn -0.0539 -0.9985 -0.0000
vn -0.0007 -1.0000 -0.0010
vn -0.0003 -1.0000 -0.0000
vn 0.0003 -1.0000 -0.0000
vt 0.560057 0.205282
vt 0.594195 0.055519
vt 0.569894 0.128748
vt 0.557992 0.048128
vt 0.585340 0.030934
vt 0.328072 0.127756
vt 0.395067 0.100021
vt 0.400329 0.200236
vt 0.541426 0.223594
vt 0.524230 0.196246
vt 0.233881 0.515428
vt 0.323005 0.375000
vt 0.184297 0.375000
vt 0.307534 0.158477
vt 0.232403 0.135044
vt 0.335429 0.032074
vt 0.323005 0.426304
vt 0.314353 0.569059
vt 0.339396 0.531842
vt 0.396215 0.502447
vt 0.416637 0.498008
vt 0.184297 0.609030
vt 0.305560 0.608928
vt 0.463590 0.907364
vt 0.475034 0.921587
vt 0.528634 0.920237
vt 1.000000 -0.020833
vt 0.916667 0.520833
vt 1.000000 0.520833
vt 0.528634 0.907364
vt 0.593678 0.914321
vt 0.593678 0.907364
vt 0.833333 -0.020833
vt 0.916667 -0.020833
vt 0.583333 0.520833
vt 0.833333 0.520833
vt 2.293905 -0.111756
vt -2.018335 0.986002
vt 2.259196 -0.233501
vt 2.337168 0.039993
vt -1.983626 1.107747
vt 0.468750 -0.299317
vt 0.461259 0.861817
vt 0.468750 0.861817
vt 0.942821 0.739583
vt 0.978125 0.489583
vt 0.928125 0.489583
vt 0.456992 0.921875
vt 0.463590 0.917610
vt 0.137032 1.062192
vt 0.170806 -0.404391
vt 0.137032 -0.405942
vt -0.000250 -0.405942
vt -0.000250 1.062192
vt 0.583333 -0.020833
vt 0.978125 0.739583
vt 0.600990 0.135836
vt 0.300322 0.194715
vt 0.310004 0.588655
vt 0.184297 0.515428
vt 0.552039 0.168681
vt 0.577830 0.187633
vt 0.602716 0.079361
vt 0.571108 0.085022
vt 0.300322 0.199967
vt 0.358810 0.107229
vt 0.400322 0.100021
vt 0.400699 0.017606
vt 0.273669 0.073318
vt 0.217908 0.199528
vt 0.376838 0.506800
vt 0.416639 0.375000
vt -1.940363 1.259496
vt 0.461259 -0.299317
vt 0.928125 0.708534
vt 0.170806 1.063742
s 0
f 13/1/1 12/2/1 5/3/1
f 50/4/2 12/2/2 51/5/2
f 9/6/3 7/7/3 48/8/3
f 18/9/4 13/1/4 36/10/4
f 2/11/5 1/12/5 23/13/5
f 10/14/6 4/15/6 6/16/6
f 3/17/7 14/18/7 15/19/7
f 1/12/5 13/20/5 18/21/5
f 2/11/8 22/22/8 51/23/8
f 29/24/9 38/25/9 32/26/9
f 43/27/10 33/28/10 30/29/10
f 33/30/9 35/31/9 30/32/9
f 17/33/11 33/28/11 34/34/11
f 17/33/10 28/35/10 29/36/10
f 31/37/12 38/38/12 36/39/12
f 48/40/13 32/41/13 31/37/13
f 30/42/14 48/43/14 43/44/14
f 39/45/9 28/46/9 26/47/9
f 37/48/9 38/25/9 39/49/9
f 18/50/15 38/51/15 37/52/15
f 18/50/16 26/53/16 25/54/16
f 46/26/17 54/49/17 42/24/17
f 44/29/18 21/34/18 43/27/18
f 49/31/17 47/30/17 44/32/17
f 47/28/10 20/33/10 21/34/10
f 42/36/10 19/55/10 20/33/10
f 53/38/19 45/37/19 50/39/19
f 46/41/20 48/40/20 45/37/20
f 48/43/9 44/42/9 43/44/9
f 40/47/17 42/56/17 54/45/17
f 52/48/17 54/49/17 53/25/17
f 53/51/21 51/50/21 52/52/21
f 22/54/22 52/52/22 51/50/22
f 59/3/23 66/2/23 69/57/23
f 98/4/24 99/5/24 66/2/24
f 61/7/5 63/6/5 65/58/5
f 72/9/25 86/10/25 67/1/25
f 23/13/5 57/17/5 56/11/5
f 60/16/26 58/15/26 63/6/26
f 68/18/27 66/59/27 57/17/27
f 72/21/5 57/17/5 55/12/5
f 99/23/28 24/60/28 56/11/28
f 82/26/29 89/49/29 79/24/29
f 91/27/30 83/28/30 84/34/30
f 85/31/29 83/30/29 80/32/29
f 83/28/11 71/33/11 84/34/11
f 71/33/31 78/35/31 77/55/31
f 88/38/12 81/37/12 86/39/12
f 82/41/13 96/40/13 81/37/13
f 96/43/32 80/42/32 91/44/32
f 76/47/29 79/56/29 89/45/29
f 87/48/29 89/49/29 88/25/29
f 88/51/15 72/50/15 87/52/15
f 76/53/16 72/50/16 75/54/16
f 90/24/17 101/25/17 94/26/17
f 74/34/33 92/29/33 91/27/33
f 95/30/17 97/31/17 92/32/17
f 73/33/10 95/28/10 74/34/10
f 19/55/10 90/36/10 73/33/10
f 93/37/34 101/38/34 98/39/34
f 96/40/35 94/41/35 93/37/35
f 92/42/29 96/43/29 91/44/29
f 102/45/17 41/46/17 40/47/17
f 100/48/17 101/25/17 102/49/17
f 99/50/36 101/51/36 100/52/36
f 22/54/5 100/52/5 40/53/5
f 106/3/37 113/2/37 116/57/37
f 146/4/38 147/5/38 113/2/38
f 108/7/5 110/6/5 112/58/5
f 119/9/39 132/10/39 114/1/39
f 23/13/5 104/17/5 103/11/5
f 107/16/40 105/15/40 110/6/40
f 115/18/41 113/59/41 104/17/41
f 119/21/5 104/17/5 1/12/5
f 147/23/42 124/60/42 103/11/42
f 128/26/9 135/49/9 125/24/9
f 139/27/43 129/28/43 130/34/43
f 131/31/9 129/30/9 126/32/9
f 129/28/44 118/33/44 130/34/44
f 118/33/45 28/35/45 27/55/45
f 134/38/46 127/37/46 132/39/46
f 128/41/47 144/40/47 127/37/47
f 144/43/48 126/42/48 139/44/48
f 26/47/9 125/56/9 135/45/9
f 133/48/9 135/49/9 134/25/9
f 134/51/49 119/50/49 133/52/49
f 26/53/50 119/50/50 25/54/50
f 138/24/51 149/25/51 142/26/51
f 122/34/18 140/29/18 139/27/18
f 143/30/51 145/31/51 140/32/51
f 121/33/10 143/28/10 122/34/10
f 120/55/10 138/36/10 121/33/10
f 141/37/19 149/38/19 146/39/19
f 144/40/20 142/41/20 141/37/20
f 140/42/9 144/43/9 139/44/9
f 150/45/51 137/46/51 136/47/51
f 148/48/51 149/25/51 150/49/51
f 147/50/21 149/51/21 148/52/21
f 123/54/5 148/52/5 136/53/5
f 162/1/52 161/2/52 154/3/52
f 189/4/53 161/2/53 190/5/53
f 158/6/54 156/7/54 187/8/54
f 167/9/55 162/1/55 177/10/55
f 151/11/5 55/12/5 23/13/5
f 159/14/56 153/15/56 155/16/56
f 152/17/57 163/18/57 164/19/57
f 55/12/5 162/20/5 167/21/5
f 151/11/58 123/22/58 190/23/58
f 170/24/29 179/25/29 173/26/29
f 182/27/10 174/28/10 171/29/10
f 174/30/29 176/31/29 171/32/29
f 166/33/44 174/28/44 175/34/44
f 166/33/10 78/35/10 170/36/10
f 172/37/46 179/38/46 177/39/46
f 187/40/47 173/41/47 172/37/47
f 171/42/59 187/43/59 182/44/59
f 180/45/29 78/46/29 76/47/29
f 178/48/29 179/25/29 180/49/29
f 167/50/49 179/51/49 178/52/49
f 167/50/50 76/53/50 75/54/50
f 185/26/51 193/49/51 181/24/51
f 183/29/33 169/34/33 182/27/33
f 188/31/51 186/30/51 183/32/51
f 186/28/10 168/33/10 169/34/10
f 181/36/10 120/55/10 168/33/10
f 192/38/34 184/37/34 189/39/34
f 185/41/35 187/40/35 184/37/35
f 187/43/29 183/42/29 182/44/29
f 136/47/51 181/56/51 193/45/51
f 191/48/51 193/49/51 192/25/51
f 192/51/36 190/50/36 191/52/36
f 123/54/60 191/52/60 190/50/60
f 77/55/10 122/34/10 21/34/10
f 4/61/61 36/10/61 13/1/61
f 13/1/62 16/62/62 15/57/62
f 15/57/63 14/63/63 12/2/63
f 12/2/15 50/4/15 6/64/15
f 5/3/5 4/61/5 13/1/5
f 12/2/64 6/64/64 5/3/64
f 13/1/65 15/57/65 12/2/65
f 48/8/66 31/65/66 11/58/66
f 11/58/5 10/14/5 9/6/5
f 9/6/5 8/66/5 7/7/5
f 7/7/67 45/67/67 48/8/67
f 48/8/68 11/58/68 9/6/68
f 23/13/5 24/60/5 2/11/5
f 2/11/5 3/17/5 1/12/5
f 6/16/69 50/68/69 45/67/69
f 6/16/70 45/67/70 7/7/70
f 4/15/5 5/69/5 6/16/5
f 31/65/71 36/70/71 4/15/71
f 11/58/72 31/65/72 4/15/72
f 6/16/73 7/7/73 8/66/73
f 6/16/74 8/66/74 9/6/74
f 10/14/75 11/58/75 4/15/75
f 6/16/76 9/6/76 10/14/76
f 16/71/77 13/20/77 3/17/77
f 3/17/78 2/11/78 12/59/78
f 3/17/79 12/59/79 14/18/79
f 15/19/5 16/71/5 3/17/5
f 18/21/80 25/72/80 1/12/80
f 1/12/5 3/17/5 13/20/5
f 51/23/81 12/59/81 2/11/81
f 2/11/82 24/60/82 22/22/82
f 32/26/9 33/30/9 29/24/9
f 29/24/9 39/49/9 38/25/9
f 43/27/30 34/34/30 33/28/30
f 33/30/9 32/26/9 35/31/9
f 17/33/10 29/36/10 33/28/10
f 17/33/31 27/55/31 28/35/31
f 31/37/12 32/41/12 38/38/12
f 48/40/83 35/73/83 32/41/83
f 30/42/14 35/74/14 48/43/14
f 26/47/9 37/75/9 39/45/9
f 39/45/9 29/56/9 28/46/9
f 18/50/84 36/76/84 38/51/84
f 18/50/5 37/52/5 26/53/5
f 42/24/17 47/30/17 46/26/17
f 46/26/17 53/25/17 54/49/17
f 44/29/10 47/28/10 21/34/10
f 49/31/17 46/26/17 47/30/17
f 47/28/10 42/36/10 20/33/10
f 42/36/10 41/35/10 19/55/10
f 53/38/19 46/41/19 45/37/19
f 46/41/20 49/73/20 48/40/20
f 48/43/9 49/74/9 44/42/9
f 54/45/17 52/75/17 40/47/17
f 40/47/17 41/46/17 42/56/17
f 53/51/21 50/76/21 51/50/21
f 22/54/5 40/53/5 52/52/5
f 67/1/85 86/10/85 58/61/85
f 67/1/5 58/61/5 59/3/5
f 69/57/86 70/62/86 67/1/86
f 66/2/87 68/63/87 69/57/87
f 60/64/15 98/4/15 66/2/15
f 69/57/80 67/1/80 59/3/80
f 59/3/88 60/64/88 66/2/88
f 65/58/89 81/65/89 96/8/89
f 96/8/90 93/67/90 61/7/90
f 61/7/5 62/66/5 63/6/5
f 63/6/5 64/14/5 65/58/5
f 65/58/91 96/8/91 61/7/91
f 56/11/5 24/60/5 23/13/5
f 23/13/5 55/12/5 57/17/5
f 93/67/92 98/68/92 60/16/92
f 60/16/5 59/69/5 58/15/5
f 58/15/93 86/70/93 81/65/93
f 58/15/94 81/65/94 65/58/94
f 61/7/95 93/67/95 60/16/95
f 62/66/96 61/7/96 60/16/96
f 58/15/97 65/58/97 64/14/97
f 63/6/98 62/66/98 60/16/98
f 58/15/99 64/14/99 63/6/99
f 57/17/100 67/20/100 70/71/100
f 57/17/5 70/71/5 69/19/5
f 66/59/101 56/11/101 57/17/101
f 57/17/102 69/19/102 68/18/102
f 55/12/103 75/72/103 72/21/103
f 72/21/5 67/20/5 57/17/5
f 56/11/104 66/59/104 99/23/104
f 99/23/105 22/22/105 24/60/105
f 79/24/29 83/30/29 82/26/29
f 82/26/29 88/25/29 89/49/29
f 91/27/10 80/29/10 83/28/10
f 85/31/29 82/26/29 83/30/29
f 83/28/10 79/36/10 71/33/10
f 71/33/10 79/36/10 78/35/10
f 88/38/12 82/41/12 81/37/12
f 82/41/106 85/73/106 96/40/106
f 96/43/32 85/74/32 80/42/32
f 89/45/29 87/75/29 76/47/29
f 76/47/29 78/46/29 79/56/29
f 88/51/84 86/76/84 72/50/84
f 76/53/5 87/52/5 72/50/5
f 94/26/17 95/30/17 90/24/17
f 90/24/17 102/49/17 101/25/17
f 74/34/10 95/28/10 92/29/10
f 95/30/17 94/26/17 97/31/17
f 73/33/10 90/36/10 95/28/10
f 19/55/10 41/35/10 90/36/10
f 93/37/34 94/41/34 101/38/34
f 96/40/35 97/73/35 94/41/35
f 92/42/29 97/74/29 96/43/29
f 40/47/17 100/75/17 102/45/17
f 102/45/17 90/56/17 41/46/17
f 99/50/36 98/76/36 101/51/36
f 22/54/107 99/50/107 100/52/107
f 114/1/108 132/10/108 105/61/108
f 114/1/5 105/61/5 106/3/5
f 116/57/109 117/62/109 114/1/109
f 113/2/110 115/63/110 116/57/110
f 107/64/49 146/4/49 113/2/49
f 116/57/111 114/1/111 106/3/111
f 106/3/112 107/64/112 113/2/112
f 112/58/113 127/65/113 144/8/113
f 144/8/114 141/67/114 108/7/114
f 108/7/5 109/66/5 110/6/5
f 110/6/5 111/14/5 112/58/5
f 112/58/115 144/8/115 108/7/115
f 103/11/5 124/60/5 23/13/5
f 23/13/5 1/12/5 104/17/5
f 141/67/116 146/68/116 107/16/116
f 107/16/5 106/69/5 105/15/5
f 105/15/117 132/70/117 127/65/117
f 105/15/118 127/65/118 112/58/118
f 108/7/119 141/67/119 107/16/119
f 109/66/120 108/7/120 107/16/120
f 105/15/121 112/58/121 111/14/121
f 110/6/122 109/66/122 107/16/122
f 105/15/123 111/14/123 110/6/123
f 104/17/124 114/20/124 117/71/124
f 104/17/5 117/71/5 116/19/5
f 113/59/125 103/11/125 104/17/125
f 104/17/126 116/19/126 115/18/126
f 1/12/127 25/72/127 119/21/127
f 119/21/5 114/20/5 104/17/5
f 103/11/128 113/59/128 147/23/128
f 147/23/129 123/22/129 124/60/129
f 125/24/9 129/30/9 128/26/9
f 128/26/9 134/25/9 135/49/9
f 139/27/10 126/29/10 129/28/10
f 131/31/9 128/26/9 129/30/9
f 129/28/10 125/36/10 118/33/10
f 118/33/10 125/36/10 28/35/10
f 134/38/46 128/41/46 127/37/46
f 128/41/130 131/73/130 144/40/130
f 144/43/48 131/74/48 126/42/48
f 135/45/9 133/75/9 26/47/9
f 26/47/9 28/46/9 125/56/9
f 134/51/131 132/76/131 119/50/131
f 26/53/5 133/52/5 119/50/5
f 142/26/51 143/30/51 138/24/51
f 138/24/51 150/49/51 149/25/51
f 122/34/10 143/28/10 140/29/10
f 143/30/51 142/26/51 145/31/51
f 121/33/10 138/36/10 143/28/10
f 120/55/10 137/35/10 138/36/10
f 141/37/19 142/41/19 149/38/19
f 144/40/20 145/73/20 142/41/20
f 140/42/9 145/74/9 144/43/9
f 136/47/51 148/75/51 150/45/51
f 150/45/51 138/56/51 137/46/51
f 147/50/21 146/76/21 149/51/21
f 123/54/129 147/50/129 148/52/129
f 153/61/132 177/10/132 162/1/132
f 162/1/133 165/62/133 164/57/133
f 164/57/134 163/63/134 161/2/134
f 161/2/49 189/4/49 155/64/49
f 154/3/5 153/61/5 162/1/5
f 161/2/135 155/64/135 154/3/135
f 162/1/136 164/57/136 161/2/136
f 187/8/137 172/65/137 160/58/137
f 160/58/5 159/14/5 158/6/5
f 158/6/5 157/66/5 156/7/5
f 156/7/138 184/67/138 187/8/138
f 187/8/139 160/58/139 158/6/139
f 23/13/5 124/60/5 151/11/5
f 151/11/5 152/17/5 55/12/5
f 155/16/140 189/68/140 184/67/140
f 155/16/141 184/67/141 156/7/141
f 153/15/5 154/69/5 155/16/5
f 172/65/142 177/70/142 153/15/142
f 160/58/143 172/65/143 153/15/143
f 155/16/144 156/7/144 157/66/144
f 155/16/145 157/66/145 158/6/145
f 159/14/146 160/58/146 153/15/146
f 155/16/147 158/6/147 159/14/147
f 165/71/148 162/20/148 152/17/148
f 152/17/149 151/11/149 161/59/149
f 152/17/150 161/59/150 163/18/150
f 164/19/5 165/71/5 152/17/5
f 167/21/111 75/72/111 55/12/111
f 55/12/5 152/17/5 162/20/5
f 190/23/151 161/59/151 151/11/151
f 151/11/5 124/60/5 123/22/5
f 173/26/29 174/30/29 170/24/29
f 170/24/29 180/49/29 179/25/29
f 182/27/43 175/34/43 174/28/43
f 174/30/29 173/26/29 176/31/29
f 166/33/10 170/36/10 174/28/10
f 166/33/45 77/55/45 78/35/45
f 172/37/46 173/41/46 179/38/46
f 187/40/152 176/73/152 173/41/152
f 171/42/59 176/74/59 187/43/59
f 76/47/29 178/75/29 180/45/29
f 180/45/29 170/56/29 78/46/29
f 167/50/131 177/76/131 179/51/131
f 167/50/5 178/52/5 76/53/5
f 181/24/51 186/30/51 185/26/51
f 185/26/51 192/25/51 193/49/51
f 183/29/10 186/28/10 169/34/10
f 188/31/51 185/26/51 186/30/51
f 186/28/10 181/36/10 168/33/10
f 181/36/10 137/35/10 120/55/10
f 192/38/34 185/41/34 184/37/34
f 185/41/35 188/73/35 187/40/35
f 187/43/29 188/74/29 183/42/29
f 193/45/51 191/75/51 136/47/51
f 136/47/51 137/46/51 181/56/51
f 192/51/36 189/76/36 190/50/36
f 123/54/5 136/53/5 191/52/5
f 21/34/10 20/33/10 19/55/10
f 19/55/10 73/33/10 74/34/10
f 74/34/153 91/27/153 84/34/153
f 84/34/154 71/33/154 77/55/154
f 77/55/154 166/33/154 175/34/154
f 175/34/155 182/27/155 169/34/155
f 169/34/10 168/33/10 120/55/10
f 120/55/10 121/33/10 122/34/10
f 122/34/156 139/27/156 130/34/156
f 130/34/157 118/33/157 27/55/157
f 27/55/157 17/33/157 34/34/157
f 34/34/158 43/27/158 21/34/158
f 21/34/10 19/55/10 74/34/10
f 74/34/159 84/34/159 77/55/159
f 77/55/159 175/34/159 169/34/159
f 169/34/10 120/55/10 122/34/10
f 122/34/160 130/34/160 27/55/160
f 27/55/160 34/34/160 21/34/160
f 21/34/31 74/34/31 77/55/31
f 77/55/45 169/34/45 122/34/45
f 122/34/160 27/55/160 21/34/160
