# Blender 4.3.2
# www.blender.org
o Cross_Intersection_noSide
v 2.962746 0.100674 -30.993759
v 1.059090 0.100674 -27.994270
v 2.962746 0.100674 -29.897928
v 4.313850 0.100674 -27.672897
v 3.696266 0.100674 -27.260237
v 3.283600 0.100674 -26.642645
v 3.962746 0.078102 -26.046310
v 4.034866 0.078102 -26.408882
v 4.240250 0.078102 -26.716255
v 4.547623 0.078102 -26.921638
v 4.910194 0.078102 -26.993759
v 2.685074 0.099121 -26.427214
v 4.529419 0.100674 -28.271507
v 2.778069 0.099273 -26.846947
v 3.313332 0.100792 -27.643179
v 4.114403 0.100792 -28.178440
v 4.962746 -0.099326 -27.993759
v 4.962746 0.100674 -28.366352
v 0.000000 -0.099326 -25.993759
v 2.962746 -0.099326 -25.993759
v 3.962746 -0.099326 -25.993761
v 0.000000 0.100225 -25.997917
v 0.000000 0.100674 -30.993759
v 0.000000 0.100674 -27.994270
v 4.956505 0.101011 -30.993759
v 30.956505 0.101011 -30.993759
v 4.956505 -0.098989 -30.993759
v 30.956505 -0.098989 -30.993759
v 30.956505 -0.098989 -27.993748
v 30.956505 -0.098989 -25.993748
v 4.956505 0.078439 -26.993748
v 30.956505 0.078439 -26.993748
v 30.956505 -0.098989 -26.993748
v 4.956505 -0.098989 -26.993748
v 30.956505 -0.003102 -25.993748
v 4.956505 0.097040 -27.817795
v 30.956505 0.101011 -28.366341
v 30.956505 0.097040 -27.817795
v 30.956505 0.042226 -27.993748
v 0.000000 0.100000 0.000000
v 0.000000 -0.100000 0.000000
v 2.956505 -0.100000 0.000000
v 4.956497 -0.100000 -25.999998
v 4.956505 -0.100000 0.000000
v 3.956497 0.077428 -25.999998
v 3.956505 0.077428 0.000000
v 3.956505 -0.100000 0.000000
v 4.956497 -0.004114 -25.999998
v 4.956505 -0.004114 0.000000
v 3.132446 0.096028 -25.999996
v 2.583900 0.100000 -25.999996
v 2.583908 0.100000 0.000000
v 3.132454 0.096028 0.000000
v 2.956505 0.041215 0.000000
v -2.962746 0.100674 -30.993759
v -1.059090 0.100674 -27.994270
v -2.962746 0.100674 -29.897928
v -4.313850 0.100674 -27.672897
v -3.696266 0.100674 -27.260237
v -3.283600 0.100674 -26.642645
v -3.962746 0.078102 -26.046310
v -4.034866 0.078102 -26.408882
v -4.240250 0.078102 -26.716255
v -4.547623 0.078102 -26.921638
v -4.910194 0.078102 -26.993759
v -2.685074 0.099121 -26.427214
v -4.529419 0.100674 -28.271507
v -2.778069 0.099273 -26.846947
v -3.313332 0.100792 -27.643179
v -4.114403 0.100792 -28.178440
v -4.962746 -0.099326 -27.993759
v -4.962746 0.100674 -28.366352
v -2.962746 -0.099326 -25.993759
v -3.962746 -0.099326 -25.993761
v -4.956505 0.101011 -30.993759
v -30.956505 0.101011 -30.993759
v -4.956505 -0.098989 -30.993759
v -30.956505 -0.098989 -30.993759
v -30.956505 -0.098989 -27.993748
v -30.956505 -0.098989 -25.993748
v -4.956505 0.078439 -26.993748
v -30.956505 0.078439 -26.993748
v -30.956505 -0.098989 -26.993748
v -4.956505 -0.098989 -26.993748
v -30.956505 -0.003102 -25.993748
v -4.956505 0.097040 -27.817795
v -30.956505 0.101011 -28.366341
v -30.956505 0.097040 -27.817795
v -30.956505 0.042226 -27.993748
v -2.956505 -0.100000 0.000000
v -4.956497 -0.100000 -25.999998
v -4.956505 -0.100000 0.000000
v -3.956497 0.077428 -25.999998
v -3.956505 0.077428 0.000000
v -3.956505 -0.100000 0.000000
v -4.956497 -0.004114 -25.999998
v -4.956505 -0.004114 0.000000
v -3.132446 0.096028 -25.999996
v -2.583900 0.100000 -25.999996
v -2.583908 0.100000 0.000000
v -3.132454 0.096028 0.000000
v -2.956505 0.041215 0.000000
v 1.059090 0.100674 -33.993248
v 2.962746 0.100674 -32.089592
v 4.313850 0.100674 -34.314621
v 3.696266 0.100674 -34.727280
v 3.283600 0.100674 -35.344872
v 3.962746 0.078102 -35.941208
v 4.034866 0.078102 -35.578636
v 4.240250 0.078102 -35.271263
v 4.547623 0.078102 -35.065880
v 4.910194 0.078102 -34.993759
v 2.685074 0.099121 -35.560303
v 4.529419 0.100674 -33.716011
v 2.778069 0.099273 -35.140572
v 3.313332 0.100792 -34.344337
v 4.114403 0.100792 -33.809078
v 4.962746 -0.099326 -33.993759
v 4.962746 0.100674 -33.621166
v 0.000000 -0.099326 -35.993759
v 2.962746 -0.099326 -35.993759
v 3.962746 -0.099326 -35.993759
v 0.000000 0.100674 -35.993759
v 0.000000 0.100674 -33.993248
v 30.956505 -0.098989 -33.993771
v 30.956505 -0.098989 -35.993771
v 4.956505 0.078439 -34.993771
v 30.956505 0.078439 -34.993771
v 30.956505 -0.098989 -34.993771
v 4.956505 -0.098989 -34.993771
v 30.956505 -0.003102 -35.993771
v 4.956505 0.097040 -34.169724
v 30.956505 0.101011 -33.621178
v 30.956505 0.097040 -34.169724
v 30.956505 0.042226 -33.993771
v 0.000000 0.100000 -61.987518
v 0.000000 -0.100000 -61.987518
v 2.956505 -0.100000 -61.987518
v 4.956497 -0.100000 -35.987518
v 4.956505 -0.100000 -61.987518
v 3.956497 0.077428 -35.987518
v 3.956505 0.077428 -61.987518
v 3.956505 -0.100000 -61.987518
v 4.956497 -0.004114 -35.987518
v 4.956505 -0.004114 -61.987518
v 3.132446 0.096028 -35.987522
v 2.583900 0.100000 -35.987522
v 2.583908 0.100000 -61.987518
v 3.132454 0.096028 -61.987518
v 2.956505 0.041215 -61.987518
v -1.059090 0.100674 -33.993248
v -2.962746 0.100674 -32.089592
v -4.313850 0.100674 -34.314621
v -3.696266 0.100674 -34.727280
v -3.283600 0.100674 -35.344872
v -3.962746 0.078102 -35.941208
v -4.034866 0.078102 -35.578636
v -4.240250 0.078102 -35.271263
v -4.547623 0.078102 -35.065880
v -4.910194 0.078102 -34.993759
v -2.685074 0.099121 -35.560303
v -4.529419 0.100674 -33.716011
v -2.778069 0.099273 -35.140572
v -3.313332 0.100792 -34.344337
v -4.114403 0.100792 -33.809078
v -4.962746 -0.099326 -33.993759
v -4.962746 0.100674 -33.621166
v -2.962746 -0.099326 -35.993759
v -3.962746 -0.099326 -35.993759
v -30.956505 -0.098989 -33.993771
v -30.956505 -0.098989 -35.993771
v -4.956505 0.078439 -34.993771
v -30.956505 0.078439 -34.993771
v -30.956505 -0.098989 -34.993771
v -4.956505 -0.098989 -34.993771
v -30.956505 -0.003102 -35.993771
v -4.956505 0.097040 -34.169724
v -30.956505 0.101011 -33.621178
v -30.956505 0.097040 -34.169724
v -30.956505 0.042226 -33.993771
v -2.956505 -0.100000 -61.987518
v -4.956497 -0.100000 -35.987518
v -4.956505 -0.100000 -61.987518
v -3.956497 0.077428 -35.987518
v -3.956505 0.077428 -61.987518
v -3.956505 -0.100000 -61.987518
v -4.956497 -0.004114 -35.987518
v -4.956505 -0.004114 -61.987518
v -3.132446 0.096028 -35.987522
v -2.583900 0.100000 -35.987522
v -2.583908 0.100000 -61.987518
v -3.132454 0.096028 -61.987518
v -2.956505 0.041215 -61.987518
vn -0.0048 1.0000 -0.0039
vn 0.0072 1.0000 -0.0003
vn 0.0809 0.9962 0.0335
vn 0.0015 1.0000 0.0066
vn -0.0000 1.0000 -0.0000
vn 0.0229 0.9995 0.0229
vn -0.0024 1.0000 0.0003
vn 0.0001 1.0000 0.0003
vn 1.0000 -0.0000 -0.0000
vn -0.0000 -1.0000 -0.0000
vn -0.0000 -1.0000 0.0003
vn -0.0000 0.9997 0.0226
vn -0.0000 0.9966 0.0828
vn -0.0002 -0.0000 1.0000
vn -0.0000 1.0000 0.0072
vn -0.0000 1.0000 0.0001
vn -0.0000 -0.0000 1.0000
vn -0.0007 -1.0000 -0.0000
vn 0.0226 0.9997 -0.0000
vn 0.0813 0.9967 -0.0000
vn 0.0072 1.0000 -0.0000
vn 0.0001 1.0000 -0.0000
vn 0.0007 1.0000 0.0010
vn -0.0072 1.0000 -0.0003
vn -0.0015 1.0000 0.0066
vn -0.0255 0.9993 0.0255
vn -0.0006 1.0000 0.0005
vn -0.0000 1.0000 0.0003
vn -1.0000 -0.0000 -0.0000
vn -0.0000 -1.0000 -0.0010
vn -0.0000 -1.0000 -0.0001
vn 0.0002 -0.0000 1.0000
vn 0.0007 -1.0000 -0.0000
vn -0.0226 0.9997 -0.0000
vn -0.0813 0.9967 -0.0000
vn -0.0072 1.0000 -0.0000
vn -0.0007 1.0000 -0.0010
vn 0.0072 1.0000 0.0003
vn 0.0015 1.0000 -0.0066
vn 0.0255 0.9993 -0.0255
vn 0.0006 1.0000 -0.0005
vn -0.0000 1.0000 -0.0003
vn -0.0000 -1.0000 0.0010
vn -0.0000 -1.0000 -0.0003
vn -0.0000 -1.0000 0.0001
vn -0.0000 0.9997 -0.0226
vn -0.0000 0.9966 -0.0828
vn -0.0002 -0.0000 -1.0000
vn -0.0000 1.0000 -0.0072
vn -0.0000 1.0000 -0.0001
vn -0.0000 -0.0000 -1.0000
vn -0.0000 0.0001 -1.0000
vn 0.0048 1.0000 0.0039
vn -0.0072 1.0000 0.0003
vn -0.0809 0.9962 -0.0335
vn -0.0015 1.0000 -0.0066
vn -0.0229 0.9995 -0.0229
vn 0.0024 1.0000 -0.0003
vn -0.0003 1.0000 -0.0001
vn 0.0002 -0.0000 -1.0000
vn -0.0003 1.0000 -0.0000
vn 0.0002 -1.0000 -0.0000
vn 0.0062 1.0000 0.0022
vn 0.0004 1.0000 0.0006
vn -0.0034 1.0000 -0.0004
vn -0.0034 1.0000 -0.0023
vn 0.0011 1.0000 0.0019
vn -0.0073 0.9965 0.0828
vn 0.0812 0.9964 0.0255
vn 0.0335 0.9962 0.0809
vn 0.0226 0.9997 0.0125
vn 0.0183 0.9997 0.0170
vn 0.0107 0.9997 0.0226
vn -0.0073 0.9992 0.0396
vn 0.0283 0.9996 0.0056
vn 0.0249 0.9996 0.0166
vn 0.0056 0.9996 0.0283
vn 0.0266 0.9989 0.0399
vn 0.0002 1.0000 -0.0002
vn 0.0005 1.0000 0.0005
vn 0.0006 1.0000 0.0005
vn -0.0002 1.0000 0.0001
vn 0.0024 1.0000 -0.0015
vn -0.0000 1.0000 0.0002
vn -0.0001 0.9967 0.0813
vn -0.0000 1.0000 0.0066
vn -0.0062 1.0000 0.0022
vn -0.0004 1.0000 0.0006
vn 0.0034 1.0000 -0.0004
vn 0.0034 1.0000 -0.0023
vn 0.0073 0.9965 0.0828
vn -0.0812 0.9964 0.0255
vn -0.0786 0.9938 0.0786
vn -0.0226 0.9997 0.0125
vn -0.0107 0.9997 0.0226
vn 0.0073 0.9992 0.0396
vn -0.0183 0.9997 0.0170
vn -0.0283 0.9996 0.0056
vn -0.0056 0.9996 0.0283
vn -0.0249 0.9996 0.0166
vn -0.0166 0.9996 0.0249
vn -0.0002 1.0000 -0.0002
vn -0.0005 1.0000 0.0005
vn 0.0024 1.0000 0.0003
vn 0.0002 1.0000 0.0001
vn -0.0024 1.0000 -0.0015
vn -0.0001 1.0000 0.0002
vn 0.0001 0.9967 0.0813
vn -0.0001 1.0000 -0.0000
vn 0.0062 1.0000 -0.0022
vn 0.0004 1.0000 -0.0006
vn -0.0034 1.0000 0.0004
vn 0.0002 1.0000 -0.0001
vn -0.0034 1.0000 0.0023
vn -0.0073 0.9965 -0.0828
vn 0.0812 0.9964 -0.0255
vn 0.0786 0.9938 -0.0786
vn 0.0226 0.9997 -0.0125
vn 0.0107 0.9997 -0.0226
vn -0.0073 0.9992 -0.0396
vn 0.0183 0.9997 -0.0170
vn 0.0283 0.9996 -0.0056
vn 0.0056 0.9996 -0.0283
vn 0.0249 0.9996 -0.0166
vn 0.0166 0.9996 -0.0249
vn 0.0002 1.0000 0.0002
vn 0.0005 1.0000 -0.0005
vn -0.0024 1.0000 -0.0003
vn -0.0002 1.0000 -0.0001
vn 0.0024 1.0000 0.0015
vn 0.0003 1.0000 -0.0000
vn -0.0001 0.9967 -0.0813
vn -0.0000 1.0000 -0.0066
vn -0.0000 0.0002 -1.0000
vn -0.0062 1.0000 -0.0022
vn -0.0004 1.0000 -0.0006
vn 0.0034 1.0000 0.0004
vn 0.0034 1.0000 0.0023
vn -0.0011 1.0000 -0.0019
vn 0.0073 0.9965 -0.0828
vn -0.0812 0.9964 -0.0255
vn -0.0335 0.9962 -0.0809
vn -0.0226 0.9997 -0.0125
vn -0.0183 0.9997 -0.0170
vn -0.0107 0.9997 -0.0226
vn 0.0073 0.9992 -0.0396
vn -0.0283 0.9996 -0.0056
vn -0.0249 0.9996 -0.0166
vn -0.0056 0.9996 -0.0283
vn -0.0266 0.9989 -0.0399
vn -0.0002 1.0000 0.0002
vn -0.0005 1.0000 -0.0005
vn -0.0006 1.0000 -0.0005
vn -0.0024 1.0000 0.0015
vn 0.0001 0.9967 -0.0813
vn 0.0007 -1.0000 -0.0010
vn 0.0539 -0.9985 -0.0000
vn 0.0007 -1.0000 0.0010
vn -0.0003 -1.0000 -0.0000
vn -0.0002 -1.0000 -0.0000
vn -0.0000 -0.9942 0.1074
vn -0.0539 -0.9985 -0.0000
vn -0.0001 -1.0000 -0.0010
vn -0.0001 -1.0000 -0.0000
vn -0.0000 -0.9942 -0.1075
vn 0.0001 -1.0000 -0.0000
vn -0.0003 -1.0000 0.0010
vt 0.560057 0.205282
vt 0.594195 0.055519
vt 0.569894 0.128748
vt 0.557992 0.048128
vt 0.585340 0.030934
vt 0.328072 0.127756
vt 0.395067 0.100021
vt 0.400329 0.200236
vt 0.541426 0.223594
vt 0.524230 0.196246
vt 0.233881 0.515428
vt 0.323005 0.375000
vt 0.184297 0.375000
vt 0.307534 0.158477
vt 0.232403 0.135044
vt 0.335429 0.032074
vt 0.323005 0.426304
vt 0.314353 0.569059
vt 0.339396 0.531842
vt 0.396215 0.502447
vt 0.416637 0.498008
vt 0.184297 0.609030
vt 0.305560 0.608928
vt 0.463590 0.907364
vt 0.475034 0.921587
vt 0.528634 0.920237
vt 1.000000 -0.020833
vt 0.916667 0.520833
vt 1.000000 0.520833
vt 0.528634 0.907364
vt 0.593678 0.914321
vt 0.593678 0.907364
vt 0.833333 -0.020833
vt 0.916667 -0.020833
vt 0.583333 0.520833
vt 0.833333 0.520833
vt 2.293905 -0.111756
vt -2.018335 0.986002
vt 2.259196 -0.233501
vt 2.337168 0.039993
vt -1.983626 1.107747
vt 0.468750 -0.299317
vt 0.461259 0.861817
vt 0.468750 0.861817
vt 0.942821 0.739583
vt 0.978125 0.489583
vt 0.928125 0.489583
vt 0.456992 0.921875
vt 0.463590 0.917610
vt 0.137032 1.062192
vt 0.170806 -0.404391
vt 0.137032 -0.405942
vt -0.000250 -0.405942
vt -0.000250 1.062192
vt 0.583333 -0.020833
vt 0.978125 0.739583
vt 0.600990 0.135836
vt 0.300322 0.194715
vt 0.310004 0.588655
vt 0.184297 0.515428
vt 0.552039 0.168681
vt 0.577830 0.187633
vt 0.602716 0.079361
vt 0.571108 0.085022
vt 0.300322 0.199967
vt 0.358810 0.107229
vt 0.400322 0.100021
vt 0.400699 0.017606
vt 0.273669 0.073318
vt 0.217908 0.199528
vt 0.376838 0.506800
vt 0.416639 0.375000
vt -1.940363 1.259496
vt 0.461259 -0.299317
vt 0.928125 0.708534
vt 0.170806 1.063742
s 0
f 13/1/1 12/2/1 5/3/1
f 50/4/2 12/2/2 51/5/2
f 9/6/3 7/7/3 48/8/3
f 18/9/4 13/1/4 36/10/4
f 2/11/5 1/12/5 23/13/5
f 10/14/6 4/15/6 6/16/6
f 3/17/7 14/18/7 15/19/7
f 1/12/5 13/20/5 18/21/5
f 2/11/8 22/22/8 51/23/8
f 29/24/9 38/25/9 32/26/9
f 43/27/10 33/28/10 30/29/10
f 33/30/9 35/31/9 30/32/9
f 17/33/11 33/28/11 34/34/11
f 17/33/10 28/35/10 29/36/10
f 31/37/12 38/38/12 36/39/12
f 48/40/13 32/41/13 31/37/13
f 30/42/14 48/43/14 43/44/14
f 39/45/9 28/46/9 26/47/9
f 37/48/9 38/25/9 39/49/9
f 18/50/15 38/51/15 37/52/15
f 18/50/16 26/53/16 25/54/16
f 46/26/17 54/49/17 42/24/17
f 44/29/18 21/34/18 43/27/18
f 49/31/17 47/30/17 44/32/17
f 47/28/10 20/33/10 21/34/10
f 42/36/10 19/55/10 20/33/10
f 53/38/19 45/37/19 50/39/19
f 46/41/20 48/40/20 45/37/20
f 48/43/9 44/42/9 43/44/9
f 40/47/17 42/56/17 54/45/17
f 52/48/17 54/49/17 53/25/17
f 53/51/21 51/50/21 52/52/21
f 22/54/22 52/52/22 51/50/22
f 59/3/23 66/2/23 69/57/23
f 98/4/24 99/5/24 66/2/24
f 61/7/5 63/6/5 65/58/5
f 72/9/25 86/10/25 67/1/25
f 23/13/5 57/17/5 56/11/5
f 60/16/26 58/15/26 63/6/26
f 68/18/27 66/59/27 57/17/27
f 72/21/5 57/17/5 55/12/5
f 99/23/28 24/60/28 56/11/28
f 82/26/29 89/49/29 79/24/29
f 91/27/30 83/28/30 84/34/30
f 85/31/29 83/30/29 80/32/29
f 83/28/11 71/33/11 84/34/11
f 71/33/31 78/35/31 77/55/31
f 88/38/12 81/37/12 86/39/12
f 82/41/13 96/40/13 81/37/13
f 96/43/32 80/42/32 91/44/32
f 76/47/29 79/56/29 89/45/29
f 87/48/29 89/49/29 88/25/29
f 88/51/15 72/50/15 87/52/15
f 76/53/16 72/50/16 75/54/16
f 90/24/17 101/25/17 94/26/17
f 74/34/33 92/29/33 91/27/33
f 95/30/17 97/31/17 92/32/17
f 73/33/10 95/28/10 74/34/10
f 19/55/10 90/36/10 73/33/10
f 93/37/34 101/38/34 98/39/34
f 96/40/35 94/41/35 93/37/35
f 92/42/29 96/43/29 91/44/29
f 102/45/17 41/46/17 40/47/17
f 100/48/17 101/25/17 102/49/17
f 99/50/36 101/51/36 100/52/36
f 22/54/5 100/52/5 40/53/5
f 106/3/37 113/2/37 116/57/37
f 146/4/38 147/5/38 113/2/38
f 108/7/5 110/6/5 112/58/5
f 119/9/39 132/10/39 114/1/39
f 23/13/5 104/17/5 103/11/5
f 107/16/40 105/15/40 110/6/40
f 115/18/41 113/59/41 104/17/41
f 119/21/5 104/17/5 1/12/5
f 147/23/42 124/60/42 103/11/42
f 128/26/9 135/49/9 125/24/9
f 139/27/43 129/28/43 130/34/43
f 131/31/9 129/30/9 126/32/9
f 129/28/44 118/33/44 130/34/44
f 118/33/45 28/35/45 27/55/45
f 134/38/46 127/37/46 132/39/46
f 128/41/47 144/40/47 127/37/47
f 144/43/48 126/42/48 139/44/48
f 26/47/9 125/56/9 135/45/9
f 133/48/9 135/49/9 134/25/9
f 134/51/49 119/50/49 133/52/49
f 26/53/50 119/50/50 25/54/50
f 138/24/51 149/25/51 142/26/51
f 122/34/18 140/29/18 139/27/18
f 143/30/51 145/31/51 140/32/51
f 121/33/10 143/28/10 122/34/10
f 120/55/10 138/36/10 121/33/10
f 146/39/19 142/41/19 149/38/19
f 144/40/20 142/41/20 141/37/20
f 140/42/9 144/43/9 139/44/9
f 150/45/51 137/46/51 136/47/51
f 148/48/52 149/25/52 150/49/52
f 147/50/21 149/51/21 148/52/21
f 123/54/5 148/52/5 136/53/5
f 162/1/53 161/2/53 154/3/53
f 189/4/54 161/2/54 190/5/54
f 158/6/55 156/7/55 187/8/55
f 167/9/56 162/1/56 177/10/56
f 151/11/5 55/12/5 23/13/5
f 159/14/57 153/15/57 155/16/57
f 152/17/58 163/18/58 164/19/58
f 55/12/5 162/20/5 167/21/5
f 151/11/59 123/22/59 190/23/59
f 170/24/29 179/25/29 173/26/29
f 182/27/10 174/28/10 171/29/10
f 174/30/29 176/31/29 171/32/29
f 166/33/44 174/28/44 175/34/44
f 166/33/10 78/35/10 170/36/10
f 172/37/46 179/38/46 177/39/46
f 187/40/47 173/41/47 172/37/47
f 171/42/60 187/43/60 182/44/60
f 180/45/29 78/46/29 76/47/29
f 178/48/29 179/25/29 180/49/29
f 167/50/49 179/51/49 178/52/49
f 167/50/50 76/53/50 75/54/50
f 185/26/51 193/49/51 181/24/51
f 183/29/33 169/34/33 182/27/33
f 188/31/51 186/30/51 183/32/51
f 186/28/10 168/33/10 169/34/10
f 181/36/10 120/55/10 168/33/10
f 189/39/34 185/41/34 184/37/34
f 185/41/35 187/40/35 184/37/35
f 187/43/29 183/42/29 182/44/29
f 136/47/51 181/56/51 193/45/51
f 191/48/52 193/49/52 192/25/52
f 192/51/36 190/50/36 191/52/36
f 123/54/61 191/52/61 190/50/61
f 121/33/62 130/34/62 27/55/62
f 4/61/63 36/10/63 13/1/63
f 13/1/64 16/62/64 15/57/64
f 15/57/65 14/63/65 12/2/65
f 12/2/15 50/4/15 6/64/15
f 5/3/5 4/61/5 13/1/5
f 12/2/66 6/64/66 5/3/66
f 13/1/67 15/57/67 12/2/67
f 48/8/68 31/65/68 11/58/68
f 11/58/5 10/14/5 9/6/5
f 9/6/5 8/66/5 7/7/5
f 7/7/69 45/67/69 48/8/69
f 48/8/70 11/58/70 9/6/70
f 23/13/5 24/60/5 2/11/5
f 2/11/5 3/17/5 1/12/5
f 6/16/71 50/68/71 45/67/71
f 6/16/72 45/67/72 7/7/72
f 4/15/5 5/69/5 6/16/5
f 31/65/73 36/70/73 4/15/73
f 11/58/74 31/65/74 4/15/74
f 6/16/75 7/7/75 8/66/75
f 6/16/76 8/66/76 9/6/76
f 10/14/77 11/58/77 4/15/77
f 6/16/78 9/6/78 10/14/78
f 16/71/79 13/20/79 3/17/79
f 3/17/80 2/11/80 12/59/80
f 3/17/81 12/59/81 14/18/81
f 15/19/5 16/71/5 3/17/5
f 18/21/82 25/72/82 1/12/82
f 1/12/5 3/17/5 13/20/5
f 51/23/83 12/59/83 2/11/83
f 2/11/84 24/60/84 22/22/84
f 32/26/9 33/30/9 29/24/9
f 29/24/9 39/49/9 38/25/9
f 43/27/30 34/34/30 33/28/30
f 33/30/9 32/26/9 35/31/9
f 17/33/10 29/36/10 33/28/10
f 17/33/31 27/55/31 28/35/31
f 31/37/12 32/41/12 38/38/12
f 48/40/85 35/73/85 32/41/85
f 30/42/14 35/74/14 48/43/14
f 26/47/9 37/75/9 39/45/9
f 39/45/9 29/56/9 28/46/9
f 18/50/86 36/76/86 38/51/86
f 18/50/5 37/52/5 26/53/5
f 42/24/17 47/30/17 46/26/17
f 46/26/17 53/25/17 54/49/17
f 44/29/10 47/28/10 21/34/10
f 49/31/17 46/26/17 47/30/17
f 47/28/10 42/36/10 20/33/10
f 42/36/10 41/35/10 19/55/10
f 53/38/19 46/41/19 45/37/19
f 46/41/20 49/73/20 48/40/20
f 48/43/9 49/74/9 44/42/9
f 54/45/17 52/75/17 40/47/17
f 40/47/17 41/46/17 42/56/17
f 53/51/21 50/76/21 51/50/21
f 22/54/5 40/53/5 52/52/5
f 67/1/87 86/10/87 58/61/87
f 67/1/5 58/61/5 59/3/5
f 69/57/88 70/62/88 67/1/88
f 66/2/89 68/63/89 69/57/89
f 60/64/15 98/4/15 66/2/15
f 69/57/82 67/1/82 59/3/82
f 59/3/90 60/64/90 66/2/90
f 65/58/91 81/65/91 96/8/91
f 96/8/92 93/67/92 61/7/92
f 61/7/5 62/66/5 63/6/5
f 63/6/5 64/14/5 65/58/5
f 65/58/93 96/8/93 61/7/93
f 56/11/5 24/60/5 23/13/5
f 23/13/5 55/12/5 57/17/5
f 93/67/94 98/68/94 60/16/94
f 60/16/5 59/69/5 58/15/5
f 58/15/95 86/70/95 81/65/95
f 58/15/96 81/65/96 65/58/96
f 61/7/97 93/67/97 60/16/97
f 62/66/98 61/7/98 60/16/98
f 58/15/99 65/58/99 64/14/99
f 63/6/100 62/66/100 60/16/100
f 58/15/101 64/14/101 63/6/101
f 57/17/102 67/20/102 70/71/102
f 57/17/5 70/71/5 69/19/5
f 66/59/103 56/11/103 57/17/103
f 57/17/104 69/19/104 68/18/104
f 55/12/105 75/72/105 72/21/105
f 72/21/5 67/20/5 57/17/5
f 56/11/106 66/59/106 99/23/106
f 99/23/107 22/22/107 24/60/107
f 79/24/29 83/30/29 82/26/29
f 82/26/29 88/25/29 89/49/29
f 91/27/10 80/29/10 83/28/10
f 85/31/29 82/26/29 83/30/29
f 83/28/10 79/36/10 71/33/10
f 71/33/10 79/36/10 78/35/10
f 88/38/12 82/41/12 81/37/12
f 82/41/108 85/73/108 96/40/108
f 96/43/32 85/74/32 80/42/32
f 89/45/29 87/75/29 76/47/29
f 76/47/29 78/46/29 79/56/29
f 88/51/86 86/76/86 72/50/86
f 76/53/5 87/52/5 72/50/5
f 94/26/17 95/30/17 90/24/17
f 90/24/17 102/49/17 101/25/17
f 74/34/10 95/28/10 92/29/10
f 95/30/17 94/26/17 97/31/17
f 73/33/10 90/36/10 95/28/10
f 19/55/10 41/35/10 90/36/10
f 93/37/34 94/41/34 101/38/34
f 96/40/35 97/73/35 94/41/35
f 92/42/29 97/74/29 96/43/29
f 40/47/17 100/75/17 102/45/17
f 102/45/17 90/56/17 41/46/17
f 99/50/36 98/76/36 101/51/36
f 22/54/109 99/50/109 100/52/109
f 114/1/110 132/10/110 105/61/110
f 114/1/5 105/61/5 106/3/5
f 116/57/111 117/62/111 114/1/111
f 113/2/112 115/63/112 116/57/112
f 107/64/49 146/4/49 113/2/49
f 116/57/113 114/1/113 106/3/113
f 106/3/114 107/64/114 113/2/114
f 112/58/115 127/65/115 144/8/115
f 144/8/116 141/67/116 108/7/116
f 108/7/5 109/66/5 110/6/5
f 110/6/5 111/14/5 112/58/5
f 112/58/117 144/8/117 108/7/117
f 103/11/5 124/60/5 23/13/5
f 23/13/5 1/12/5 104/17/5
f 141/67/118 146/68/118 107/16/118
f 107/16/5 106/69/5 105/15/5
f 105/15/119 132/70/119 127/65/119
f 105/15/120 127/65/120 112/58/120
f 108/7/121 141/67/121 107/16/121
f 109/66/122 108/7/122 107/16/122
f 105/15/123 112/58/123 111/14/123
f 110/6/124 109/66/124 107/16/124
f 105/15/125 111/14/125 110/6/125
f 104/17/126 114/20/126 117/71/126
f 104/17/5 117/71/5 116/19/5
f 113/59/127 103/11/127 104/17/127
f 104/17/128 116/19/128 115/18/128
f 1/12/129 25/72/129 119/21/129
f 119/21/5 114/20/5 104/17/5
f 103/11/130 113/59/130 147/23/130
f 147/23/131 123/22/131 124/60/131
f 125/24/9 129/30/9 128/26/9
f 128/26/9 134/25/9 135/49/9
f 139/27/10 126/29/10 129/28/10
f 131/31/9 128/26/9 129/30/9
f 129/28/10 125/36/10 118/33/10
f 118/33/10 125/36/10 28/35/10
f 134/38/46 128/41/46 127/37/46
f 128/41/132 131/73/132 144/40/132
f 144/43/48 131/74/48 126/42/48
f 135/45/9 133/75/9 26/47/9
f 26/47/9 28/46/9 125/56/9
f 134/51/133 132/76/133 119/50/133
f 26/53/5 133/52/5 119/50/5
f 142/26/51 143/30/51 138/24/51
f 138/24/51 150/49/51 149/25/51
f 122/34/10 143/28/10 140/29/10
f 143/30/51 142/26/51 145/31/51
f 121/33/10 138/36/10 143/28/10
f 120/55/10 137/35/10 138/36/10
f 146/39/19 141/37/19 142/41/19
f 144/40/20 145/73/20 142/41/20
f 140/42/9 145/74/9 144/43/9
f 136/47/134 148/75/134 150/45/134
f 150/45/51 138/56/51 137/46/51
f 147/50/21 146/76/21 149/51/21
f 123/54/131 147/50/131 148/52/131
f 153/61/135 177/10/135 162/1/135
f 162/1/136 165/62/136 164/57/136
f 164/57/137 163/63/137 161/2/137
f 161/2/49 189/4/49 155/64/49
f 154/3/5 153/61/5 162/1/5
f 161/2/138 155/64/138 154/3/138
f 162/1/139 164/57/139 161/2/139
f 187/8/140 172/65/140 160/58/140
f 160/58/5 159/14/5 158/6/5
f 158/6/5 157/66/5 156/7/5
f 156/7/141 184/67/141 187/8/141
f 187/8/142 160/58/142 158/6/142
f 23/13/5 124/60/5 151/11/5
f 151/11/5 152/17/5 55/12/5
f 155/16/143 189/68/143 184/67/143
f 155/16/144 184/67/144 156/7/144
f 153/15/5 154/69/5 155/16/5
f 172/65/145 177/70/145 153/15/145
f 160/58/146 172/65/146 153/15/146
f 155/16/147 156/7/147 157/66/147
f 155/16/148 157/66/148 158/6/148
f 159/14/149 160/58/149 153/15/149
f 155/16/150 158/6/150 159/14/150
f 165/71/151 162/20/151 152/17/151
f 152/17/152 151/11/152 161/59/152
f 152/17/153 161/59/153 163/18/153
f 164/19/5 165/71/5 152/17/5
f 167/21/113 75/72/113 55/12/113
f 55/12/5 152/17/5 162/20/5
f 190/23/154 161/59/154 151/11/154
f 151/11/5 124/60/5 123/22/5
f 173/26/29 174/30/29 170/24/29
f 170/24/29 180/49/29 179/25/29
f 182/27/43 175/34/43 174/28/43
f 174/30/29 173/26/29 176/31/29
f 166/33/10 170/36/10 174/28/10
f 166/33/45 77/55/45 78/35/45
f 172/37/46 173/41/46 179/38/46
f 187/40/155 176/73/155 173/41/155
f 171/42/60 176/74/60 187/43/60
f 76/47/29 178/75/29 180/45/29
f 180/45/29 170/56/29 78/46/29
f 167/50/133 177/76/133 179/51/133
f 167/50/5 178/52/5 76/53/5
f 181/24/51 186/30/51 185/26/51
f 185/26/51 192/25/51 193/49/51
f 183/29/10 186/28/10 169/34/10
f 188/31/51 185/26/51 186/30/51
f 186/28/10 181/36/10 168/33/10
f 181/36/10 137/35/10 120/55/10
f 189/39/34 192/38/34 185/41/34
f 185/41/35 188/73/35 187/40/35
f 187/43/29 188/74/29 183/42/29
f 193/45/134 191/75/134 136/47/134
f 136/47/51 137/46/51 181/56/51
f 192/51/36 189/76/36 190/50/36
f 123/54/5 136/53/5 191/52/5
f 21/34/5 20/33/5 19/55/5
f 19/55/5 73/33/5 74/34/5
f 74/34/156 91/27/156 84/34/156
f 84/34/157 71/33/157 77/55/157
f 77/55/157 166/33/157 175/34/157
f 175/34/158 182/27/158 169/34/158
f 175/34/11 169/34/11 168/33/11
f 74/34/159 84/34/159 77/55/159
f 77/55/160 175/34/160 168/33/160
f 77/55/45 168/33/45 120/55/45
f 19/55/31 74/34/31 77/55/31
f 43/27/161 21/34/161 19/55/161
f 27/55/162 17/33/162 34/34/162
f 34/34/163 43/27/163 19/55/163
f 19/55/164 77/55/164 120/55/164
f 121/33/165 122/34/165 139/27/165
f 19/55/10 120/55/10 121/33/10
f 27/55/166 34/34/166 19/55/166
f 130/34/162 118/33/162 27/55/162
f 121/33/167 139/27/167 130/34/167
f 27/55/166 19/55/166 121/33/166
