# Blender 4.3.0
# www.blender.org
o Straight
v -12.999999 0.000000 -3.000000
v 12.999999 0.000000 -3.000000
v -12.999999 0.000000 0.000000
v 12.999999 0.000000 0.000000
v -12.999999 -0.200000 -3.000000
v 12.999999 -0.200000 -3.000000
v -12.999999 -0.200000 0.000000
v 12.999999 -0.200000 0.000000
v -12.999999 -0.200000 -5.000000
v 12.999999 -0.200000 -5.000000
v 12.999999 0.200000 -3.000000
v -12.999999 0.200000 -3.000000
v 12.999999 0.200000 -5.000000
v -12.999999 0.200000 -5.000000
v -12.999999 0.200000 -3.299855
v 12.999999 0.200000 -3.299855
v -12.999999 0.000000 3.000000
v 12.999999 0.000000 3.000000
v -12.999999 -0.200000 3.000000
v 12.999999 -0.200000 3.000000
v -12.999999 -0.200000 5.000000
v 12.999999 -0.200000 5.000000
v 12.999999 0.200000 3.000000
v -12.999999 0.200000 3.000000
v 12.999999 0.200000 5.000000
v -12.999999 0.200000 5.000000
v -12.999999 0.200000 3.299855
v 12.999999 0.200000 3.299855
vn 1.0000 -0.0000 -0.0000
vn -1.0000 -0.0000 -0.0000
vn -0.0000 -0.0000 -1.0000
vn -0.0000 -0.0000 1.0000
vn -0.0000 1.0000 -0.0000
vn -0.0000 -1.0000 -0.0000
vt 0.483094 0.936386
vt 0.463590 0.921875
vt 0.463590 0.907364
vt 0.928125 0.489583
vt 0.978125 0.739583
vt 0.928125 0.739583
vt 0.928125 0.651042
vt 0.978125 0.901042
vt 0.928125 0.901042
vt 0.437500 0.861817
vt 0.468750 -0.299317
vt 0.468750 0.861817
vt 0.463729 0.921875
vt 0.483181 0.906263
vt 0.593468 0.906263
vt 6.407768 1.021825
vt -5.607769 0.478175
vt -5.605876 0.411117
vt 0.160417 -0.307500
vt 0.177908 1.057500
vt 0.160417 1.057500
vt 1.000000 0.520833
vt 0.833333 -0.020833
vt 1.000000 -0.020833
vt 0.833333 0.520833
vt 0.583333 -0.020833
vt 0.833333 -0.020833
vt -0.000250 -0.405941
vt 0.156500 1.062192
vt -0.000250 1.062192
vt 0.177908 1.057500
vt 0.277083 -0.307500
vt 0.277083 1.057500
vt 0.593678 0.936386
vt 0.468750 -0.299317
vt 0.437500 0.861817
vt 0.463729 0.937487
vt -5.607768 0.478175
vt -5.605877 0.411117
vt 0.177908 1.057500
vt 0.160417 -0.307500
vt 0.160417 1.057500
vt 0.833333 -0.020833
vt 1.000000 0.520833
vt 1.000000 -0.020833
vt 0.583333 -0.020833
vt 0.833333 0.520833
vt 0.833333 -0.020833
vt 0.156500 1.062192
vt -0.000250 -0.405942
vt -0.000250 1.062192
vt 0.277083 -0.307500
vt 0.177908 1.057500
vt 0.277083 1.057500
vt 0.593678 0.907364
vt 0.463590 0.936386
vt 0.978125 0.489583
vt 0.978125 0.651042
vt 0.437500 -0.299317
vt 0.593468 0.937487
vt 0.463729 0.906263
vt 6.405875 1.088884
vt 0.177908 -0.307500
vt 0.833333 0.520833
vt 0.583333 0.520833
vt 0.156500 -0.405942
vt 0.177908 -0.307500
vt 0.437500 -0.299317
vt 6.405875 1.088883
vt 0.177908 -0.307500
vt 0.583333 0.520833
vt 0.156500 -0.405942
vt 0.177908 -0.307500
s 0
f 16/1/1 2/2/1 6/3/1
f 4/4/1 6/5/1 2/6/1
f 1/7/2 7/8/2 3/9/2
f 14/10/3 10/11/3 9/12/3
f 1/13/2 15/14/2 14/15/2
f 2/16/4 12/17/4 1/18/4
f 11/19/5 15/20/5 12/21/5
f 10/22/6 5/23/6 9/24/6
f 6/25/6 7/26/6 5/27/6
f 4/28/5 1/29/5 3/30/5
f 15/31/5 13/32/5 14/33/5
f 18/2/1 28/1/1 25/34/1
f 20/5/1 4/4/1 18/6/1
f 7/8/2 17/7/2 3/9/2
f 22/35/4 26/36/4 21/12/4
f 27/14/2 17/13/2 19/37/2
f 24/38/3 18/16/3 17/39/3
f 27/40/5 23/41/5 24/42/5
f 19/43/6 22/44/6 21/45/6
f 7/46/6 20/47/6 19/48/6
f 17/49/5 4/50/5 3/51/5
f 25/52/5 27/53/5 26/54/5
f 6/3/1 10/55/1 13/34/1
f 16/1/1 11/56/1 2/2/1
f 6/3/1 13/34/1 16/1/1
f 4/4/1 8/57/1 6/5/1
f 1/7/2 5/58/2 7/8/2
f 14/10/3 13/59/3 10/11/3
f 14/15/2 9/60/2 5/37/2
f 1/13/2 12/61/2 15/14/2
f 14/15/2 5/37/2 1/13/2
f 2/16/4 11/62/4 12/17/4
f 11/19/5 16/63/5 15/20/5
f 10/22/6 6/64/6 5/23/6
f 6/25/6 8/65/6 7/26/6
f 4/28/5 2/66/5 1/29/5
f 15/31/5 16/67/5 13/32/5
f 25/34/1 22/55/1 20/3/1
f 18/2/1 23/56/1 28/1/1
f 25/34/1 20/3/1 18/2/1
f 20/5/1 8/57/1 4/4/1
f 7/8/2 19/58/2 17/7/2
f 22/35/4 25/68/4 26/36/4
f 19/37/2 21/60/2 26/15/2
f 27/14/2 24/61/2 17/13/2
f 19/37/2 26/15/2 27/14/2
f 24/38/3 23/69/3 18/16/3
f 27/40/5 28/70/5 23/41/5
f 19/43/6 20/47/6 22/44/6
f 7/46/6 8/71/6 20/47/6
f 17/49/5 18/72/5 4/50/5
f 25/52/5 28/73/5 27/53/5
