# Blender 4.3.0
# www.blender.org
o Straight_Transition
v -12.999999 0.000000 -25.000000
v 12.999999 0.000000 -25.000000
v -12.999999 -0.200000 -25.000000
v 12.999999 -0.200000 -25.000000
v -12.999999 -0.200000 -22.000000
v 12.999999 -0.200000 -22.000000
v -12.999999 -0.200000 -20.000000
v 12.999999 -0.200000 -20.000000
v -12.999999 -0.022572 -21.000000
v 12.999999 -0.022572 -21.000000
v 12.999999 -0.200000 -21.000000
v -12.999999 -0.200000 -21.000000
v -12.999999 -0.104114 -20.000000
v 12.999999 -0.022572 -20.000000
v -12.999999 -0.003972 -21.824047
v -12.999999 0.000000 -22.372593
v -12.999999 -0.058785 -22.000000
v 12.999999 -0.003972 -22.000000
v -9.000000 0.000000 -25.000000
v -9.000000 -0.200000 -25.000000
v -9.000000 -0.200000 -21.000000
v -9.000000 -0.022572 -21.000000
v -9.000000 -0.200000 -22.000000
v -9.000000 -0.200000 -20.000000
v -9.000000 -0.104114 -20.000000
v -7.000000 -0.200000 -21.000000
v -7.000000 -0.003972 -22.000000
v -7.000000 0.000000 -25.000000
v -7.000000 -0.200000 -25.000000
v -7.000000 -0.200000 -22.000000
v -7.000000 -0.200000 -20.000000
v -7.000000 0.000000 -20.000000
v -6.999740 0.177360 -20.994797
v 13.000259 0.177360 -20.994797
v 13.000259 0.177360 -19.994797
v -6.999740 0.195961 -21.994799
v 13.000259 0.195961 -21.994799
v -6.999740 0.177360 -19.994797
v -9.001123 -0.003972 -19.998863
v -9.001123 -0.003972 -21.822910
v -7.001122 0.039180 -21.822910
v -7.001122 0.043151 -19.998863
v -9.000000 -0.049452 -20.995636
v -9.001123 -0.003972 -20.994499
v -12.999999 -0.200000 -28.000000
v 12.999999 -0.200000 -28.000000
v -12.999999 -0.200000 -30.000000
v 12.999999 -0.200000 -30.000000
v -12.999999 -0.022572 -29.000000
v 12.999999 -0.022572 -29.000000
v 12.999999 -0.200000 -29.000000
v -12.999999 -0.200000 -29.000000
v -12.999999 -0.104114 -30.000000
v 12.999999 -0.022572 -30.000000
v -12.999999 -0.003972 -28.175953
v -12.999999 0.000000 -27.627407
v -12.999999 -0.058785 -28.000000
v 12.999999 -0.003972 -28.000000
v -9.000000 -0.200000 -29.000000
v -9.000000 -0.022572 -29.000000
v -9.000000 -0.200000 -28.000000
v -9.000000 -0.200000 -30.000000
v -9.000000 -0.104114 -30.000000
v -7.000000 -0.200000 -29.000000
v -7.000000 -0.003972 -28.000000
v -7.000000 -0.200000 -28.000000
v -7.000000 -0.200000 -30.000000
v -7.000000 0.000000 -30.000000
v -6.999740 0.177360 -29.005203
v 13.000259 0.177360 -29.005203
v 13.000259 0.177360 -30.005203
v -6.999740 0.195961 -28.005201
v 13.000259 0.195961 -28.005201
v -6.999740 0.177360 -30.005203
v -9.001123 -0.003972 -30.001137
v -9.001123 -0.003972 -28.177090
v -7.001122 0.039180 -28.177090
v -7.001122 0.043151 -30.001137
v -9.000000 -0.049452 -29.004364
v -9.001123 -0.003972 -29.005501
vn -1.0000 -0.0000 -0.0000
vn -0.0000 -1.0000 -0.0000
vn 1.0000 -0.0000 -0.0000
vn -0.0000 0.0260 -0.9997
vn 1.0000 -0.0013 -0.0000
vn -0.0000 -0.0000 1.0000
vn -0.0000 1.0000 0.0013
vn -0.0000 1.0000 -0.0013
vn 0.0048 1.0000 -0.0072
vn -0.0000 0.9967 0.0813
vn -0.0000 0.9997 0.0226
vn -0.0000 0.9998 0.0186
vn -0.0000 1.0000 -0.0000
vn -0.0881 0.0260 -0.9958
vn -0.0000 -0.0293 0.9996
vn 0.0210 -0.9713 0.2368
vn 0.0015 -0.0293 0.9996
vn 0.9997 0.0247 -0.0000
vn -0.0006 0.0264 -0.9997
vn 0.9999 0.0112 0.0006
vn -0.0902 0.9959 -0.0000
vn -0.0000 0.0260 0.9997
vn -0.0000 -0.0000 -1.0000
vn 0.0001 1.0000 -0.0013
vn 0.0008 1.0000 0.0013
vn -0.0000 0.9967 -0.0813
vn -0.0000 0.9997 -0.0226
vn -0.0000 0.9998 -0.0186
vn -0.0881 0.0260 0.9958
vn -0.0000 -0.0260 -0.9997
vn 0.0210 -0.9713 -0.2368
vn 0.0015 -0.0293 -0.9996
vn -0.0006 0.0113 0.9999
vn 0.9999 0.0112 -0.0006
vn 0.0001 1.0000 0.0013
vn -0.0000 -0.0260 0.9997
vn -0.0006 0.0113 -0.9999
vn -0.0978 0.9950 0.0185
vn -0.0000 1.0000 0.0072
vn -0.0000 -0.0293 -0.9996
vn -0.0006 0.0264 0.9997
vn -0.0978 0.9950 -0.0185
vt 0.528599 0.923637
vt 0.463729 0.926464
vt 0.463729 0.937487
vt 0.916667 0.104167
vt 1.000000 0.520833
vt 1.000000 0.104167
vt 0.978125 0.901042
vt 0.942821 0.651042
vt 0.928125 0.682091
vt 0.528634 0.907364
vt 0.593678 0.920237
vt 0.593678 0.907364
vt 0.593468 0.930002
vt 0.528599 0.937487
vt 0.593468 0.937487
vt 0.833333 0.104167
vt 0.916667 0.520833
vt 0.583333 0.104167
vt 0.833333 0.520833
vt -2.050690 0.875908
vt 1.270468 0.042461
vt -2.019941 0.980540
vt 0.463590 0.921587
vt 0.528972 0.934743
vt 0.528634 0.920237
vt 0.468750 0.593863
vt 0.454888 -0.299317
vt 0.453125 0.593863
vt 0.929118 0.651042
vt -0.000250 0.836325
vt 0.159978 0.724445
vt -0.000250 0.723392
vt 0.159978 0.724445
vt -0.000250 -0.405942
vt 0.159978 -0.404888
vt 0.170806 1.063742
vt 0.137032 1.062192
vt 0.468750 0.683181
vt 0.461259 0.861817
vt 0.468750 0.861817
vt 2.337168 0.039993
vt 1.635823 0.075860
vt 2.293905 -0.111756
vt 1.601115 -0.045885
vt 2.259196 -0.233501
vt 0.583333 -0.020833
vt 0.833333 0.062500
vt 0.833333 -0.020833
vt 0.916667 0.062500
vt 0.916667 -0.020833
vt 1.000000 0.062500
vt 1.000000 -0.020833
vt 0.461259 0.683181
vt 0.583333 0.062500
vt 1.305255 0.164472
vt -2.027240 0.954930
vt 1.263169 0.016851
vt 1.356939 0.299931
vt -1.973540 1.097242
vt 1.317111 0.159311
vt 1.270182 0.043067
vt 1.309554 -0.062434
vt 0.594016 0.934743
vt 0.439269 -0.299328
vt 0.439269 0.593853
vt 1.270180 0.043070
vt 1.279239 0.019905
vt 0.158344 0.178434
vt 0.109057 0.083249
vt 0.158344 0.000000
vt 0.302718 0.767619
vt 0.170985 0.837767
vt 0.301074 0.760271
vt 0.186219 0.131460
vt 0.121094 0.063023
vt 0.457112 0.670308
vt 0.012424 0.447326
vt 0.420480 0.008946
vt 0.412759 0.456215
vt 0.397724 0.994975
vt 0.412642 0.456146
vt 0.159978 -0.404888
vt 0.159978 0.724445
vt 0.475143 0.922185
vt 0.978125 0.651042
vt 1.270468 0.042461
vt 1.239719 -0.062171
vt 0.463590 0.921587
vt 0.468750 -0.299317
vt 0.159978 0.724445
vt 0.170806 0.837875
vt -2.027240 0.954930
vt 1.263169 0.016851
vt 1.309554 -0.062434
vt 0.454889 -0.299317
vt -0.000000 0.987930
vt 0.583333 0.520833
vt 0.928125 0.901042
vt 1.239719 -0.062171
vt 0.463928 0.936093
vt -0.000250 1.062192
vt 1.679086 0.227608
vt -1.985154 1.102551
vt -1.926359 1.244321
vt 0.301073 0.760282
vt 0.001847 -0.095114
vt -2.019941 0.980541
vt 0.463928 0.936093
vt 0.001847 -0.095114
s 0
f 9/1/1 17/2/1 5/3/1
f 26/4/2 8/5/2 31/6/2
f 3/7/1 17/8/1 16/9/1
f 11/10/3 14/11/3 8/12/3
f 13/13/1 12/14/1 7/15/1
f 30/16/2 11/17/2 26/4/2
f 29/18/2 6/19/2 30/16/2
f 18/20/4 36/21/4 37/22/4
f 18/23/5 34/24/5 10/25/5
f 31/26/6 14/27/6 32/28/6
f 15/29/1 16/9/1 17/8/1
f 19/30/7 27/31/7 28/32/7
f 65/33/8 2/34/8 58/35/8
f 19/30/9 55/36/9 56/37/9
f 24/38/6 13/39/6 7/40/6
f 13/41/10 22/42/10 9/43/10
f 9/43/11 40/44/11 15/45/11
f 3/46/2 23/47/2 5/48/2
f 5/48/2 21/49/2 12/50/2
f 12/50/2 24/51/2 7/52/2
f 31/26/6 25/53/6 24/38/6
f 20/54/2 30/16/2 23/47/2
f 23/47/2 26/4/2 21/49/2
f 21/49/2 31/6/2 24/51/2
f 33/55/12 37/56/12 36/57/12
f 38/58/13 34/59/13 33/60/13
f 27/61/14 40/44/14 36/62/14
f 14/11/5 34/24/5 35/63/5
f 32/28/15 35/64/15 38/65/15
f 40/44/16 27/66/16 41/67/16
f 25/68/17 32/69/17 38/70/17
f 43/71/18 40/72/18 44/73/18
f 32/69/19 39/74/19 42/75/19
f 43/71/20 39/76/20 25/53/20
f 33/77/21 40/78/21 44/79/21
f 39/80/21 33/77/21 44/81/21
f 18/82/7 28/32/7 27/83/7
f 45/3/1 55/84/1 49/1/1
f 48/5/2 64/4/2 67/6/2
f 56/9/1 45/85/1 3/7/1
f 54/11/3 51/10/3 48/12/3
f 52/14/1 53/13/1 47/15/1
f 51/17/2 66/16/2 64/4/2
f 46/19/2 29/18/2 66/16/2
f 58/20/22 72/86/22 65/87/22
f 70/24/5 58/88/5 50/25/5
f 67/26/23 54/27/23 48/89/23
f 55/29/1 57/8/1 56/9/1
f 19/30/24 65/90/24 76/91/24
f 16/37/25 40/91/25 19/30/25
f 53/39/23 62/38/23 47/40/23
f 60/42/26 53/41/26 49/43/26
f 76/44/27 49/43/27 55/45/27
f 61/47/2 3/46/2 45/48/2
f 59/49/2 45/48/2 52/50/2
f 62/51/2 52/50/2 47/52/2
f 63/53/23 67/26/23 62/38/23
f 66/16/2 20/54/2 61/47/2
f 64/4/2 61/47/2 59/49/2
f 67/6/2 59/49/2 62/51/2
f 73/92/28 69/55/28 72/93/28
f 70/59/13 74/58/13 69/60/13
f 65/61/29 72/94/29 76/44/29
f 54/11/5 70/24/5 50/25/5
f 68/28/30 71/64/30 54/95/30
f 76/44/31 77/67/31 65/66/31
f 63/68/32 74/70/32 68/69/32
f 79/71/18 80/73/18 76/72/18
f 68/69/33 75/74/33 63/68/33
f 75/76/34 79/71/34 63/53/34
f 76/78/21 69/77/21 80/79/21
f 75/80/21 69/77/21 74/96/21
f 10/25/3 6/19/3 18/23/3
f 18/82/3 4/97/3 2/34/3
f 4/97/3 58/35/3 2/34/3
f 50/25/3 46/19/3 51/17/3
f 5/3/1 12/14/1 9/1/1
f 9/1/1 15/84/1 17/2/1
f 26/4/2 11/17/2 8/5/2
f 16/9/1 1/98/1 3/7/1
f 3/7/1 5/85/1 17/8/1
f 11/10/3 10/25/3 14/11/3
f 13/13/1 9/1/1 12/14/1
f 30/16/2 6/19/2 11/17/2
f 29/18/2 4/97/2 6/19/2
f 18/20/4 27/99/4 36/21/4
f 18/23/5 37/100/5 34/24/5
f 31/26/6 8/89/6 14/27/6
f 19/30/35 40/91/35 27/31/35
f 65/33/8 28/32/8 2/34/8
f 56/37/13 1/101/13 19/30/13
f 19/30/8 76/91/8 55/36/8
f 24/38/6 25/53/6 13/39/6
f 13/41/10 25/102/10 22/42/10
f 9/43/11 22/42/11 40/44/11
f 3/46/2 20/54/2 23/47/2
f 5/48/2 23/47/2 21/49/2
f 12/50/2 21/49/2 24/51/2
f 31/26/6 32/28/6 25/53/6
f 20/54/2 29/18/2 30/16/2
f 23/47/2 30/16/2 26/4/2
f 21/49/2 26/4/2 31/6/2
f 33/55/12 34/103/12 37/56/12
f 38/58/13 35/104/13 34/59/13
f 14/11/5 10/25/5 34/24/5
f 32/28/36 14/95/36 35/64/36
f 32/69/37 25/68/37 39/74/37
f 43/71/18 44/105/18 39/76/18
f 33/77/38 36/106/38 40/78/38
f 39/80/21 38/96/21 33/77/21
f 18/82/7 2/34/7 28/32/7
f 49/1/1 52/14/1 45/3/1
f 45/3/1 57/2/1 55/84/1
f 48/5/2 51/17/2 64/4/2
f 3/7/1 1/98/1 56/9/1
f 56/9/1 57/8/1 45/85/1
f 54/11/3 50/25/3 51/10/3
f 52/14/1 49/1/1 53/13/1
f 51/17/2 46/19/2 66/16/2
f 46/19/2 4/97/2 29/18/2
f 58/20/22 73/107/22 72/86/22
f 70/24/5 73/108/5 58/88/5
f 67/26/23 68/28/23 54/27/23
f 19/30/8 28/32/8 65/90/8
f 19/30/13 1/101/13 16/37/13
f 16/37/39 15/36/39 40/91/39
f 53/39/23 63/53/23 62/38/23
f 60/42/26 63/102/26 53/41/26
f 76/44/27 60/42/27 49/43/27
f 61/47/2 20/54/2 3/46/2
f 59/49/2 61/47/2 45/48/2
f 62/51/2 59/49/2 52/50/2
f 63/53/23 68/28/23 67/26/23
f 66/16/2 29/18/2 20/54/2
f 64/4/2 66/16/2 61/47/2
f 67/6/2 64/4/2 59/49/2
f 73/92/28 70/103/28 69/55/28
f 70/59/13 71/104/13 74/58/13
f 54/11/5 71/63/5 70/24/5
f 68/28/40 74/65/40 71/64/40
f 68/69/41 78/75/41 75/74/41
f 75/76/18 80/105/18 79/71/18
f 76/78/42 72/109/42 69/77/42
f 75/80/21 80/81/21 69/77/21
f 10/25/3 11/17/3 6/19/3
f 18/82/3 6/19/3 4/97/3
f 4/97/3 46/19/3 58/35/3
f 50/25/3 58/88/3 46/19/3
