# Blender 4.3.0
# www.blender.org
o T_Intersection_noSide
v -86.311035 -0.003972 49.000000
v -88.390640 0.000000 51.000511
v -86.486984 0.000000 52.904171
v -85.135872 0.000000 50.679138
v -85.753464 0.000000 50.266479
v -86.166130 0.000000 49.648888
v -92.662933 0.000000 52.904171
v -90.583328 0.000000 51.000511
v -94.486984 -0.104114 52.904171
v -94.486984 -0.200000 52.904171
v -93.486984 -0.022572 49.000000
v -93.486984 -0.052057 52.904171
v -85.486984 -0.022572 49.000000
v -85.486984 -0.022572 49.052551
v -85.414864 -0.022572 49.415123
v -85.209480 -0.022572 49.722496
v -84.902107 -0.022572 49.927879
v -84.539536 -0.022572 50.000000
v -94.486984 -0.104114 54.000000
v -94.486984 -0.200000 54.000000
v -93.486984 -0.052057 54.000000
v -86.486984 0.000000 54.000000
v -84.486984 0.000000 54.000000
v -92.662933 0.000000 54.000000
v -92.114395 0.000000 49.522095
v -92.114395 0.000000 54.000000
v -92.114395 0.000000 52.423313
v -92.114395 0.000000 48.998978
v -86.764656 -0.001553 49.433456
v -86.859573 0.000000 49.000000
v -84.920311 0.000000 51.277748
v -86.671661 -0.001402 49.853188
v -86.136398 0.000118 50.649422
v -85.335327 0.000118 51.184681
v -88.390640 0.000000 56.999489
v -86.486984 0.000000 55.095829
v -85.135872 0.000000 57.320862
v -85.753464 0.000000 57.733521
v -86.166130 0.000000 58.351112
v -92.662933 0.000000 55.095829
v -90.583328 0.000000 56.999489
v -94.486984 -0.104114 55.095829
v -92.662933 0.000000 59.000000
v -94.486984 -0.200000 55.095829
v -94.486984 -0.200000 59.000000
v -93.486984 -0.052057 55.095829
v -85.486984 -0.022572 58.947449
v -85.414864 -0.022572 58.584877
v -85.209480 -0.022572 58.277504
v -84.902107 -0.022572 58.072121
v -84.539536 -0.022572 58.000000
v -92.114395 0.000000 58.477905
v -92.114395 0.000000 55.576687
v -86.764656 -0.001553 58.566544
v -84.920311 0.000000 56.722252
v -86.671661 -0.001402 58.146812
v -86.136398 0.000118 57.350578
v -85.335327 0.000118 56.815319
v -71.486984 0.000000 54.000000
v -84.486984 -0.200000 54.000000
v -71.486984 -0.200000 54.000000
v -84.486984 -0.200000 57.000000
v -71.486984 -0.200000 57.000000
v -84.486984 -0.200000 59.000000
v -71.486984 -0.200000 59.000000
v -84.486984 -0.022572 58.000000
v -71.486984 -0.022572 58.000000
v -71.486984 -0.200000 58.000000
v -84.486984 -0.200000 58.000000
v -71.486984 -0.104114 59.000000
v -84.486984 -0.003972 57.175953
v -84.486984 0.000000 56.627407
v -71.486984 0.000000 56.627407
v -71.486984 -0.003972 57.175953
v -71.486984 -0.058785 57.000000
v -84.486984 -0.200000 51.000000
v -71.486984 -0.200000 51.000000
v -71.486984 -0.200000 49.000000
v -84.486984 -0.022572 50.000000
v -71.486984 -0.022572 50.000000
v -71.486984 -0.200000 50.000000
v -84.486984 -0.200000 50.000000
v -71.486984 -0.104114 49.000000
v -84.486984 -0.003972 50.824047
v -84.486984 0.000000 51.372593
v -71.486984 0.000000 51.372593
v -71.486984 -0.003972 50.824047
v -71.486984 -0.058785 51.000000
v -89.486984 0.000000 49.000000
v -89.486984 0.000000 36.000000
v -89.486984 -0.200000 49.000000
v -89.486984 -0.200000 36.000000
v -86.486984 -0.200000 49.000000
v -86.486984 -0.200000 36.000000
v -84.486984 -0.200000 49.000000
v -84.486984 -0.200000 36.000000
v -85.486984 -0.022572 36.000000
v -85.486984 -0.200000 36.000000
v -85.486984 -0.200000 49.000000
v -84.486984 -0.104114 49.000000
v -84.486984 -0.104114 36.000000
v -86.859581 0.000000 36.000000
v -86.311035 -0.003972 36.000000
v -86.486984 -0.058785 36.000000
v -92.486984 -0.200000 49.000000
v -92.486984 -0.200000 36.000000
v -94.486984 -0.200000 49.000000
v -94.486984 -0.200000 36.000000
v -93.486984 -0.022572 36.000000
v -93.486984 -0.200000 36.000000
v -93.486984 -0.200000 49.000000
v -94.486984 -0.104114 49.000000
v -94.486984 -0.104114 36.000000
v -92.662933 -0.003972 49.000000
v -92.114395 0.000000 36.000000
v -92.662941 -0.003972 36.000000
v -92.486984 -0.058785 36.000000
v -89.486984 0.000000 72.000000
v -89.486984 -0.200000 59.000000
v -89.486984 -0.200000 72.000000
v -92.486984 -0.200000 59.000000
v -92.486984 -0.200000 72.000000
v -94.486984 -0.200000 72.000000
v -93.486984 -0.022572 59.000000
v -93.486984 -0.022572 72.000000
v -93.486984 -0.200000 72.000000
v -93.486984 -0.200000 59.000000
v -94.486984 -0.104114 59.000000
v -94.486984 -0.104114 72.000000
v -92.114395 0.000000 59.000000
v -92.114388 0.000000 72.000000
v -92.662933 -0.003972 72.000000
v -92.486984 -0.058785 72.000000
v -86.486984 -0.200000 59.000000
v -86.486984 -0.200000 72.000000
v -84.486984 -0.200000 72.000000
v -85.486984 -0.022572 59.000000
v -85.486984 -0.022572 72.000000
v -85.486984 -0.200000 72.000000
v -85.486984 -0.200000 59.000000
v -84.486984 -0.104114 59.000000
v -84.486984 -0.104114 72.000000
v -86.311035 -0.003972 59.000000
v -86.859581 0.000000 59.000000
v -86.859573 0.000000 72.000000
v -86.311028 -0.003972 72.000000
v -86.486984 -0.058785 72.000000
v -89.486984 0.000000 59.000000
vn -0.0007 1.0000 -0.0010
vn -0.0000 1.0000 -0.0000
vn 0.0072 1.0000 0.0020
vn -1.0000 -0.0000 -0.0000
vn -0.0813 0.9967 0.0075
vn -0.0630 0.9980 0.0075
vn -0.0520 0.9986 -0.0000
vn 0.0016 1.0000 -0.0072
vn -0.0630 0.9980 -0.0000
vn 0.0255 0.9993 -0.0255
vn -0.0072 1.0000 -0.0000
vn 0.0006 1.0000 -0.0005
vn -0.0048 1.0000 -0.0039
vn 0.0072 1.0000 -0.0020
vn -0.0813 0.9967 -0.0075
vn -0.0630 0.9980 -0.0075
vn 0.0795 0.9963 0.0329
vn 0.0016 1.0000 0.0072
vn 0.0229 0.9995 0.0229
vn -0.0024 1.0000 0.0003
vn 1.0000 -0.0000 -0.0000
vn -0.0000 -1.0000 -0.0000
vn -0.0000 0.9997 0.0226
vn -0.0000 0.9967 0.0813
vn -0.0000 -0.0000 1.0000
vn -0.0000 1.0000 0.0072
vn -0.0000 0.9997 -0.0226
vn -0.0000 0.9967 -0.0813
vn -0.0000 -0.0000 -1.0000
vn -0.0000 1.0000 -0.0072
vn 0.0226 0.9997 -0.0000
vn 0.0813 0.9967 -0.0000
vn 0.0072 1.0000 -0.0000
vn -0.0226 0.9997 -0.0000
vn -0.0813 0.9967 -0.0000
vn -0.0274 0.9996 0.0003
vn -0.0072 1.0000 0.0003
vn 0.0067 1.0000 -0.0024
vn 0.0004 1.0000 -0.0006
vn -0.0034 1.0000 0.0004
vn -0.0004 1.0000 -0.0060
vn 0.0002 1.0000 -0.0001
vn -0.0034 1.0000 0.0023
vn -0.0226 0.9997 -0.0010
vn 0.0770 0.9941 -0.0770
vn 0.0226 0.9997 -0.0112
vn 0.0112 0.9997 -0.0226
vn -0.0000 0.9994 -0.0332
vn 0.0332 0.9994 -0.0000
vn 0.0283 0.9996 -0.0056
vn 0.0056 0.9996 -0.0283
vn 0.0249 0.9996 -0.0166
vn 0.0166 0.9996 -0.0249
vn -0.0063 1.0000 -0.0010
vn 0.0036 1.0000 0.0028
vn 0.0002 1.0000 0.0002
vn 0.0005 1.0000 -0.0005
vn -0.0024 1.0000 -0.0003
vn 0.0067 1.0000 0.0024
vn 0.0004 1.0000 0.0006
vn -0.0034 1.0000 -0.0004
vn -0.0004 1.0000 0.0060
vn -0.0034 1.0000 -0.0023
vn 0.0011 1.0000 0.0019
vn -0.0274 0.9996 -0.0000
vn 0.0329 0.9963 0.0795
vn 0.0226 0.9997 0.0112
vn 0.0112 0.9997 0.0226
vn -0.0000 0.9994 0.0332
vn 0.0283 0.9996 0.0056
vn 0.0249 0.9996 0.0166
vn 0.0056 0.9996 0.0283
vn 0.0266 0.9989 0.0399
vn 0.0036 1.0000 -0.0028
vn 0.0002 1.0000 -0.0002
vn 0.0005 1.0000 0.0005
vn 0.0006 1.0000 0.0005
vt 0.569894 0.128748
vt 0.594195 0.055519
vt 0.600990 0.135836
vt 0.131226 0.515428
vt 0.059545 0.584643
vt 0.059545 0.448816
vt 0.557992 0.048128
vt 0.585340 0.030934
vt 0.401230 -0.000000
vt 0.410819 0.390417
vt 0.401230 0.390417
vt 0.410819 0.500000
vt 0.401230 0.500000
vt 0.200271 0.000000
vt 0.100135 0.390417
vt 0.099982 0.000000
vt 0.017585 0.390414
vt 0.395067 0.100021
vt 0.328072 0.127756
vt 0.300322 0.194715
vt 0.200271 0.390417
vt 0.100135 0.500000
vt 0.541426 0.223594
vt 0.524230 0.196246
vt 0.560057 0.205282
vt 0.323005 0.375000
vt 0.233881 0.515428
vt 0.017571 0.500000
vt 0.017571 0.390417
vt 0.335429 0.032074
vt 0.232403 0.135044
vt 0.033864 0.426304
vt 0.059545 0.375000
vt 0.033864 0.375000
vt 0.059545 0.609134
vt 0.033864 0.609086
vt 0.182553 0.609031
vt 0.314353 0.569059
vt 0.310004 0.588655
vt 0.323005 0.426304
vt 0.416637 0.498008
vt 0.400329 0.200236
vt 0.307534 0.158477
vt 0.339396 0.531842
vt 0.396215 0.502447
vt 0.463590 0.907364
vt 0.475034 0.921587
vt 0.528634 0.920237
vt 0.916667 -0.020833
vt 1.000000 0.250000
vt 1.000000 -0.020833
vt 0.528634 0.907364
vt 0.593678 0.914321
vt 0.593678 0.907364
vt 0.833333 -0.020833
vt 0.916667 0.250000
vt 0.583333 -0.020833
vt 0.833333 0.250000
vt 2.293905 -0.111756
vt 0.120431 0.376251
vt 2.259196 -0.233501
vt 0.198402 0.649744
vt 0.155140 0.497996
vt 0.468750 0.281250
vt 0.461259 0.861817
vt 0.468750 0.861817
vt 0.942821 0.739583
vt 0.978125 0.489583
vt 0.928125 0.489583
vt 0.456992 0.921875
vt 0.463590 0.917610
vt 0.137032 1.062192
vt 0.170806 0.329675
vt 0.137032 0.328125
vt -0.000250 1.062192
vt -0.000250 0.328125
vt 0.463590 0.917610
vt 0.463590 0.907364
vt 2.337168 0.039993
vt 0.978125 0.739583
vt 0.942821 0.739583
vt 0.475034 0.921587
vt 0.170806 1.063742
vt 0.461259 0.281250
vt 0.552039 0.168681
vt 0.577830 0.187633
vt 0.602716 0.079361
vt 0.571108 0.085022
vt 0.410819 -0.000000
vt 0.017577 -0.000001
vt 0.300322 0.199967
vt 0.400322 0.100021
vt 0.358810 0.107229
vt 0.200271 0.500000
vt 0.400699 0.017606
vt 0.273669 0.073318
vt 0.217908 0.199528
vt 0.305560 0.608928
vt 0.059545 0.609135
vt 0.376838 0.506800
vt 0.416639 0.375000
vt 0.583333 0.250000
vt 0.928125 0.708534
vt 0.928125 0.708534
s 0
f 5/1/1 29/2/1 33/3/1
f 8/4/2 25/5/2 27/6/2
f 1/7/3 30/8/3 29/2/3
f 112/9/4 10/10/4 9/11/4
f 9/11/4 20/12/4 19/13/4
f 112/14/5 12/15/5 11/16/5
f 7/17/6 11/16/6 12/15/6
f 14/18/2 16/19/2 18/20/2
f 9/21/7 21/22/7 12/15/7
f 85/23/8 84/24/8 31/25/8
f 27/6/2 22/26/2 2/27/2
f 12/15/9 24/28/9 7/29/9
f 6/30/10 4/31/10 16/19/10
f 25/5/2 7/32/2 27/6/2
f 26/33/2 7/32/2 24/34/2
f 25/5/11 28/35/11 114/36/11
f 89/37/2 25/5/2 2/27/2
f 32/38/12 29/39/12 3/40/12
f 85/41/2 3/40/2 22/26/2
f 55/25/13 54/2/13 38/1/13
f 41/4/2 53/6/2 52/5/2
f 143/7/14 54/2/14 144/8/14
f 44/10/4 128/9/4 42/11/4
f 20/12/4 42/11/4 19/13/4
f 46/15/15 128/14/15 124/16/15
f 124/16/16 40/17/16 46/15/16
f 49/19/17 47/18/17 141/42/17
f 21/22/7 42/21/7 46/15/7
f 72/23/18 55/25/18 71/24/18
f 35/27/2 22/26/2 53/6/2
f 24/28/9 46/15/9 40/29/9
f 50/43/19 37/31/19 39/30/19
f 40/32/2 52/5/2 53/6/2
f 26/33/2 40/32/2 53/6/2
f 52/5/2 43/36/2 130/35/2
f 35/27/2 52/5/2 148/37/2
f 36/40/20 56/38/20 57/44/20
f 22/26/2 55/45/2 72/41/2
f 63/46/21 74/47/21 67/48/21
f 69/49/22 65/50/22 64/51/22
f 68/52/21 70/53/21 65/54/21
f 62/55/22 68/56/22 69/49/22
f 60/57/22 63/58/22 62/55/22
f 66/59/23 74/60/23 71/61/23
f 66/59/24 70/62/24 67/63/24
f 65/64/25 141/65/25 64/66/25
f 75/67/21 61/68/21 59/69/21
f 73/70/21 74/47/21 75/71/21
f 72/72/26 74/73/26 73/74/26
f 23/75/2 73/74/2 59/76/2
f 80/48/21 88/77/21 77/78/21
f 78/50/22 82/49/22 95/51/22
f 83/53/21 81/52/21 78/54/21
f 81/56/22 76/55/22 82/49/22
f 77/58/22 60/57/22 76/55/22
f 87/60/27 79/59/27 84/61/27
f 80/63/28 100/79/28 79/59/28
f 100/65/29 78/64/29 95/66/29
f 59/69/21 77/80/21 88/81/21
f 86/70/21 88/77/21 87/82/21
f 87/73/30 85/72/30 86/74/30
f 23/75/2 86/74/2 85/72/2
f 94/46/29 103/47/29 97/48/29
f 99/49/22 96/50/22 95/51/22
f 98/52/29 101/53/29 96/54/29
f 93/55/22 98/56/22 99/49/22
f 91/57/22 94/58/22 93/55/22
f 13/59/31 103/60/31 1/61/31
f 100/79/32 97/63/32 13/59/32
f 96/64/21 100/65/21 95/66/21
f 104/67/29 92/68/29 90/69/29
f 102/70/29 103/47/29 104/71/29
f 102/74/33 1/83/33 103/73/33
f 89/75/2 102/74/2 90/76/2
f 109/48/29 117/77/29 106/78/29
f 108/50/22 111/49/22 107/51/22
f 113/53/29 110/52/29 108/54/29
f 110/56/22 105/55/22 111/49/22
f 106/58/22 91/57/22 105/55/22
f 116/60/34 11/59/34 114/61/34
f 11/59/35 113/62/35 112/79/35
f 112/65/4 108/64/4 107/66/4
f 90/69/29 106/80/29 117/81/29
f 115/70/29 117/77/29 116/82/29
f 116/73/11 28/72/11 115/74/11
f 90/76/2 28/72/2 89/75/2
f 122/46/25 132/47/25 125/48/25
f 45/51/22 126/56/22 123/50/22
f 126/52/25 129/53/25 123/54/25
f 127/49/22 122/58/22 126/56/22
f 119/57/22 122/58/22 121/55/22
f 124/59/36 132/60/36 43/61/36
f 124/59/35 129/62/35 125/63/35
f 123/64/4 128/65/4 45/66/4
f 133/67/25 120/68/25 118/69/25
f 131/70/25 132/47/25 133/71/25
f 131/74/37 43/83/37 132/73/37
f 130/72/2 118/76/2 148/75/2
f 138/48/25 147/77/25 135/78/25
f 64/51/22 139/56/22 140/49/22
f 142/53/25 139/52/25 136/54/25
f 139/56/22 134/55/22 140/49/22
f 135/58/22 119/57/22 134/55/22
f 143/61/31 138/63/31 137/59/31
f 138/63/32 141/79/32 137/59/32
f 64/66/21 142/84/21 136/64/21
f 118/69/25 135/80/25 147/81/25
f 145/70/25 147/77/25 146/82/25
f 146/73/33 144/72/33 145/74/33
f 148/75/2 145/74/2 144/72/2
f 99/49/22 62/55/22 140/49/22
f 31/25/38 84/24/38 4/85/38
f 31/25/2 4/85/2 5/1/2
f 33/3/39 34/86/39 31/25/39
f 29/2/40 32/87/40 33/3/40
f 6/88/41 1/7/41 29/2/41
f 33/3/42 31/25/42 5/1/42
f 5/1/43 6/88/43 29/2/43
f 112/9/4 107/89/4 10/10/4
f 9/11/4 10/10/4 20/12/4
f 112/14/7 9/21/7 12/15/7
f 7/17/44 114/90/44 11/16/44
f 18/20/28 79/91/28 100/42/28
f 100/42/32 13/92/32 14/18/32
f 14/18/2 15/93/2 16/19/2
f 16/19/2 17/43/2 18/20/2
f 18/20/45 100/42/45 14/18/45
f 9/21/7 19/94/7 21/22/7
f 2/27/2 8/4/2 27/6/2
f 27/6/2 26/33/2 22/26/2
f 22/26/2 3/40/2 2/27/2
f 12/15/9 21/22/9 24/28/9
f 13/92/46 1/95/46 6/30/46
f 6/30/2 5/96/2 4/31/2
f 4/31/47 84/97/47 79/91/47
f 4/31/48 79/91/48 18/20/48
f 14/18/49 13/92/49 6/30/49
f 15/93/50 14/18/50 6/30/50
f 4/31/51 18/20/51 17/43/51
f 16/19/52 15/93/52 6/30/52
f 4/31/53 17/43/53 16/19/53
f 25/5/54 114/36/54 7/32/54
f 26/33/2 27/6/2 7/32/2
f 2/27/55 29/39/55 30/98/55
f 89/37/2 28/99/2 25/5/2
f 2/27/2 30/98/2 89/37/2
f 25/5/2 8/4/2 2/27/2
f 3/40/56 31/45/56 34/100/56
f 3/40/2 34/100/2 33/44/2
f 29/39/57 2/27/57 3/40/57
f 3/40/58 33/44/58 32/38/58
f 22/26/2 23/101/2 85/41/2
f 85/41/2 31/45/2 3/40/2
f 37/85/59 71/24/59 55/25/59
f 55/25/60 58/86/60 57/3/60
f 57/3/61 56/87/61 54/2/61
f 54/2/62 143/7/62 39/88/62
f 38/1/2 37/85/2 55/25/2
f 54/2/63 39/88/63 38/1/63
f 55/25/64 57/3/64 54/2/64
f 44/10/4 45/89/4 128/9/4
f 20/12/4 44/10/4 42/11/4
f 46/15/7 42/21/7 128/14/7
f 124/16/65 43/90/65 40/17/65
f 141/42/24 66/91/24 51/20/24
f 51/20/2 50/43/2 49/19/2
f 49/19/2 48/93/2 47/18/2
f 47/18/32 137/92/32 141/42/32
f 141/42/66 51/20/66 49/19/66
f 21/22/7 19/94/7 42/21/7
f 53/6/2 41/4/2 35/27/2
f 35/27/2 36/40/2 22/26/2
f 22/26/2 26/33/2 53/6/2
f 24/28/9 21/22/9 46/15/9
f 39/30/67 143/95/67 137/92/67
f 39/30/49 137/92/49 47/18/49
f 37/31/2 38/96/2 39/30/2
f 66/91/68 71/97/68 37/31/68
f 51/20/69 66/91/69 37/31/69
f 39/30/70 47/18/70 48/93/70
f 39/30/71 48/93/71 49/19/71
f 50/43/72 51/20/72 37/31/72
f 39/30/73 49/19/73 50/43/73
f 40/32/2 43/36/2 52/5/2
f 26/33/2 24/34/2 40/32/2
f 144/98/74 54/39/74 35/27/74
f 35/27/2 41/4/2 52/5/2
f 52/5/2 130/99/2 148/37/2
f 148/37/2 144/98/2 35/27/2
f 58/100/75 55/45/75 36/40/75
f 36/40/76 35/27/76 54/39/76
f 36/40/77 54/39/77 56/38/77
f 57/44/2 58/100/2 36/40/2
f 72/41/2 23/101/2 22/26/2
f 22/26/2 36/40/2 55/45/2
f 67/48/21 68/52/21 63/46/21
f 63/46/21 75/71/21 74/47/21
f 69/49/22 68/56/22 65/50/22
f 68/52/21 67/48/21 70/53/21
f 62/55/22 63/58/22 68/56/22
f 60/57/22 61/102/22 63/58/22
f 66/59/23 67/63/23 74/60/23
f 66/59/24 141/79/24 70/62/24
f 65/64/25 70/84/25 141/65/25
f 59/69/21 73/103/21 75/67/21
f 75/67/21 63/80/21 61/68/21
f 72/72/26 71/83/26 74/73/26
f 23/75/2 72/72/2 73/74/2
f 77/78/21 81/52/21 80/48/21
f 80/48/21 87/82/21 88/77/21
f 78/50/22 81/56/22 82/49/22
f 83/53/21 80/48/21 81/52/21
f 81/56/22 77/58/22 76/55/22
f 77/58/22 61/102/22 60/57/22
f 87/60/27 80/63/27 79/59/27
f 80/63/28 83/62/28 100/79/28
f 100/65/29 83/84/29 78/64/29
f 88/81/21 86/104/21 59/69/21
f 59/69/21 61/68/21 77/80/21
f 87/73/30 84/83/30 85/72/30
f 23/75/2 59/76/2 86/74/2
f 97/48/29 98/52/29 94/46/29
f 94/46/29 104/71/29 103/47/29
f 99/49/22 98/56/22 96/50/22
f 98/52/29 97/48/29 101/53/29
f 93/55/22 94/58/22 98/56/22
f 91/57/22 92/102/22 94/58/22
f 13/59/31 97/63/31 103/60/31
f 100/79/32 101/62/32 97/63/32
f 96/64/21 101/84/21 100/65/21
f 90/69/29 102/103/29 104/67/29
f 104/67/29 94/80/29 92/68/29
f 102/74/33 30/72/33 1/83/33
f 89/75/2 30/72/2 102/74/2
f 106/78/29 110/52/29 109/48/29
f 109/48/29 116/82/29 117/77/29
f 108/50/22 110/56/22 111/49/22
f 113/53/29 109/48/29 110/52/29
f 110/56/22 106/58/22 105/55/22
f 106/58/22 92/102/22 91/57/22
f 116/60/34 109/63/34 11/59/34
f 11/59/35 109/63/35 113/62/35
f 112/65/4 113/84/4 108/64/4
f 117/81/29 115/104/29 90/69/29
f 90/69/29 92/68/29 106/80/29
f 116/73/11 114/83/11 28/72/11
f 90/76/2 115/74/2 28/72/2
f 125/48/25 126/52/25 122/46/25
f 122/46/25 133/71/25 132/47/25
f 45/51/22 127/49/22 126/56/22
f 126/52/25 125/48/25 129/53/25
f 127/49/22 121/55/22 122/58/22
f 119/57/22 120/102/22 122/58/22
f 124/59/34 125/63/34 132/60/34
f 124/59/35 128/79/35 129/62/35
f 123/64/4 129/84/4 128/65/4
f 118/69/25 131/103/25 133/67/25
f 133/67/25 122/80/25 120/68/25
f 131/74/2 130/72/2 43/83/2
f 130/72/2 131/74/2 118/76/2
f 135/78/25 139/52/25 138/48/25
f 138/48/25 146/82/25 147/77/25
f 64/51/22 136/50/22 139/56/22
f 142/53/25 138/48/25 139/52/25
f 139/56/22 135/58/22 134/55/22
f 135/58/22 120/102/22 119/57/22
f 143/61/31 146/60/31 138/63/31
f 138/63/32 142/62/32 141/79/32
f 64/66/21 141/65/21 142/84/21
f 147/81/25 145/104/25 118/69/25
f 118/69/25 120/68/25 135/80/25
f 146/73/33 143/83/33 144/72/33
f 148/75/2 118/76/2 145/74/2
f 10/10/22 107/89/22 111/49/22
f 10/10/22 111/49/22 105/55/22
f 20/12/22 10/10/22 105/55/22
f 20/12/22 105/55/22 91/57/22
f 127/49/22 45/51/22 44/10/22
f 44/10/22 20/12/22 91/57/22
f 44/10/22 91/57/22 93/55/22
f 121/55/22 127/49/22 44/10/22
f 140/49/22 134/55/22 119/57/22
f 119/57/22 121/55/22 44/10/22
f 44/10/22 93/55/22 99/49/22
f 99/49/22 95/51/22 82/49/22
f 99/49/22 82/49/22 76/55/22
f 119/57/22 44/10/22 99/49/22
f 69/49/22 64/51/22 140/49/22
f 140/49/22 119/57/22 99/49/22
f 99/49/22 76/55/22 60/57/22
f 62/55/22 69/49/22 140/49/22
f 99/49/22 60/57/22 62/55/22
