# Blender 4.3.2
# www.blender.org
o T_Intersection_transition
v 0.000000 0.100000 0.000000
v 0.000000 -0.100000 0.000000
v -0.000004 -0.100000 -12.999744
v 3.000000 -0.100000 0.000000
v 5.000004 -0.100000 -0.000002
v 3.999996 0.107565 -0.000002
v 3.999992 0.107565 -12.999744
v 3.999992 -0.100000 -12.999744
v 3.999996 -0.100000 -0.000002
v 5.000004 0.026023 -0.000002
v 4.999989 0.107565 -12.999745
v 3.175953 0.096028 0.000000
v 2.627403 0.100000 0.000000
v 3.000000 0.071352 0.000000
v 2.999996 0.096028 -12.999744
v -0.000001 0.100000 -4.000002
v -0.000001 -0.100000 -4.000002
v 3.999995 -0.100000 -4.000003
v 4.002464 0.105495 -3.999722
v 2.999999 -0.100000 -4.000003
v 5.000002 -0.100000 -4.000003
v 5.000002 0.026023 -4.000003
v 3.999994 -0.100000 -6.000001
v 2.999998 0.096028 -6.000001
v -0.000002 0.100000 -6.000000
v -0.000002 -0.100000 -6.000000
v 2.999998 -0.100000 -6.000001
v 5.000002 -0.100000 -6.000001
v 5.000002 0.130137 -6.000001
v 4.005199 0.307497 -13.000002
v 3.005205 0.326098 -6.000264
v 5.005198 0.307497 -6.000264
v 5.001135 0.126165 -3.998881
v 3.177085 0.096028 -3.998881
v -4.002467 0.105495 -3.999721
v 4.005499 0.126165 -3.998881
v -3.000000 -0.100000 0.000000
v -3.000004 -0.100000 -12.999743
v -5.000004 -0.100000 0.000002
v -5.000008 -0.100000 -12.999743
v -3.999996 0.107565 0.000002
v -4.000011 0.107565 -12.999743
v -4.000011 -0.100000 -12.999743
v -3.999996 -0.100000 0.000002
v -5.000004 0.026023 0.000002
v -5.000008 0.107565 -12.999743
v -3.175953 0.096028 0.000000
v -2.627403 0.100000 0.000000
v -3.000000 0.071352 0.000000
v -3.000004 0.096028 -12.999743
v -3.999997 -0.100000 -4.000001
v -3.000001 -0.100000 -4.000001
v -5.000005 -0.100000 -4.000001
v -5.000005 0.026023 -4.000001
v -3.999998 -0.100000 -5.999999
v -3.000002 0.096028 -5.999999
v -3.000002 -0.100000 -5.999999
v -5.000006 -0.100000 -5.999999
v -5.000006 0.130137 -5.999999
v -4.005207 0.281400 -13.000000
v -3.005209 0.300000 -6.000262
v -5.005201 0.281400 -6.000262
v -5.001138 0.126165 -3.998879
v -3.177087 0.096028 -3.998879
v -4.005502 0.126165 -3.998879
v 4.996129 -0.100000 -22.999737
v 4.996131 0.100000 -14.999738
v 4.996132 -0.100000 -12.999734
v -3.003875 0.100000 -22.999737
v -0.003875 -0.100000 -22.999737
v -5.003867 -0.100000 -22.999739
v -3.003875 0.300000 -22.999737
v -5.003867 0.300000 -22.999739
v 2.996125 -0.100000 -22.999739
v 2.996128 -0.100000 -12.999733
v -3.003872 0.300000 -12.999737
v 5.005216 0.100000 -20.999229
v 5.005219 0.300000 -12.990653
v 5.005216 0.300000 -23.008820
v 4.899793 0.100000 -20.999229
v 2.996125 0.100000 -22.999741
v 1.092470 0.100000 -20.999228
v 2.996127 0.100000 -19.095566
v 4.171297 0.100000 -21.144133
v 3.553705 0.100000 -21.556795
v 3.141042 0.100000 -22.174387
v -3.003874 0.100000 -19.095564
v -1.100206 0.100000 -20.999228
v 4.899784 0.100000 -15.000247
v 2.996127 0.100000 -16.903908
v 1.092472 0.100000 -15.000246
v 3.141033 0.100000 -13.825087
v 3.553695 0.100000 -14.442678
v 4.171287 0.100000 -14.855342
v -1.100205 0.100000 -15.000245
v -3.003873 0.100000 -16.903906
v 4.899784 0.300000 -15.000247
v 3.005192 0.326098 -13.000002
v 4.171287 0.300000 -14.855342
v 3.553695 0.300000 -14.442678
v 3.141033 0.300000 -13.825087
v 2.996125 0.300000 -22.999741
v 4.899793 0.300000 -20.999229
v 3.141042 0.300000 -22.174387
v 3.553705 0.300000 -21.556795
v 4.171297 0.300000 -21.144133
v -0.000004 0.096028 -12.999744
v -5.003865 0.300000 -16.903906
v -3.003873 0.300000 -16.903906
v -5.003866 0.300000 -19.095570
v -3.003874 0.300000 -19.095564
v -5.003864 0.273902 -12.999737
v -5.003865 -0.100000 -16.903906
v -5.003866 -0.100000 -19.095570
v -3.003875 -0.100000 -22.999739
v 18.005201 0.107497 -20.999998
v 5.005206 0.107497 -18.000002
v 18.005201 0.107497 -17.999998
v 5.005205 -0.092503 -21.000000
v 18.005201 -0.092503 -20.999998
v 5.005206 -0.092503 -18.000002
v 18.005201 -0.092503 -17.999998
v 18.005199 -0.092503 -23.000000
v 18.005201 0.307497 -20.999998
v 5.005205 0.307497 -21.000000
v 18.005199 0.307497 -23.000000
v 18.005201 0.107497 -14.999999
v 5.005207 -0.092503 -15.000001
v 18.005201 -0.092503 -14.999999
v 18.005203 -0.092503 -13.000001
v 18.005201 0.307497 -14.999999
v 5.005207 0.307497 -15.000001
v 18.005203 0.307497 -13.000001
v -3.003878 0.107497 -35.999741
v -0.003878 0.107497 -35.999737
v -3.003878 -0.092503 -35.999741
v -0.003878 -0.092503 -35.999737
v -5.003882 -0.092503 -35.999741
v -3.003878 0.307497 -35.999741
v -5.003882 0.307497 -35.999741
v 2.996122 0.107497 -35.999737
v 2.996122 -0.092503 -35.999737
v 4.996125 -0.092503 -35.999741
v 2.996122 0.307497 -35.999737
v -0.003875 0.100000 -22.999741
v 4.996125 0.307497 -35.999741
vn -0.0000 -0.0000 1.0000
vn -0.0000 -1.0000 -0.0000
vn -0.0000 -0.0001 -1.0000
vn -0.9997 0.0226 -0.0000
vn -0.0000 -0.0013 -1.0000
vn 1.0000 -0.0000 -0.0000
vn 0.0013 1.0000 -0.0000
vn -0.0000 1.0000 -0.0000
vn -0.0072 1.0000 -0.0048
vn 0.0813 0.9967 -0.0005
vn -0.0140 0.9999 -0.0000
vn -0.0363 0.9967 0.0722
vn -0.9959 0.0226 0.0881
vn 0.0097 0.0469 -0.9989
vn 0.9996 -0.0293 -0.0000
vn -0.0029 -0.0402 0.9992
vn 0.9999 -0.0113 -0.0006
vn 0.0015 -0.0409 0.9992
vn -0.0006 1.0000 -0.0037
vn -0.0000 -0.0000 -1.0000
vn 0.9997 0.0255 -0.0000
vn -1.0000 -0.0000 -0.0000
vn -0.0013 1.0000 -0.0001
vn 0.0013 1.0000 -0.0008
vn -0.0813 0.9967 -0.0005
vn 0.0140 0.9999 -0.0000
vn -0.0093 0.9966 0.0819
vn 0.9958 0.0255 0.0881
vn -0.0000 -0.0015 -1.0000
vn -0.9997 -0.0232 0.0001
vn -0.0000 -0.0112 0.9999
vn -0.9999 -0.0113 -0.0006
vn -0.0015 -0.0409 0.9992
vn 0.0130 0.9999 -0.0000
vn 0.0006 -1.0000 0.0015
vn 0.0024 -0.0014 -1.0000
vn -0.0109 0.9999 0.0109
vn -0.1951 -0.0000 0.9808
vn -0.5556 -0.0000 0.8315
vn -0.8315 -0.0000 0.5556
vn -0.9849 -0.0000 0.1729
vn -0.9857 -0.0000 -0.1684
vn -0.8315 -0.0000 -0.5556
vn -0.5556 -0.0000 -0.8315
vn -0.1951 -0.0000 -0.9808
vn -0.0010 1.0000 0.0010
vn -0.0000 1.0000 0.0020
vn -0.0000 -0.0227 -0.9997
vn 0.0001 0.0037 1.0000
vn -0.0006 1.0000 0.0037
vn 0.0006 -1.0000 0.0037
vn -0.0000 1.0000 -0.0025
vn -1.0000 -0.0000 -0.0030
vn -0.0000 -0.0227 0.9997
vn -0.9988 -0.0471 0.0092
vn 0.0006 -1.0000 -0.0037
vn -0.0130 0.9999 -0.0011
vn -0.0000 -1.0000 -0.0006
vn -0.0000 1.0000 0.0006
vn 0.9997 -0.0227 -0.0000
vn 0.0045 -0.0000 1.0000
vn -0.0000 -0.0011 -1.0000
vn 0.9998 -0.0186 -0.0006
vn 0.0013 1.0000 -0.0001
vn -0.0013 1.0000 -0.0006
vn -0.0013 1.0000 -0.0000
vn 0.0794 0.9968 -0.0000
vn -0.0115 0.9999 -0.0005
vn -0.0000 0.9959 0.0902
vn 0.0092 0.9935 0.1134
vn 0.9996 -0.0272 0.0001
vn 0.9996 -0.0293 -0.0006
vn -0.0000 1.0000 -0.0006
vn 0.9998 0.0190 0.0002
vn 0.0003 -0.0015 -1.0000
vn 0.0072 1.0000 -0.0000
vn -0.0794 0.9968 -0.0000
vn 0.0115 0.9999 -0.0005
vn -0.0000 0.9970 0.0773
vn 0.0362 0.9939 0.1044
vn -0.0003 -0.0000 -1.0000
vn -0.9994 -0.0343 -0.0002
vn 0.0029 -0.0402 0.9992
vn -0.9994 -0.0343 -0.0006
vn 0.0093 1.0000 -0.0011
vn 0.0120 0.6441 -0.7649
vn 0.6369 -0.7710 -0.0000
vn -0.0000 -1.0000 -0.0015
vn 0.6369 -0.7709 -0.0000
vn 0.0008 -1.0000 -0.0007
vn 0.9998 0.0190 -0.0010
vn 0.0053 -0.0000 -1.0000
vn 0.0070 0.0037 1.0000
vn -0.0647 0.9434 0.3254
vn -0.0017 1.0000 -0.0037
vn 0.0132 0.9995 -0.0294
vn -0.0709 0.9975 0.0037
vn -0.0025 1.0000 0.0044
vn -0.9864 0.0221 -0.1631
vn -0.0130 0.9999 0.0067
vn -0.9999 -0.0103 0.0010
vn -1.0000 0.0001 -0.0000
vn 0.0007 -0.0000 -1.0000
vn -0.9997 0.0228 0.0045
vn -0.9999 -0.0000 0.0147
vn -0.0006 1.0000 -0.0000
vn -0.9989 -0.0471 -0.0000
vn 0.0007 -0.0000 1.0000
vn -0.9997 0.0228 -0.0044
vn -0.9990 0.0437 0.0002
vn -0.0006 1.0000 0.0025
vn -0.0093 1.0000 -0.0000
vn -0.0006 0.0475 -0.9989
vn 1.0000 -0.0000 -0.0007
vn -0.0000 0.0227 0.9997
vt 0.528599 0.923637
vt 0.463729 0.926464
vt 0.463729 0.939839
vt 0.916667 0.104167
vt 1.000000 0.249995
vt 1.000000 0.104167
vt 0.985659 0.901042
vt 0.942821 0.651042
vt 0.935659 0.682091
vt 0.593677 0.905178
vt 0.528634 0.920237
vt 0.593677 0.920237
vt 0.593468 0.930002
vt 0.528599 0.939839
vt 0.593468 0.939839
vt 0.833333 0.104167
vt 0.916667 0.249995
vt 0.583333 0.104167
vt 0.833333 0.249995
vt 0.083478 0.250376
vt 1.270468 0.042461
vt 0.118868 0.370777
vt 0.528632 0.920229
vt 0.463927 0.936084
vt 0.528971 0.934735
vt 0.471104 0.593863
vt 0.454888 0.281262
vt 0.453125 0.593863
vt 0.936652 0.645690
vt 0.935659 0.676740
vt -0.000231 0.836311
vt 0.159997 0.724431
vt -0.000231 0.723378
vt 0.159997 0.724445
vt -0.000231 0.328140
vt 0.159997 0.329193
vt -0.000231 0.836225
vt 0.170825 1.063642
vt 0.137057 1.062093
vt 0.471104 0.683181
vt 0.461259 0.861817
vt 0.471104 0.861817
vt 2.337168 0.039993
vt 1.635823 0.075860
vt 2.293905 -0.111756
vt 1.601376 -0.044984
vt 2.259455 -0.232600
vt 0.583333 -0.020833
vt 0.833333 0.062500
vt 0.833333 -0.020833
vt 0.916667 -0.020833
vt 0.916667 0.062500
vt 1.000000 0.062500
vt 1.000000 -0.020833
vt 0.471104 0.593863
vt 0.461259 0.683181
vt 0.471104 0.683181
vt 0.583333 0.062500
vt -0.000000 0.987930
vt 0.457160 0.010472
vt 0.412642 0.456146
vt 1.264405 0.058926
vt 1.595338 -0.030025
vt 1.309554 -0.062434
vt 0.593677 0.920229
vt 0.528972 0.934735
vt 0.594016 0.934735
vt 0.439269 0.281251
vt 0.439269 0.593853
vt 0.453382 0.682676
vt 0.160417 1.057500
vt 0.277083 0.375000
vt 0.277083 1.057500
vt 0.159997 0.329193
vt -0.000231 0.723392
vt 0.159997 0.724445
vt 0.463729 0.939839
vt 0.475143 0.924537
vt 0.935659 0.682091
vt 0.985659 0.651042
vt 0.985659 0.901042
vt 0.593678 0.920237
vt 0.528634 0.905178
vt 0.593678 0.905178
vt 0.593468 0.939839
vt 0.833333 0.249995
vt 0.083478 0.250376
vt 1.266449 0.028806
vt 1.235078 -0.077940
vt 0.528633 0.920229
vt 0.463927 0.934191
vt 0.463589 0.919392
vt 0.471104 0.593863
vt 0.454888 0.281262
vt 0.471104 0.281262
vt 0.936652 0.645690
vt 0.935659 0.676740
vt 0.159997 0.724431
vt 0.170825 0.837861
vt 0.137057 1.062093
vt 0.170826 0.837775
vt -0.000231 0.836225
vt 0.471104 0.683181
vt 0.471104 0.861817
vt 1.601376 -0.044984
vt 0.471104 0.683181
vt 0.412759 0.456215
vt 0.034554 -0.094511
vt 0.031005 0.988651
vt 1.264405 0.058926
vt 1.304551 -0.048700
vt 0.593678 0.920229
vt 0.528973 0.932842
vt 0.528634 0.920229
vt 0.441387 0.281252
vt 0.454888 0.281262
vt 1.679086 0.227608
vt 0.397724 0.994975
vt 0.448957 0.683181
vt 0.207828 0.630455
vt 0.111569 0.345166
vt 1.263169 0.016851
vt 0.978418 0.455849
vt 0.520974 0.859633
vt 0.088091 -0.266222
vt 0.933711 0.662614
vt 0.674353 0.661012
vt 0.674353 0.661012
vt 0.263079 -0.262642
vt 0.088091 -0.266222
vt 0.520949 0.859622
vt 0.978419 0.455850
vt 0.528634 0.920237
vt 0.948362 0.363596
vt 0.925520 0.488748
vt 0.925520 0.363596
vt 0.583333 -0.000000
vt 1.000000 0.000000
vt 0.000000 0.000000
vt 0.020000 0.390417
vt 0.000000 0.390417
vt 0.420020 -0.385429
vt 0.403806 -0.376889
vt 0.403806 -0.385429
vt 0.412129 0.515428
vt 0.323005 0.323696
vt 0.417064 0.234572
vt 0.822215 0.687572
vt 0.810794 0.681556
vt 0.822215 0.681556
vt 0.819069 0.207760
vt 0.877900 0.148929
vt 0.925520 0.140654
vt 0.131226 0.234572
vt 0.233881 0.515428
vt 0.355901 -0.063151
vt 0.347354 0.099765
vt 0.238227 0.054564
vt 0.329789 0.570445
vt 0.323005 0.609086
vt 0.323005 0.426304
vt 0.378022 0.227788
vt 0.412129 0.234572
vt 0.233881 0.234572
vt 0.822215 0.639665
vt 0.810794 0.639665
vt 0.822215 0.603503
vt 0.845057 0.734586
vt 0.856477 0.699319
vt 0.856477 0.734586
vt 0.845057 0.699319
vt 0.856477 0.654332
vt 0.420020 -0.156949
vt 0.403806 -0.216009
vt 0.420020 -0.216009
vt 0.420020 -0.266076
vt 0.403806 -0.266076
vt 0.420020 -0.317415
vt 0.403806 -0.317415
vt 0.420020 -0.376889
vt 0.042102 0.323696
vt 0.042102 0.140914
vt 0.182553 0.143181
vt 0.323005 0.145449
vt 0.131226 0.515428
vt 0.042102 0.609086
vt 0.042102 0.426304
vt 0.182553 0.611647
vt 0.810794 0.488748
vt 0.696587 0.363596
vt 0.810794 0.363596
vt 0.810794 0.140654
vt 0.696587 0.488748
vt 0.810794 0.711690
vt 0.696587 0.711690
vt 0.948362 0.488748
vt 0.927010 0.711690
vt 0.948362 0.140654
vt 0.925520 0.140654
vt 0.000000 0.609583
vt 0.020000 1.000000
vt -0.000000 1.000000
vt 0.593678 0.936386
vt 0.463590 0.921875
vt 0.463590 0.907364
vt 0.928125 0.489583
vt 0.978125 0.739583
vt 0.928125 0.739583
vt 0.928125 0.651042
vt 0.978125 0.901042
vt 0.928125 0.901042
vt 0.437500 0.861817
vt 0.468750 0.281250
vt 0.468750 0.861817
vt 0.463729 0.937487
vt 0.463729 0.906263
vt 0.593468 0.906263
vt 0.400945 0.716471
vt -5.607769 0.478175
vt -5.605876 0.411117
vt 0.277083 0.375000
vt 0.160417 1.057500
vt 0.277083 1.057500
vt 1.000000 0.250000
vt 0.833333 -0.020833
vt 1.000000 -0.020833
vt 0.833333 0.250000
vt 0.583333 -0.020833
vt 0.833333 -0.020833
vt -0.000250 0.328125
vt 0.156500 1.062192
vt -0.000250 1.062192
vt 0.468750 0.281250
vt 0.437500 0.861817
vt 0.463729 0.921875
vt -5.607768 0.478175
vt 0.400945 0.716471
vt -5.605877 0.411117
vt 0.833333 -0.020833
vt 1.000000 0.250000
vt 0.833333 0.250000
vt -0.000250 1.062192
vt 0.156500 0.328125
vt -0.000250 0.328125
vt 0.111752 0.345809
vt 0.207533 0.630675
vt 1.356645 0.300151
vt 0.833333 0.250000
vt 0.583333 0.250000
vt 0.160417 0.375000
vt 0.583333 0.250000
vt 0.160417 0.375000
vt 0.528599 0.939839
vt 0.475143 0.924537
vt 0.916667 0.249995
vt 0.935659 0.901042
vt 0.985659 0.651042
vt 0.528634 0.905178
vt 0.583333 0.249995
vt 1.235078 -0.077940
vt 0.463588 0.919392
vt 0.471104 0.281262
vt 0.170825 0.837861
vt -0.000231 0.723392
vt -0.000232 1.062091
vt 0.001847 -0.095114
vt 0.528634 0.920229
vt 0.454888 0.281262
vt -0.000231 0.328140
vt 1.000000 0.249995
vt 0.583333 0.249994
vt 0.114849 0.357121
vt 0.528971 0.932841
vt -0.000231 0.723378
vt -0.000232 1.062091
vt 0.170825 1.063642
vt 0.457160 0.010472
vt 0.594005 0.932768
vt 0.441307 0.593853
vt 0.441307 0.593853
vt 1.356939 0.299931
vt 0.153655 0.492788
vt 0.894046 0.456564
vt 0.263113 -0.262643
vt 0.894046 0.456564
vt 0.833333 0.000000
vt 0.020000 0.000000
vt 0.417064 0.515428
vt 0.810794 0.687572
vt 0.925520 0.255409
vt 0.810794 0.254891
vt 0.842634 0.172494
vt 0.919500 0.140654
vt 0.204773 0.004496
vt 0.193807 -0.071693
vt 0.355901 0.099765
vt 0.288295 0.088018
vt 0.378022 0.522212
vt 0.349109 0.541531
vt 0.329789 0.179555
vt 0.349109 0.208469
vt 0.810794 0.603503
vt 0.845057 0.654332
vt 0.401698 -0.153311
vt 0.323005 0.614209
vt 0.696587 0.140654
vt 0.948362 0.711690
vt 0.020000 0.609583
vt 0.593678 0.907364
vt 0.463590 0.936386
vt 0.978125 0.489583
vt 0.978125 0.651042
vt 0.437500 0.281250
vt 0.593468 0.937487
vt 0.399052 0.783529
vt 0.156500 0.328125
vt 0.437500 0.281250
vt 0.399053 0.783529
vt 0.156500 1.062192
vt 1.263353 0.017494
vt 0.165132 0.487796
s 0
f 6/1/1 14/2/1 4/3/1
f 23/4/2 68/5/2 28/6/2
f 2/7/1 14/8/1 13/9/1
f 68/10/3 7/11/3 11/12/3
f 10/13/1 9/14/1 5/15/1
f 27/16/2 8/17/2 23/4/2
f 26/18/2 75/19/2 27/16/2
f 15/20/4 31/21/4 98/22/4
f 7/23/5 98/24/5 30/25/5
f 28/26/6 11/27/6 29/28/6
f 12/29/1 13/30/1 14/8/1
f 16/31/7 24/32/7 25/33/7
f 56/34/8 107/35/8 50/36/8
f 16/37/9 47/38/9 48/39/9
f 21/40/6 10/41/6 5/42/6
f 10/43/10 19/44/10 6/45/10
f 6/45/11 34/46/11 12/47/11
f 2/48/2 20/49/2 4/50/2
f 9/51/2 20/49/2 18/52/2
f 9/51/2 21/53/2 5/54/2
f 28/55/6 22/56/6 21/57/6
f 17/58/2 27/16/2 20/49/2
f 20/49/2 23/4/2 18/52/2
f 18/52/2 28/6/2 21/53/2
f 32/59/12 34/60/12 36/61/12
f 24/62/13 34/63/13 31/64/13
f 11/65/14 30/66/14 78/67/14
f 29/28/15 78/68/15 32/69/15
f 22/56/16 36/61/16 19/44/16
f 29/28/17 33/70/17 22/56/17
f 36/61/18 34/46/18 19/44/18
f 125/71/19 126/72/19 79/73/19
f 15/74/7 25/75/7 24/76/7
f 37/77/1 47/78/1 41/1/1
f 58/6/2 43/17/2 55/4/2
f 48/79/1 37/80/1 2/81/1
f 46/82/20 43/83/20 40/84/20
f 44/14/1 45/13/1 39/85/1
f 55/4/2 38/19/2 57/16/2
f 38/86/2 26/18/2 57/16/2
f 50/87/21 61/88/21 56/89/21
f 42/90/20 76/91/20 50/92/20
f 58/93/22 46/94/22 40/95/22
f 47/96/1 49/8/1 48/97/1
f 16/31/23 56/98/23 64/99/23
f 13/100/24 34/101/24 16/102/24
f 45/41/22 53/103/22 39/104/22
f 35/44/25 45/43/25 41/45/25
f 64/105/26 41/45/26 47/47/26
f 52/49/2 2/48/2 37/50/2
f 51/52/2 37/50/2 44/51/2
f 39/54/2 51/52/2 44/51/2
f 54/56/22 58/55/22 53/106/22
f 57/16/2 17/58/2 52/49/2
f 55/4/2 52/49/2 51/52/2
f 53/53/2 55/4/2 51/52/2
f 65/107/27 61/108/27 62/109/27
f 56/110/28 61/111/28 64/63/28
f 46/112/29 60/113/29 42/114/29
f 59/28/30 112/115/30 46/116/30
f 54/117/31 65/107/31 63/118/31
f 63/119/32 59/28/32 54/56/32
f 65/107/33 35/44/33 64/105/33
f 78/120/34 98/121/34 31/122/34
f 8/123/20 15/124/20 7/11/20
f 107/125/20 75/126/20 3/127/20
f 3/128/20 50/129/20 107/130/20
f 50/131/20 43/132/20 42/133/20
f 114/134/22 108/135/22 110/136/22
f 121/137/35 114/134/35 66/138/35
f 76/139/6 96/140/6 109/141/6
f 67/142/36 97/143/36 132/144/36
f 80/145/8 90/146/8 67/147/8
f 77/148/1 103/149/1 80/150/1
f 104/151/37 106/152/37 125/153/37
f 95/154/8 90/146/8 82/155/8
f 78/156/8 97/157/8 100/158/8
f 86/159/8 81/160/8 83/161/8
f 94/162/8 89/163/8 91/164/8
f 103/149/38 84/165/38 80/150/38
f 106/166/39 85/167/39 84/165/39
f 105/168/40 86/169/40 85/170/40
f 104/171/41 81/172/41 86/169/41
f 15/173/42 101/174/42 92/175/42
f 101/174/43 93/176/43 92/175/43
f 100/177/44 94/178/44 93/176/44
f 99/179/45 89/180/45 94/178/45
f 96/181/46 50/182/46 95/154/46
f 95/154/47 107/183/47 15/184/47
f 88/185/8 69/186/8 87/187/8
f 145/188/8 88/185/8 82/155/8
f 111/189/8 108/190/8 109/191/8
f 108/190/8 76/192/8 109/191/8
f 110/193/8 72/194/8 73/195/8
f 113/196/22 112/197/22 108/135/22
f 71/198/22 110/136/22 73/199/22
f 96/140/6 111/200/6 109/141/6
f 111/200/6 69/201/6 72/202/6
f 126/203/6 116/204/6 120/205/6
f 118/206/6 120/207/6 116/208/6
f 77/209/22 121/210/22 117/211/22
f 79/212/48 123/213/48 66/214/48
f 119/215/22 125/216/22 79/217/22
f 116/218/49 125/219/49 77/220/49
f 133/221/50 132/222/50 78/223/50
f 123/224/51 119/225/51 66/226/51
f 120/227/2 121/228/2 119/229/2
f 118/230/52 77/231/52 117/232/52
f 129/205/6 127/204/6 133/203/6
f 129/207/6 118/206/6 127/208/6
f 121/210/53 67/209/53 117/211/53
f 130/233/54 78/234/54 68/214/54
f 78/217/55 67/235/55 128/215/55
f 132/236/5 127/237/5 67/238/5
f 128/239/56 130/240/56 68/54/56
f 121/48/2 129/241/2 128/50/2
f 117/242/8 127/243/8 118/244/8
f 140/203/20 134/204/20 136/205/20
f 135/206/20 136/207/20 134/208/20
f 69/209/1 70/210/1 145/211/1
f 73/212/22 138/213/22 71/214/22
f 115/215/1 69/235/1 73/217/1
f 134/218/6 72/219/6 69/220/6
f 76/245/57 112/246/57 62/247/57
f 71/226/58 136/248/58 115/225/58
f 115/229/58 137/249/58 70/228/58
f 135/230/59 69/231/59 145/232/59
f 142/205/20 141/204/20 146/203/20
f 142/207/20 135/206/20 141/208/20
f 70/210/1 81/209/1 145/211/1
f 143/233/60 79/234/60 66/214/60
f 79/217/61 81/235/61 74/215/61
f 102/236/22 141/237/22 81/238/22
f 73/73/59 139/250/59 140/72/59
f 74/239/58 143/240/58 66/54/58
f 74/50/58 137/251/58 142/241/58
f 145/242/59 141/243/59 135/244/59
f 79/223/59 144/252/59 102/222/59
f 4/3/1 9/253/1 6/1/1
f 6/1/1 12/254/1 14/2/1
f 23/4/2 8/255/2 68/5/2
f 13/9/1 1/256/1 2/7/1
f 2/7/1 4/257/1 14/8/1
f 68/10/20 8/258/20 7/11/20
f 10/13/1 6/1/1 9/14/1
f 27/16/2 75/86/2 8/17/2
f 26/18/2 3/259/2 75/19/2
f 15/20/4 24/260/4 31/21/4
f 7/23/62 15/261/62 98/24/62
f 28/26/63 68/262/63 11/27/63
f 16/31/64 34/263/64 24/32/64
f 56/34/65 25/264/65 107/35/65
f 48/39/8 1/265/8 16/37/8
f 16/37/66 64/101/66 47/38/66
f 21/40/6 22/56/6 10/41/6
f 10/43/67 22/117/67 19/44/67
f 6/45/68 19/44/68 34/46/68
f 2/48/2 17/58/2 20/49/2
f 9/51/2 4/50/2 20/49/2
f 9/51/2 18/52/2 21/53/2
f 28/55/6 29/28/6 22/56/6
f 17/58/2 26/18/2 27/16/2
f 20/49/2 27/16/2 23/4/2
f 18/52/2 23/4/2 28/6/2
f 36/61/69 33/118/69 32/59/69
f 32/59/70 31/266/70 34/60/70
f 11/65/5 7/267/5 30/66/5
f 29/28/71 11/268/71 78/68/71
f 22/56/31 33/118/31 36/61/31
f 29/28/72 32/69/72 33/70/72
f 125/71/8 124/250/8 126/72/8
f 15/74/73 107/269/73 25/75/73
f 41/1/1 44/14/1 37/77/1
f 37/77/1 49/2/1 47/78/1
f 58/6/2 40/270/2 43/17/2
f 2/81/1 1/256/1 48/79/1
f 48/79/1 49/8/1 37/80/1
f 46/82/20 42/133/20 43/83/20
f 44/14/1 41/1/1 45/13/1
f 55/4/2 43/255/2 38/19/2
f 38/86/2 3/271/2 26/18/2
f 50/87/74 76/272/74 61/88/74
f 42/90/75 60/273/75 76/91/75
f 58/93/22 59/28/22 46/94/22
f 16/31/66 25/274/66 56/98/66
f 16/102/8 1/275/8 13/100/8
f 13/100/76 12/276/76 34/101/76
f 45/41/22 54/56/22 53/103/22
f 35/44/77 54/117/77 45/43/77
f 64/105/78 35/44/78 41/45/78
f 52/49/2 17/58/2 2/48/2
f 51/52/2 52/49/2 37/50/2
f 39/54/2 53/53/2 51/52/2
f 54/56/22 59/28/22 58/55/22
f 57/16/2 26/18/2 17/58/2
f 55/4/2 57/16/2 52/49/2
f 53/53/2 58/6/2 55/4/2
f 62/109/79 63/118/79 65/107/79
f 65/107/80 64/277/80 61/108/80
f 46/112/81 112/278/81 60/113/81
f 59/28/82 62/279/82 112/115/82
f 54/117/83 35/44/83 65/107/83
f 63/119/84 62/280/84 59/28/84
f 31/122/85 32/281/85 78/120/85
f 78/120/86 30/282/86 98/121/86
f 8/123/3 75/283/3 15/124/3
f 107/125/3 15/284/3 75/126/3
f 3/128/20 38/126/20 50/129/20
f 50/131/20 38/285/20 43/132/20
f 114/134/22 113/196/22 108/135/22
f 121/137/87 128/286/87 68/138/87
f 68/138/2 75/286/2 3/137/2
f 3/137/8 38/286/8 40/138/8
f 40/138/2 113/196/2 114/134/2
f 114/134/2 71/198/2 115/286/2
f 70/137/8 74/286/8 66/138/8
f 114/134/2 115/286/2 70/137/2
f 3/137/2 40/138/2 114/134/2
f 121/137/88 68/138/88 3/137/88
f 66/138/89 119/286/89 121/137/89
f 114/134/2 70/137/2 66/138/2
f 121/137/90 3/137/90 114/134/90
f 76/139/91 50/287/91 96/140/91
f 67/142/92 89/180/92 97/143/92
f 67/147/8 77/288/8 80/145/8
f 80/145/8 83/161/8 90/146/8
f 90/146/8 89/163/8 67/147/8
f 77/148/93 125/289/93 103/149/93
f 79/290/8 102/291/8 104/151/8
f 104/151/8 105/292/8 106/152/8
f 106/152/94 103/293/94 125/153/94
f 125/153/95 79/290/95 104/151/95
f 82/155/8 88/185/8 87/187/8
f 87/187/8 96/181/8 95/154/8
f 95/154/8 91/164/8 90/146/8
f 90/146/8 83/161/8 82/155/8
f 82/155/8 87/187/8 95/154/8
f 101/294/96 98/295/96 78/156/96
f 78/156/97 132/296/97 97/157/97
f 97/157/8 99/297/8 100/158/8
f 100/158/8 101/294/8 78/156/8
f 83/161/8 80/145/8 84/298/8
f 83/161/8 84/298/8 85/299/8
f 81/160/8 82/155/8 83/161/8
f 83/161/8 85/299/8 86/159/8
f 91/164/98 15/184/98 92/300/98
f 91/164/8 92/300/8 93/301/8
f 89/163/8 90/146/8 91/164/8
f 91/164/8 93/301/8 94/162/8
f 103/149/38 106/166/38 84/165/38
f 106/166/39 105/302/39 85/167/39
f 105/168/40 104/171/40 86/169/40
f 104/171/41 102/303/41 81/172/41
f 15/173/99 98/304/99 101/174/99
f 101/174/43 100/177/43 93/176/43
f 100/177/44 99/179/44 94/178/44
f 99/179/45 97/143/45 89/180/45
f 15/184/47 91/164/47 95/154/47
f 95/154/47 50/182/47 107/183/47
f 82/155/8 81/305/8 145/188/8
f 145/188/8 69/186/8 88/185/8
f 111/189/8 110/193/8 108/190/8
f 108/190/100 112/306/100 76/192/100
f 110/193/8 111/189/8 72/194/8
f 113/196/101 40/307/101 112/197/101
f 71/198/22 114/134/22 110/136/22
f 96/140/6 87/308/6 111/200/6
f 111/200/6 87/308/6 69/201/6
f 120/205/6 123/309/6 126/203/6
f 126/203/6 124/310/6 116/204/6
f 118/206/6 122/311/6 120/207/6
f 77/209/102 119/312/102 121/210/102
f 79/212/103 126/313/103 123/213/103
f 79/217/104 66/314/104 119/215/104
f 119/215/105 77/235/105 125/216/105
f 116/218/1 124/315/1 125/219/1
f 133/221/8 131/252/8 132/222/8
f 123/224/2 120/248/2 119/225/2
f 120/227/2 122/249/2 121/228/2
f 118/230/106 116/316/106 77/231/106
f 133/203/6 130/309/6 129/205/6
f 127/204/6 131/310/6 133/203/6
f 129/207/6 122/311/6 118/206/6
f 121/210/107 128/312/107 67/209/107
f 130/233/108 133/317/108 78/234/108
f 128/215/109 68/314/109 78/217/109
f 78/217/110 132/216/110 67/235/110
f 132/236/20 131/318/20 127/237/20
f 128/239/2 129/241/2 130/240/2
f 121/48/2 122/251/2 129/241/2
f 117/242/111 67/319/111 127/243/111
f 136/205/20 138/309/20 140/203/20
f 140/203/20 139/310/20 134/204/20
f 135/206/20 137/311/20 136/207/20
f 69/209/1 115/312/1 70/210/1
f 73/212/22 140/313/22 138/213/22
f 73/217/1 71/314/1 115/215/1
f 69/235/1 72/216/1 73/217/1
f 134/218/6 139/315/6 72/219/6
f 62/247/112 61/320/112 76/245/112
f 76/245/113 60/321/113 112/246/113
f 71/226/58 138/224/58 136/248/58
f 115/229/58 136/227/58 137/249/58
f 135/230/59 134/316/59 69/231/59
f 146/203/20 143/309/20 142/205/20
f 141/204/20 144/310/20 146/203/20
f 142/207/20 137/311/20 135/206/20
f 70/210/1 74/312/1 81/209/1
f 143/233/114 146/317/114 79/234/114
f 74/215/115 66/314/115 79/217/115
f 79/217/61 102/216/61 81/235/61
f 102/236/22 144/318/22 141/237/22
f 73/73/59 72/71/59 139/250/59
f 74/239/58 142/241/58 143/240/58
f 74/50/58 70/48/58 137/251/58
f 145/242/59 81/319/59 141/243/59
f 79/223/59 146/221/59 144/252/59
