# Blender 4.3.2
# www.blender.org
o T_Intersection
v 18.000000 0.100000 -21.000000
v 5.000000 0.100000 -18.000000
v 18.000000 0.100000 -18.000000
v 5.000000 -0.100000 -21.000000
v 18.000000 -0.100000 -21.000000
v 5.000000 -0.100000 -18.000000
v 18.000000 -0.100000 -18.000000
v 5.000000 -0.100000 -23.000000
v 18.000000 -0.100000 -23.000000
v 18.000000 0.300000 -21.000000
v 5.000000 0.300000 -21.000000
v 18.000000 0.300000 -23.000000
v 5.000000 0.100000 -15.000000
v 18.000000 0.100000 -15.000000
v 5.000000 -0.100000 -15.000000
v 18.000000 -0.100000 -15.000000
v 5.000000 -0.100000 -13.000000
v 18.000000 -0.100000 -13.000000
v 18.000000 0.300000 -15.000000
v 5.000000 0.300000 -15.000000
v 18.000000 0.300000 -13.000000
v -3.000000 0.100000 -23.000000
v -3.000000 0.100000 -36.000000
v 0.000000 0.100000 -23.000000
v 0.000000 0.100000 -36.000000
v -3.000000 -0.100000 -36.000000
v 0.000000 -0.100000 -23.000000
v 0.000000 -0.100000 -36.000000
v -5.000000 -0.100000 -23.000000
v -5.000000 -0.100000 -36.000000
v -3.000000 0.300000 -36.000000
v -3.000000 0.300000 -23.000000
v -5.000000 0.300000 -36.000000
v -5.000000 0.300000 -23.000000
v 3.000000 0.100000 -23.000000
v 3.000000 0.100000 -36.000000
v 3.000000 -0.100000 -23.000000
v 3.000000 -0.100000 -36.000000
v 5.000000 -0.100000 -36.000000
v 3.000000 0.300000 -36.000000
v 3.000000 0.300000 -23.000000
v 5.000000 0.300000 -36.000000
v 5.000000 0.300000 -23.000000
v 2.999996 0.100000 0.000000
v 0.000000 0.100000 -13.000000
v 0.000000 0.100000 0.000000
v 3.000000 -0.100000 -13.000000
v 2.999996 -0.100000 0.000000
v 0.000000 -0.100000 -13.000000
v 0.000000 -0.100000 0.000000
v 4.999996 -0.100000 0.000000
v 2.999996 0.300000 0.000000
v 4.999996 0.300000 0.000000
v 5.000000 0.300000 -13.000000
v -3.000000 0.100000 0.000000
v -3.000000 -0.100000 0.000000
v -5.000000 -0.100000 0.000000
v -3.000000 0.300000 0.000000
v -3.000000 0.300000 -13.000000
v -5.000000 0.300000 0.000000
v 5.009083 0.100000 -20.999489
v 3.000000 0.100000 -12.990917
v 5.009083 0.300000 -12.990917
v 5.009083 0.300000 -23.009083
v 3.000000 0.300000 -12.990917
v 4.903660 0.100000 -20.999489
v 3.000000 0.100000 -22.903149
v 1.096340 0.100000 -20.999489
v 3.000000 0.100000 -19.095829
v 4.175159 0.100000 -21.144398
v 3.557568 0.100000 -21.557060
v 3.144905 0.100000 -22.174648
v -3.000000 0.100000 -19.095829
v -1.096344 0.100000 -20.999489
v 3.000000 0.100000 -13.096851
v 4.903660 0.100000 -15.000511
v 3.000000 0.100000 -16.904171
v 1.096340 0.100000 -15.000511
v 3.144905 0.100000 -13.825352
v 3.557571 0.100000 -14.442940
v 4.175159 0.100000 -14.855602
v -1.096344 0.100000 -15.000511
v -3.000000 0.100000 -16.904171
v 4.903660 0.300000 -15.000511
v 3.000000 0.300000 -13.096851
v 4.175159 0.300000 -14.855602
v 3.557571 0.300000 -14.442940
v 3.144905 0.300000 -13.825352
v 3.000000 0.300000 -22.903149
v 4.903660 0.300000 -20.999489
v 3.144905 0.300000 -22.174648
v 3.557568 0.300000 -21.557060
v 4.175159 0.300000 -21.144398
v -3.000000 0.100000 -13.000000
v -5.000000 0.300000 -16.904171
v -3.000000 0.300000 -16.904171
v -5.000000 0.300000 -19.095829
v -3.000000 0.300000 -19.095829
v -5.000000 0.300000 -13.000000
v -5.000000 -0.100000 -16.904171
v -5.000000 -0.100000 -19.095829
v -3.000000 -0.100000 -13.000000
v -5.000000 -0.100000 -13.000000
v -3.000000 -0.100000 -23.000000
vn 1.0000 -0.0000 -0.0000
vn -0.0000 -0.0000 -1.0000
vn -0.0000 0.0026 1.0000
vn -0.0000 1.0000 -0.0000
vn -0.0000 -1.0000 -0.0000
vn -0.0000 -0.0000 1.0000
vn -1.0000 -0.0000 -0.0000
vn 0.0053 -0.0000 -1.0000
vn 0.0053 -0.0000 1.0000
vn -0.1951 -0.0000 0.9808
vn -0.5556 -0.0000 0.8315
vn -0.8315 -0.0000 0.5556
vn -0.9808 -0.0000 0.1951
vn -0.9808 -0.0000 -0.1951
vn -0.8315 -0.0000 -0.5556
vn -0.5556 -0.0000 -0.8315
vn -0.1951 -0.0000 -0.9808
vt 0.593678 0.936386
vt 0.463590 0.921875
vt 0.463590 0.907364
vt 0.928125 0.489583
vt 0.978125 0.739583
vt 0.928125 0.739583
vt 0.437500 0.817158
vt 0.468750 0.236591
vt 0.468750 0.817158
vt -5.143813 0.434605
vt 0.861117 0.807018
vt -5.145705 0.501663
vt 0.277083 0.322500
vt 0.160417 1.005000
vt 0.277083 1.005000
vt 1.000000 0.270833
vt 0.833333 0.000000
vt 1.000000 0.000000
vt 0.833333 0.270833
vt 0.583333 -0.000000
vt -0.000250 0.271658
vt 0.156500 1.005725
vt -0.000250 1.005725
vt 0.468750 0.236591
vt 0.863009 0.739960
vt 0.277083 0.322500
vt 1.000000 0.270833
vt 0.833333 0.270833
vt -0.000250 0.271658
vt 0.948362 0.363596
vt 0.925520 0.488748
vt 0.925520 0.363596
vt 0.863010 0.739960
vt 0.468750 0.236591
vt 0.593678 0.936385
vt 0.463590 0.921874
vt 0.463590 0.907363
vt 0.277083 0.322500
vt 0.863010 0.739960
vt 0.000000 0.000000
vt 0.020000 0.390417
vt 0.000000 0.390417
vt 0.420020 -0.376889
vt 0.403806 -0.385429
vt 0.420020 -0.385429
vt 0.412129 0.515428
vt 0.323005 0.323696
vt 0.417064 0.234572
vt 0.822215 0.681556
vt 0.810794 0.687572
vt 0.810794 0.681556
vt 0.877900 0.148929
vt 0.925520 0.140654
vt 0.810794 0.255409
vt 0.131226 0.234572
vt 0.233881 0.515428
vt 0.420020 -0.148361
vt 0.403806 -0.156949
vt 0.420020 -0.156949
vt 0.347354 0.099765
vt 0.238227 0.054564
vt 0.193025 -0.054563
vt 0.856477 0.657719
vt 0.845057 0.651670
vt 0.856477 0.651670
vt 0.329789 0.570445
vt 0.323005 0.604551
vt 0.323005 0.426304
vt 0.378022 0.227788
vt 0.412129 0.234572
vt 0.233881 0.234572
vt 0.822215 0.639665
vt 0.810794 0.639665
vt 0.822215 0.603503
vt 0.845057 0.734586
vt 0.856477 0.699319
vt 0.856477 0.734586
vt 0.845057 0.699319
vt 0.420020 -0.216009
vt 0.403806 -0.216009
vt 0.420020 -0.266076
vt 0.403806 -0.266076
vt 0.420020 -0.317415
vt 0.403806 -0.317415
vt 0.042102 0.323696
vt 0.042102 0.140914
vt 0.323005 0.140489
vt 0.323005 0.145449
vt 0.131226 0.515428
vt 0.042102 0.609086
vt 0.042102 0.426304
vt 0.323005 0.609511
vt 0.810794 0.488748
vt 0.696587 0.363596
vt 0.810794 0.363596
vt 0.810794 0.140654
vt 0.696587 0.711690
vt 0.696587 0.488748
vt 0.948362 0.488748
vt 0.925520 0.711690
vt 0.948362 0.140654
vt 0.925520 0.140654
vt 0.000000 0.609583
vt 0.020000 1.000000
vt -0.000000 1.000000
vt 0.593678 0.907364
vt 0.463590 0.936386
vt 0.978125 0.489583
vt 0.437500 0.236591
vt 0.160417 0.322500
vt 0.583333 0.270833
vt 0.156500 0.271658
vt 0.437500 0.236591
vt 0.861118 0.807018
vt 0.160417 0.322500
vt 0.583333 0.270833
vt 0.156500 0.271658
vt 0.861117 0.807018
vt 0.160417 0.322500
vt 0.593678 0.907363
vt 0.463590 0.936385
vt 0.437500 0.236591
vt 0.020000 0.000000
vt 0.833333 0.270833
vt 0.156500 0.271658
vt 0.403806 -0.376889
vt 0.417064 0.515428
vt 0.822215 0.687572
vt 0.810794 0.249360
vt 0.819069 0.207760
vt 0.842634 0.172494
vt 0.919500 0.140654
vt 0.925520 0.255409
vt 0.403806 -0.148361
vt 0.193025 -0.063151
vt 0.355901 -0.063151
vt 0.355901 0.099765
vt 0.288295 0.088018
vt 0.204773 0.004496
vt 0.845057 0.657719
vt 0.378022 0.522212
vt 0.349109 0.541531
vt 0.329789 0.179555
vt 0.349109 0.208469
vt 0.810794 0.603503
vt 0.696587 0.140654
vt 0.810794 0.711690
vt 0.948362 0.711690
vt 0.020000 0.609583
s 0
f 12/1/1 1/2/1 5/3/1
f 3/4/1 5/5/1 1/6/1
f 43/7/2 9/8/2 8/9/2
f 61/10/3 10/11/3 11/12/3
f 21/13/4 20/14/4 54/15/4
f 9/16/5 4/17/5 8/18/5
f 5/19/5 6/20/5 4/17/5
f 3/21/4 61/22/4 2/23/4
f 16/3/1 14/2/1 21/1/1
f 16/5/1 3/4/1 14/6/1
f 18/24/6 54/7/6 17/9/6
f 20/12/2 14/25/2 13/10/2
f 32/14/4 33/26/4 34/15/4
f 15/17/5 18/27/5 17/18/5
f 6/20/5 16/28/5 15/17/5
f 13/22/4 3/29/4 2/23/4
f 33/1/2 23/2/2 26/3/2
f 25/4/2 26/5/2 23/6/2
f 34/7/7 30/8/7 29/9/7
f 101/30/7 95/31/7 97/32/7
f 23/33/1 32/12/1 22/10/1
f 42/13/4 41/14/4 43/15/4
f 30/16/5 104/17/5 29/18/5
f 26/19/5 27/20/5 104/17/5
f 25/21/4 22/22/4 24/23/4
f 38/3/2 36/2/2 42/1/2
f 38/5/2 25/4/2 36/6/2
f 39/34/1 43/7/1 8/9/1
f 41/12/7 36/25/7 35/10/7
f 65/14/4 53/26/4 54/15/4
f 37/17/5 39/27/5 8/18/5
f 27/20/5 38/28/5 37/17/5
f 35/22/4 25/29/4 24/23/4
f 53/35/6 44/36/6 48/37/6
f 46/4/6 48/5/6 44/6/6
f 54/7/1 51/8/1 17/9/1
f 44/33/7 65/12/7 62/10/7
f 51/27/5 47/17/5 17/18/5
f 48/28/5 49/20/5 47/17/5
f 46/21/4 62/22/4 45/23/4
f 60/38/4 59/14/4 99/15/4
f 56/3/6 55/2/6 60/1/6
f 56/5/6 46/4/6 55/6/6
f 57/24/7 99/7/7 103/9/7
f 101/30/5 27/20/5 4/17/5
f 59/12/1 55/39/1 94/10/1
f 59/40/1 83/41/1 96/42/1
f 102/17/5 57/27/5 103/18/5
f 49/20/5 56/28/5 102/17/5
f 94/22/4 46/29/4 45/23/4
f 76/43/8 20/44/8 13/45/8
f 66/46/4 77/47/4 13/48/4
f 66/49/9 11/50/9 90/51/9
f 93/52/4 11/53/4 41/54/4
f 82/55/4 77/47/4 68/56/4
f 62/57/7 85/58/7 75/59/7
f 84/60/4 87/61/4 85/62/4
f 67/63/7 41/64/7 35/65/7
f 72/66/4 67/67/4 69/68/4
f 81/69/4 76/70/4 78/71/4
f 90/51/10 70/72/10 66/49/10
f 93/73/11 71/74/11 70/72/11
f 92/75/12 72/76/12 71/77/12
f 91/78/13 67/63/13 72/76/13
f 85/58/14 79/79/14 75/59/14
f 88/80/15 80/81/15 79/79/15
f 87/82/16 81/83/16 80/81/16
f 86/84/17 76/43/17 81/83/17
f 11/14/4 12/26/4 43/15/4
f 83/85/4 94/86/4 82/55/4
f 82/55/4 62/87/4 75/88/4
f 74/89/4 22/90/4 73/91/4
f 35/92/4 74/89/4 68/56/4
f 98/93/4 95/94/4 96/95/4
f 95/94/4 59/96/4 96/95/4
f 98/93/4 34/97/4 97/98/4
f 100/99/7 99/100/7 95/31/7
f 29/101/7 97/32/7 34/102/7
f 83/41/1 98/103/1 96/42/1
f 98/103/1 22/104/1 32/105/1
f 5/3/1 9/106/1 12/1/1
f 12/1/1 10/107/1 1/2/1
f 3/4/1 7/108/1 5/5/1
f 43/7/2 12/109/2 9/8/2
f 61/10/6 1/33/6 10/11/6
f 21/13/4 19/110/4 20/14/4
f 9/16/5 5/28/5 4/17/5
f 5/19/5 7/111/5 6/20/5
f 3/21/4 1/112/4 61/22/4
f 21/1/1 18/106/1 16/3/1
f 14/2/1 19/107/1 21/1/1
f 16/5/1 7/108/1 3/4/1
f 18/24/6 21/113/6 54/7/6
f 20/12/2 19/114/2 14/25/2
f 32/14/4 31/115/4 33/26/4
f 15/17/5 16/19/5 18/27/5
f 6/20/5 7/116/5 16/28/5
f 13/22/4 14/117/4 3/29/4
f 26/3/2 30/106/2 33/1/2
f 33/1/2 31/107/2 23/2/2
f 25/4/2 28/108/2 26/5/2
f 34/7/7 33/109/7 30/8/7
f 101/30/7 100/99/7 95/31/7
f 23/33/1 31/11/1 32/12/1
f 42/13/4 40/110/4 41/14/4
f 30/16/5 26/28/5 104/17/5
f 26/19/5 28/111/5 27/20/5
f 25/21/4 23/112/4 22/22/4
f 42/1/2 39/106/2 38/3/2
f 36/2/2 40/107/2 42/1/2
f 38/5/2 28/108/2 25/4/2
f 39/34/1 42/113/1 43/7/1
f 41/12/7 40/118/7 36/25/7
f 65/14/4 52/119/4 53/26/4
f 37/17/5 38/19/5 39/27/5
f 27/20/5 28/116/5 38/28/5
f 35/22/4 36/117/4 25/29/4
f 48/37/6 51/120/6 53/35/6
f 53/35/6 52/121/6 44/36/6
f 46/4/6 50/108/6 48/5/6
f 54/7/1 53/109/1 51/8/1
f 44/33/7 52/11/7 65/12/7
f 51/27/5 48/28/5 47/17/5
f 48/28/5 50/111/5 49/20/5
f 46/21/4 44/112/4 62/22/4
f 60/38/4 58/110/4 59/14/4
f 60/1/6 57/106/6 56/3/6
f 55/2/6 58/107/6 60/1/6
f 56/5/6 50/108/6 46/4/6
f 57/24/7 60/122/7 99/7/7
f 15/17/5 17/18/5 47/17/5
f 15/17/5 47/17/5 49/20/5
f 6/20/5 15/17/5 49/20/5
f 102/17/5 103/18/5 100/99/5
f 6/20/5 49/20/5 102/17/5
f 37/17/5 8/18/5 4/17/5
f 4/17/5 6/20/5 102/17/5
f 102/17/5 100/99/5 101/30/5
f 101/30/5 29/101/5 104/17/5
f 27/20/5 37/17/5 4/17/5
f 101/30/5 104/17/5 27/20/5
f 4/17/5 102/17/5 101/30/5
f 59/12/1 58/114/1 55/39/1
f 59/40/1 94/123/1 83/41/1
f 102/17/5 56/124/5 57/27/5
f 49/20/5 50/116/5 56/28/5
f 94/22/4 55/125/4 46/29/4
f 76/43/8 84/126/8 20/44/8
f 13/48/4 61/127/4 66/46/4
f 66/46/4 69/68/4 77/47/4
f 77/47/4 76/70/4 13/48/4
f 66/49/3 61/128/3 11/50/3
f 41/54/4 89/129/4 91/130/4
f 91/130/4 92/131/4 93/52/4
f 93/52/4 90/132/4 11/53/4
f 11/53/4 64/133/4 41/54/4
f 41/54/4 91/130/4 93/52/4
f 68/56/4 74/89/4 73/91/4
f 73/91/4 83/85/4 82/55/4
f 82/55/4 78/71/4 77/47/4
f 77/47/4 69/68/4 68/56/4
f 68/56/4 73/91/4 82/55/4
f 62/57/7 65/134/7 85/58/7
f 85/62/4 65/135/4 63/136/4
f 63/136/4 20/137/4 84/60/4
f 84/60/4 86/138/4 87/61/4
f 87/61/4 88/139/4 85/62/4
f 85/62/4 63/136/4 84/60/4
f 67/63/7 89/140/7 41/64/7
f 69/68/4 66/46/4 70/141/4
f 69/68/4 70/141/4 71/142/4
f 67/67/4 68/56/4 69/68/4
f 69/68/4 71/142/4 72/66/4
f 78/71/4 75/88/4 79/143/4
f 78/71/4 79/143/4 80/144/4
f 76/70/4 77/47/4 78/71/4
f 78/71/4 80/144/4 81/69/4
f 90/51/10 93/73/10 70/72/10
f 93/73/11 92/145/11 71/74/11
f 92/75/12 91/78/12 72/76/12
f 91/78/13 89/140/13 67/63/13
f 85/58/14 88/80/14 79/79/14
f 88/80/15 87/82/15 80/81/15
f 87/82/16 86/84/16 81/83/16
f 86/84/17 84/126/17 76/43/17
f 11/14/4 10/115/4 12/26/4
f 75/88/4 78/71/4 82/55/4
f 82/55/4 94/86/4 62/87/4
f 68/56/4 67/67/4 35/92/4
f 35/92/4 22/90/4 74/89/4
f 98/93/4 97/98/4 95/94/4
f 95/94/4 99/146/4 59/96/4
f 98/93/4 32/147/4 34/97/4
f 100/99/7 103/148/7 99/100/7
f 29/101/7 101/30/7 97/32/7
f 83/41/1 73/149/1 98/103/1
f 98/103/1 73/149/1 22/104/1
